  0
SECTION
  2
HEADER
  9
$ACADVER
  1
AC1027
  9
$ACADMAINTVER
 70
105
  9
$DWGCODEPAGE
  3
ANSI_1252
  9
$LASTSAVEDBY
  1
ezdxf
  9
$REQUIREDVERSIONS
160
0
  9
$INSBASE
 10
0.0
 20
0.0
 30
0.0
  9
$EXTMIN
 10
1e+20
 20
1e+20
 30
1e+20
  9
$EXTMAX
 10
-1e+20
 20
-1e+20
 30
-1e+20
  9
$LIMMIN
 10
0.0
 20
0.0
  9
$LIMMAX
 10
420.0
 20
297.0
  9
$ORTHOMODE
 70
0
  9
$REGENMODE
 70
1
  9
$FILLMODE
 70
1
  9
$QTEXTMODE
 70
0
  9
$MIRRTEXT
 70
1
  9
$LTSCALE
 40
1.0
  9
$ATTMODE
 70
1
  9
$TEXTSIZE
 40
2.5
  9
$TRACEWID
 40
1.0
  9
$TEXTSTYLE
  7
Standard
  9
$CLAYER
  8
0
  9
$CELTYPE
  6
ByLayer
  9
$CECOLOR
 62
256
  9
$CELTSCALE
 40
1.0
  9
$DISPSILH
 70
0
  9
$DIMSCALE
 40
1.0
  9
$DIMASZ
 40
2.5
  9
$DIMEXO
 40
0.625
  9
$DIMDLI
 40
3.75
  9
$DIMRND
 40
0.0
  9
$DIMDLE
 40
0.0
  9
$DIMEXE
 40
1.25
  9
$DIMTP
 40
0.0
  9
$DIMTM
 40
0.0
  9
$DIMTXT
 40
2.5
  9
$DIMCEN
 40
2.5
  9
$DIMTSZ
 40
0.0
  9
$DIMTOL
 70
0
  9
$DIMLIM
 70
0
  9
$DIMTIH
 70
0
  9
$DIMTOH
 70
0
  9
$DIMSE1
 70
0
  9
$DIMSE2
 70
0
  9
$DIMTAD
 70
1
  9
$DIMZIN
 70
8
  9
$DIMBLK
  1

  9
$DIMASO
 70
1
  9
$DIMSHO
 70
1
  9
$DIMPOST
  1

  9
$DIMAPOST
  1

  9
$DIMALT
 70
0
  9
$DIMALTD
 70
3
  9
$DIMALTF
 40
0.03937007874
  9
$DIMLFAC
 40
1.0
  9
$DIMTOFL
 70
1
  9
$DIMTVP
 40
0.0
  9
$DIMTIX
 70
0
  9
$DIMSOXD
 70
0
  9
$DIMSAH
 70
0
  9
$DIMBLK1
  1

  9
$DIMBLK2
  1

  9
$DIMSTYLE
  2
ISO-25
  9
$DIMCLRD
 70
0
  9
$DIMCLRE
 70
0
  9
$DIMCLRT
 70
0
  9
$DIMTFAC
 40
1.0
  9
$DIMGAP
 40
0.625
  9
$DIMJUST
 70
0
  9
$DIMSD1
 70
0
  9
$DIMSD2
 70
0
  9
$DIMTOLJ
 70
0
  9
$DIMTZIN
 70
8
  9
$DIMALTZ
 70
0
  9
$DIMALTTZ
 70
0
  9
$DIMUPT
 70
0
  9
$DIMDEC
 70
2
  9
$DIMTDEC
 70
2
  9
$DIMALTU
 70
2
  9
$DIMALTTD
 70
3
  9
$DIMTXSTY
  7
Standard
  9
$DIMAUNIT
 70
0
  9
$DIMADEC
 70
0
  9
$DIMALTRND
 40
0.0
  9
$DIMAZIN
 70
0
  9
$DIMDSEP
 70
44
  9
$DIMATFIT
 70
3
  9
$DIMFRAC
 70
0
  9
$DIMLDRBLK
  1

  9
$DIMLUNIT
 70
2
  9
$DIMLWD
 70
-2
  9
$DIMLWE
 70
-2
  9
$DIMTMOVE
 70
0
  9
$DIMFXL
 40
1.0
  9
$DIMFXLON
 70
0
  9
$DIMJOGANG
 40
0.785398163397
  9
$DIMTFILL
 70
0
  9
$DIMTFILLCLR
 70
0
  9
$DIMARCSYM
 70
0
  9
$DIMLTYPE
  6

  9
$DIMLTEX1
  6

  9
$DIMLTEX2
  6

  9
$DIMTXTDIRECTION
 70
0
  9
$LUNITS
 70
2
  9
$LUPREC
 70
4
  9
$SKETCHINC
 40
1.0
  9
$FILLETRAD
 40
10.0
  9
$AUNITS
 70
0
  9
$AUPREC
 70
2
  9
$MENU
  1
.
  9
$ELEVATION
 40
0.0
  9
$PELEVATION
 40
0.0
  9
$THICKNESS
 40
0.0
  9
$LIMCHECK
 70
0
  9
$CHAMFERA
 40
0.0
  9
$CHAMFERB
 40
0.0
  9
$CHAMFERC
 40
0.0
  9
$CHAMFERD
 40
0.0
  9
$SKPOLY
 70
0
  9
$TDCREATE
 40
2460287.339733796
  9
$TDUCREATE
 40
2458532.153996898
  9
$TDUPDATE
 40
2460287.3398148147
  9
$TDUUPDATE
 40
2458532.1544311
  9
$TDINDWG
 40
0.0
  9
$TDUSRTIMER
 40
0.0
  9
$USRTIMER
 70
1
  9
$ANGBASE
 50
0.0
  9
$ANGDIR
 70
0
  9
$PDMODE
 70
0
  9
$PDSIZE
 40
0.0
  9
$PLINEWID
 40
0.0
  9
$SPLFRAME
 70
0
  9
$SPLINETYPE
 70
6
  9
$SPLINESEGS
 70
8
  9
$HANDSEED
  5
418
  9
$SURFTAB1
 70
6
  9
$SURFTAB2
 70
6
  9
$SURFTYPE
 70
6
  9
$SURFU
 70
6
  9
$SURFV
 70
6
  9
$UCSBASE
  2

  9
$UCSNAME
  2

  9
$UCSORG
 10
0.0
 20
0.0
 30
0.0
  9
$UCSXDIR
 10
1.0
 20
0.0
 30
0.0
  9
$UCSYDIR
 10
0.0
 20
1.0
 30
0.0
  9
$UCSORTHOREF
  2

  9
$UCSORTHOVIEW
 70
0
  9
$UCSORGTOP
 10
0.0
 20
0.0
 30
0.0
  9
$UCSORGBOTTOM
 10
0.0
 20
0.0
 30
0.0
  9
$UCSORGLEFT
 10
0.0
 20
0.0
 30
0.0
  9
$UCSORGRIGHT
 10
0.0
 20
0.0
 30
0.0
  9
$UCSORGFRONT
 10
0.0
 20
0.0
 30
0.0
  9
$UCSORGBACK
 10
0.0
 20
0.0
 30
0.0
  9
$PUCSBASE
  2

  9
$PUCSNAME
  2

  9
$PUCSORG
 10
0.0
 20
0.0
 30
0.0
  9
$PUCSXDIR
 10
1.0
 20
0.0
 30
0.0
  9
$PUCSYDIR
 10
0.0
 20
1.0
 30
0.0
  9
$PUCSORTHOREF
  2

  9
$PUCSORTHOVIEW
 70
0
  9
$PUCSORGTOP
 10
0.0
 20
0.0
 30
0.0
  9
$PUCSORGBOTTOM
 10
0.0
 20
0.0
 30
0.0
  9
$PUCSORGLEFT
 10
0.0
 20
0.0
 30
0.0
  9
$PUCSORGRIGHT
 10
0.0
 20
0.0
 30
0.0
  9
$PUCSORGFRONT
 10
0.0
 20
0.0
 30
0.0
  9
$PUCSORGBACK
 10
0.0
 20
0.0
 30
0.0
  9
$USERI1
 70
0
  9
$USERI2
 70
0
  9
$USERI3
 70
0
  9
$USERI4
 70
0
  9
$USERI5
 70
0
  9
$USERR1
 40
0.0
  9
$USERR2
 40
0.0
  9
$USERR3
 40
0.0
  9
$USERR4
 40
0.0
  9
$USERR5
 40
0.0
  9
$WORLDVIEW
 70
1
  9
$SHADEDGE
 70
3
  9
$SHADEDIF
 70
70
  9
$TILEMODE
 70
1
  9
$MAXACTVP
 70
64
  9
$PINSBASE
 10
0.0
 20
0.0
 30
0.0
  9
$PLIMCHECK
 70
0
  9
$PEXTMIN
 10
1e+20
 20
1e+20
 30
1e+20
  9
$PEXTMAX
 10
-1e+20
 20
-1e+20
 30
-1e+20
  9
$PLIMMIN
 10
0.0
 20
0.0
  9
$PLIMMAX
 10
420.0
 20
297.0
  9
$UNITMODE
 70
0
  9
$VISRETAIN
 70
1
  9
$PLINEGEN
 70
0
  9
$PSLTSCALE
 70
1
  9
$TREEDEPTH
 70
3020
  9
$CMLSTYLE
  2
Standard
  9
$CMLJUST
 70
0
  9
$CMLSCALE
 40
20.0
  9
$PROXYGRAPHICS
 70
1
  9
$MEASUREMENT
 70
1
  9
$CELWEIGHT
370
-1
  9
$ENDCAPS
280
0
  9
$JOINSTYLE
280
0
  9
$LWDISPLAY
290
0
  9
$INSUNITS
 70
4
  9
$HYPERLINKBASE
  1

  9
$STYLESHEET
  1

  9
$XEDIT
290
1
  9
$CEPSNTYPE
380
0
  9
$PSTYLEMODE
290
1
  9
$FINGERPRINTGUID
  2
{658AE2DD-2996-4B97-B676-13B3DC223DA7}
  9
$VERSIONGUID
  2
{01C4FF6C-2B93-40C5-8225-09D7591E1BF2}
  9
$EXTNAMES
290
1
  9
$PSVPSCALE
 40
0.0
  9
$OLESTARTUP
290
0
  9
$SORTENTS
280
127
  9
$INDEXCTL
280
0
  9
$HIDETEXT
280
1
  9
$XCLIPFRAME
280
0
  9
$HALOGAP
280
0
  9
$OBSCOLOR
 70
257
  9
$OBSLTYPE
280
0
  9
$INTERSECTIONDISPLAY
280
0
  9
$INTERSECTIONCOLOR
 70
257
  9
$DIMASSOC
280
2
  9
$PROJECTNAME
  1

  9
$CAMERADISPLAY
290
0
  9
$LENSLENGTH
 40
50.0
  9
$CAMERAHEIGHT
 40
0.0
  9
$STEPSPERSEC
 40
24.0
  9
$STEPSIZE
 40
100.0
  9
$3DDWFPREC
 40
2.0
  9
$PSOLWIDTH
 40
0.005
  9
$PSOLHEIGHT
 40
0.08
  9
$LOFTANG1
 40
1.570796326795
  9
$LOFTANG2
 40
1.570796326795
  9
$LOFTMAG1
 40
0.0
  9
$LOFTMAG2
 40
0.0
  9
$LOFTPARAM
 70
7
  9
$LOFTNORMALS
280
1
  9
$LATITUDE
 40
37.795
  9
$LONGITUDE
 40
-122.394
  9
$NORTHDIRECTION
 40
0.0
  9
$TIMEZONE
 70
-8000
  9
$LIGHTGLYPHDISPLAY
280
1
  9
$TILEMODELIGHTSYNCH
280
1
  9
$CMATERIAL
347
20
  9
$SOLIDHIST
280
0
  9
$SHOWHIST
280
1
  9
$DWFFRAME
280
2
  9
$DGNFRAME
280
2
  9
$REALWORLDSCALE
290
1
  9
$INTERFERECOLOR
 62
256
  9
$CSHADOW
280
0
  9
$SHADOWPLANELOCATION
 40
0.0
  0
ENDSEC
  0
SECTION
  2
CLASSES
  0
CLASS
  1
ACDBDICTIONARYWDFLT
  2
AcDbDictionaryWithDefault
  3
ObjectDBX Classes
 90
0
 91
0
280
0
281
0
  0
CLASS
  1
SUN
  2
AcDbSun
  3
SCENEOE
 90
1153
 91
0
280
0
281
0
  0
CLASS
  1
VISUALSTYLE
  2
AcDbVisualStyle
  3
ObjectDBX Classes
 90
4095
 91
0
280
0
281
0
  0
CLASS
  1
MATERIAL
  2
AcDbMaterial
  3
ObjectDBX Classes
 90
1153
 91
0
280
0
281
0
  0
CLASS
  1
SCALE
  2
AcDbScale
  3
ObjectDBX Classes
 90
1153
 91
0
280
0
281
0
  0
CLASS
  1
TABLESTYLE
  2
AcDbTableStyle
  3
ObjectDBX Classes
 90
4095
 91
0
280
0
281
0
  0
CLASS
  1
MLEADERSTYLE
  2
AcDbMLeaderStyle
  3
ACDB_MLEADERSTYLE_CLASS
 90
4095
 91
0
280
0
281
0
  0
CLASS
  1
DICTIONARYVAR
  2
AcDbDictionaryVar
  3
ObjectDBX Classes
 90
0
 91
0
280
0
281
0
  0
CLASS
  1
CELLSTYLEMAP
  2
AcDbCellStyleMap
  3
ObjectDBX Classes
 90
1152
 91
0
280
0
281
0
  0
CLASS
  1
MENTALRAYRENDERSETTINGS
  2
AcDbMentalRayRenderSettings
  3
SCENEOE
 90
1024
 91
0
280
0
281
0
  0
CLASS
  1
ACDBDETAILVIEWSTYLE
  2
AcDbDetailViewStyle
  3
ObjectDBX Classes
 90
1025
 91
0
280
0
281
0
  0
CLASS
  1
ACDBSECTIONVIEWSTYLE
  2
AcDbSectionViewStyle
  3
ObjectDBX Classes
 90
1025
 91
0
280
0
281
0
  0
CLASS
  1
RASTERVARIABLES
  2
AcDbRasterVariables
  3
ISM
 90
0
 91
0
280
0
281
0
  0
CLASS
  1
ACDBPLACEHOLDER
  2
AcDbPlaceHolder
  3
ObjectDBX Classes
 90
0
 91
0
280
0
281
0
  0
CLASS
  1
LAYOUT
  2
AcDbLayout
  3
ObjectDBX Classes
 90
0
 91
0
280
0
281
0
  0
ENDSEC
  0
SECTION
  2
TABLES
  0
TABLE
  2
VPORT
  5
8
330
0
100
AcDbSymbolTable
 70
1
  0
VPORT
  5
23
330
8
100
AcDbSymbolTableRecord
100
AcDbViewportTableRecord
  2
*Active
 70
0
 10
0.0
 20
0.0
 11
1.0
 21
1.0
 12
0.0
 22
0.0
 13
0.0
 23
0.0
 14
0.5
 24
0.5
 15
0.5
 25
0.5
 16
0.0
 26
0.0
 36
1.0
 17
0.0
 27
0.0
 37
0.0
 40
1000.0
 41
1.34
 42
50.0
 43
0.0
 44
0.0
 50
0.0
 51
0.0
 71
0
 72
1000
 73
1
 74
3
 75
0
 76
0
 77
0
 78
0
281
0
 65
0
146
0.0
  0
ENDTAB
  0
TABLE
  2
LTYPE
  5
2
330
0
100
AcDbSymbolTable
 70
3
  0
LTYPE
  5
24
330
2
100
AcDbSymbolTableRecord
100
AcDbLinetypeTableRecord
  2
ByBlock
 70
0
  3

 72
65
 73
0
 40
0.0
  0
LTYPE
  5
25
330
2
100
AcDbSymbolTableRecord
100
AcDbLinetypeTableRecord
  2
ByLayer
 70
0
  3

 72
65
 73
0
 40
0.0
  0
LTYPE
  5
26
330
2
100
AcDbSymbolTableRecord
100
AcDbLinetypeTableRecord
  2
Continuous
 70
0
  3

 72
65
 73
0
 40
0.0
  0
ENDTAB
  0
TABLE
  2
LAYER
  5
1
330
0
100
AcDbSymbolTable
 70
4
  0
LAYER
  5
27
330
1
100
AcDbSymbolTableRecord
100
AcDbLayerTableRecord
  2
0
 70
0
 62
7
  6
Continuous
370
-3
390
13
347
21
  0
LAYER
  5
28
330
1
100
AcDbSymbolTableRecord
100
AcDbLayerTableRecord
  2
Defpoints
 70
0
 62
7
  6
Continuous
290
0
370
-3
390
13
347
21
  0
LAYER
  5
7E
330
1
100
AcDbSymbolTableRecord
100
AcDbLayerTableRecord
  2
ADD_LINE
 70
0
 62
1
  6
Continuous
370
-3
390
13
347
21
  0
LAYER
  5
7F
330
1
100
AcDbSymbolTableRecord
100
AcDbLayerTableRecord
  2
delete_1
 70
0
 62
5
  6
Continuous
370
-3
390
13
347
21
  0
ENDTAB
  0
TABLE
  2
STYLE
  5
5
330
0
100
AcDbSymbolTable
 70
2
  0
STYLE
  5
29
330
5
100
AcDbSymbolTableRecord
100
AcDbTextStyleTableRecord
  2
Standard
 70
0
 40
0.0
 41
1.0
 50
0.0
 71
0
 42
2.5
  3
txt
  4

  0
STYLE
  5
80
330
5
100
AcDbSymbolTableRecord
100
AcDbTextStyleTableRecord
  2
textstyle3
 70
0
 40
0.0
 41
1.0
 50
0.0
 71
0
 42
0.2
  3
msgothic.ttc
  4

  0
ENDTAB
  0
TABLE
  2
VIEW
  5
7
330
0
100
AcDbSymbolTable
 70
0
  0
ENDTAB
  0
TABLE
  2
UCS
  5
6
330
0
100
AcDbSymbolTable
 70
0
  0
ENDTAB
  0
TABLE
  2
APPID
  5
3
330
0
100
AcDbSymbolTable
 70
3
  0
APPID
  5
2A
330
3
100
AcDbSymbolTableRecord
100
AcDbRegAppTableRecord
  2
ACAD
 70
0
  0
APPID
  5
415
330
3
100
AcDbSymbolTableRecord
100
AcDbRegAppTableRecord
  2
HATCHBACKGROUNDCOLOR
 70
0
  0
APPID
  5
416
330
3
100
AcDbSymbolTableRecord
100
AcDbRegAppTableRecord
  2
EZDXF
 70
0
  0
ENDTAB
  0
TABLE
  2
DIMSTYLE
  5
4
330
0
100
AcDbSymbolTable
 70
1
100
AcDbDimStyleTable
  0
DIMSTYLE
105
2B
330
4
100
AcDbSymbolTableRecord
100
AcDbDimStyleTableRecord
  2
Standard
 70
0
 40
1.0
 41
2.5
 42
0.625
 43
3.75
 44
1.25
 45
0.0
 46
0.0
 47
0.0
 48
0.0
 49
2.5
140
2.5
141
2.5
142
0.0
143
0.03937007874
144
1.0
145
0.0
146
1.0
147
0.625
148
0.0
 69
0
 70
0
 71
0
 72
0
 73
0
 74
0
 75
0
 76
0
 77
1
 78
8
 79
3
170
0
171
3
172
1
173
0
174
0
175
0
176
0
177
0
178
0
179
2
271
2
272
2
273
2
274
3
275
0
276
0
277
2
278
44
279
0
280
0
281
0
282
0
283
0
284
8
285
0
286
0
288
0
289
3
290
0
371
-2
372
-2
  0
ENDTAB
  0
TABLE
  2
BLOCK_RECORD
  5
9
330
0
100
AcDbSymbolTable
 70
145
  0
BLOCK_RECORD
  5
17
330
9
100
AcDbSymbolTableRecord
100
AcDbBlockTableRecord
  2
*Model_Space
340
1A
 70
0
280
1
281
0
  0
BLOCK_RECORD
  5
1B
330
9
100
AcDbSymbolTableRecord
100
AcDbBlockTableRecord
  2
*Paper_Space
340
1E
 70
0
280
1
281
0
  0
BLOCK_RECORD
  5
2F
330
9
100
AcDbSymbolTableRecord
100
AcDbBlockTableRecord
  2
SOURCE_ENTS
340
0
 70
0
280
1
281
0
  0
BLOCK_RECORD
  5
4C
330
9
100
AcDbSymbolTableRecord
100
AcDbBlockTableRecord
  2
-span_hatch_pchihadc
340
0
 70
0
280
1
281
0
  0
BLOCK_RECORD
  5
51
330
9
100
AcDbSymbolTableRecord
100
AcDbBlockTableRecord
  2
-trai_dim_cgvbquip
340
0
 70
0
280
1
281
0
  0
BLOCK_RECORD
  5
57
330
9
100
AcDbSymbolTableRecord
100
AcDbBlockTableRecord
  2
-trai_hatch_duwrfmnt
340
0
 70
0
280
1
281
0
  0
BLOCK_RECORD
  5
5C
330
9
100
AcDbSymbolTableRecord
100
AcDbBlockTableRecord
  2
-phai_dim_kmokakme
340
0
 70
0
280
1
281
0
  0
BLOCK_RECORD
  5
62
330
9
100
AcDbSymbolTableRecord
100
AcDbBlockTableRecord
  2
-phai_hatch_owgjerhg
340
0
 70
0
280
1
281
0
  0
BLOCK_RECORD
  5
67
330
9
100
AcDbSymbolTableRecord
100
AcDbBlockTableRecord
  2
-giua_hatch_ilzftine
340
0
 70
0
280
1
281
0
  0
BLOCK_RECORD
  5
6C
330
9
100
AcDbSymbolTableRecord
100
AcDbBlockTableRecord
  2
-doori_pqjcgspf
340
0
 70
0
280
1
281
0
  0
BLOCK_RECORD
  5
72
330
9
100
AcDbSymbolTableRecord
100
AcDbBlockTableRecord
  2
-trai_dim_attdef
340
0
 70
0
280
1
281
0
  0
BLOCK_RECORD
  5
76
330
9
100
AcDbSymbolTableRecord
100
AcDbBlockTableRecord
  2
-phai_dim_attdef
340
0
 70
0
280
1
281
0
  0
BLOCK_RECORD
  5
7A
330
9
100
AcDbSymbolTableRecord
100
AcDbBlockTableRecord
  2
-doori_attdef
340
0
 70
0
280
1
281
0
  0
BLOCK_RECORD
  5
9B
330
9
100
AcDbSymbolTableRecord
100
AcDbBlockTableRecord
  2
-span_hatch_cgawgnyl
340
0
 70
0
280
1
281
0
  0
BLOCK_RECORD
  5
A0
330
9
100
AcDbSymbolTableRecord
100
AcDbBlockTableRecord
  2
-trai_dim_eugmcqxz
340
0
 70
0
280
1
281
0
  0
BLOCK_RECORD
  5
A6
330
9
100
AcDbSymbolTableRecord
100
AcDbBlockTableRecord
  2
-trai_hatch_kbkewimy
340
0
 70
0
280
1
281
0
  0
BLOCK_RECORD
  5
AB
330
9
100
AcDbSymbolTableRecord
100
AcDbBlockTableRecord
  2
-phai_dim_wlbgaaeb
340
0
 70
0
280
1
281
0
  0
BLOCK_RECORD
  5
B1
330
9
100
AcDbSymbolTableRecord
100
AcDbBlockTableRecord
  2
-phai_hatch_cniiaqvu
340
0
 70
0
280
1
281
0
  0
BLOCK_RECORD
  5
B6
330
9
100
AcDbSymbolTableRecord
100
AcDbBlockTableRecord
  2
-giua_hatch_bnfdlerc
340
0
 70
0
280
1
281
0
  0
BLOCK_RECORD
  5
BB
330
9
100
AcDbSymbolTableRecord
100
AcDbBlockTableRecord
  2
-doori_qrvltnbh
340
0
 70
0
280
1
281
0
  0
BLOCK_RECORD
  5
C1
330
9
100
AcDbSymbolTableRecord
100
AcDbBlockTableRecord
  2
-trai_dim_attdef0
340
0
 70
0
280
1
281
0
  0
BLOCK_RECORD
  5
C5
330
9
100
AcDbSymbolTableRecord
100
AcDbBlockTableRecord
  2
-phai_dim_attdef0
340
0
 70
0
280
1
281
0
  0
BLOCK_RECORD
  5
C9
330
9
100
AcDbSymbolTableRecord
100
AcDbBlockTableRecord
  2
-doori_attdef0
340
0
 70
0
280
1
281
0
  0
BLOCK_RECORD
  5
E7
330
9
100
AcDbSymbolTableRecord
100
AcDbBlockTableRecord
  2
-span_hatch_yeprsqkl
340
0
 70
0
280
1
281
0
  0
BLOCK_RECORD
  5
EC
330
9
100
AcDbSymbolTableRecord
100
AcDbBlockTableRecord
  2
-trai_dim_zbcdaowf
340
0
 70
0
280
1
281
0
  0
BLOCK_RECORD
  5
F2
330
9
100
AcDbSymbolTableRecord
100
AcDbBlockTableRecord
  2
-trai_hatch_nylhmgfa
340
0
 70
0
280
1
281
0
  0
BLOCK_RECORD
  5
F7
330
9
100
AcDbSymbolTableRecord
100
AcDbBlockTableRecord
  2
-phai_dim_frbhzejz
340
0
 70
0
280
1
281
0
  0
BLOCK_RECORD
  5
FD
330
9
100
AcDbSymbolTableRecord
100
AcDbBlockTableRecord
  2
-phai_hatch_vifozeyc
340
0
 70
0
280
1
281
0
  0
BLOCK_RECORD
  5
102
330
9
100
AcDbSymbolTableRecord
100
AcDbBlockTableRecord
  2
-giua_hatch_msijynvw
340
0
 70
0
280
1
281
0
  0
BLOCK_RECORD
  5
107
330
9
100
AcDbSymbolTableRecord
100
AcDbBlockTableRecord
  2
-doori_gpypplvt
340
0
 70
0
280
1
281
0
  0
BLOCK_RECORD
  5
10D
330
9
100
AcDbSymbolTableRecord
100
AcDbBlockTableRecord
  2
-trai_dim_attdef1
340
0
 70
0
280
1
281
0
  0
BLOCK_RECORD
  5
111
330
9
100
AcDbSymbolTableRecord
100
AcDbBlockTableRecord
  2
-phai_dim_attdef1
340
0
 70
0
280
1
281
0
  0
BLOCK_RECORD
  5
115
330
9
100
AcDbSymbolTableRecord
100
AcDbBlockTableRecord
  2
-doori_attdef1
340
0
 70
0
280
1
281
0
  0
BLOCK_RECORD
  5
17F
330
9
100
AcDbSymbolTableRecord
100
AcDbBlockTableRecord
  2
-span_nhip1_top3_xzwsuzja
340
0
 70
0
280
1
281
0
  0
BLOCK_RECORD
  5
185
330
9
100
AcDbSymbolTableRecord
100
AcDbBlockTableRecord
  2
-span_nhip1_top2_uimkfgse
340
0
 70
0
280
1
281
0
  0
BLOCK_RECORD
  5
18B
330
9
100
AcDbSymbolTableRecord
100
AcDbBlockTableRecord
  2
-span_nhip1_bot1_cbefcphq
340
0
 70
0
280
1
281
0
  0
BLOCK_RECORD
  5
191
330
9
100
AcDbSymbolTableRecord
100
AcDbBlockTableRecord
  2
-span_nhip1_bot2_fymjdaqi
340
0
 70
0
280
1
281
0
  0
BLOCK_RECORD
  5
197
330
9
100
AcDbSymbolTableRecord
100
AcDbBlockTableRecord
  2
-span_nhip1_bot3_otiigeam
340
0
 70
0
280
1
281
0
  0
BLOCK_RECORD
  5
19D
330
9
100
AcDbSymbolTableRecord
100
AcDbBlockTableRecord
  2
-span_nhip1_top1_hnqvsgoe
340
0
 70
0
280
1
281
0
  0
BLOCK_RECORD
  5
1A3
330
9
100
AcDbSymbolTableRecord
100
AcDbBlockTableRecord
  2
-span_nhip1_dim_mypsncex
340
0
 70
0
280
1
281
0
  0
BLOCK_RECORD
  5
1A9
330
9
100
AcDbSymbolTableRecord
100
AcDbBlockTableRecord
  2
-span_nhip1_hatch1_rovqzqdu
340
0
 70
0
280
1
281
0
  0
BLOCK_RECORD
  5
1AE
330
9
100
AcDbSymbolTableRecord
100
AcDbBlockTableRecord
  2
-span_dim_fyfowiqy
340
0
 70
0
280
1
281
0
  0
BLOCK_RECORD
  5
1B4
330
9
100
AcDbSymbolTableRecord
100
AcDbBlockTableRecord
  2
-span_tong_crymqwni
340
0
 70
0
280
1
281
0
  0
BLOCK_RECORD
  5
1BA
330
9
100
AcDbSymbolTableRecord
100
AcDbBlockTableRecord
  2
-span_nhip2_top3_fazpxidm
340
0
 70
0
280
1
281
0
  0
BLOCK_RECORD
  5
1C0
330
9
100
AcDbSymbolTableRecord
100
AcDbBlockTableRecord
  2
-span_nhip2_top2_qwjhtvce
340
0
 70
0
280
1
281
0
  0
BLOCK_RECORD
  5
1C6
330
9
100
AcDbSymbolTableRecord
100
AcDbBlockTableRecord
  2
-span_nhip2_bot1_qvodbpjd
340
0
 70
0
280
1
281
0
  0
BLOCK_RECORD
  5
1CC
330
9
100
AcDbSymbolTableRecord
100
AcDbBlockTableRecord
  2
-span_nhip2_bot2_qxdcdvyl
340
0
 70
0
280
1
281
0
  0
BLOCK_RECORD
  5
1D2
330
9
100
AcDbSymbolTableRecord
100
AcDbBlockTableRecord
  2
-span_nhip2_bot3_atsamvqm
340
0
 70
0
280
1
281
0
  0
BLOCK_RECORD
  5
1D8
330
9
100
AcDbSymbolTableRecord
100
AcDbBlockTableRecord
  2
-span_WxH_sptmpukl
340
0
 70
0
280
1
281
0
  0
BLOCK_RECORD
  5
1DE
330
9
100
AcDbSymbolTableRecord
100
AcDbBlockTableRecord
  2
-span_nhip2_top1_gpysajyh
340
0
 70
0
280
1
281
0
  0
BLOCK_RECORD
  5
1E4
330
9
100
AcDbSymbolTableRecord
100
AcDbBlockTableRecord
  2
-span_nhip2_dim_tusklgxn
340
0
 70
0
280
1
281
0
  0
BLOCK_RECORD
  5
1EA
330
9
100
AcDbSymbolTableRecord
100
AcDbBlockTableRecord
  2
-span_hari_pczjzkpg
340
0
 70
0
280
1
281
0
  0
BLOCK_RECORD
  5
1F0
330
9
100
AcDbSymbolTableRecord
100
AcDbBlockTableRecord
  2
-span_dansa_tntgvofn
340
0
 70
0
280
1
281
0
  0
BLOCK_RECORD
  5
1F6
330
9
100
AcDbSymbolTableRecord
100
AcDbBlockTableRecord
  2
-span_nhip2_hatch1_sczwiafp
340
0
 70
0
280
1
281
0
  0
BLOCK_RECORD
  5
1FB
330
9
100
AcDbSymbolTableRecord
100
AcDbBlockTableRecord
  2
-span_nhip3_hatch1_ivadzcyb
340
0
 70
0
280
1
281
0
  0
BLOCK_RECORD
  5
200
330
9
100
AcDbSymbolTableRecord
100
AcDbBlockTableRecord
  2
-span_nhip3_top3_qvdyrrcc
340
0
 70
0
280
1
281
0
  0
BLOCK_RECORD
  5
206
330
9
100
AcDbSymbolTableRecord
100
AcDbBlockTableRecord
  2
-span_nhip3_top2_zqjwltgi
340
0
 70
0
280
1
281
0
  0
BLOCK_RECORD
  5
20C
330
9
100
AcDbSymbolTableRecord
100
AcDbBlockTableRecord
  2
-span_nhip3_bot1_yxyvgdvv
340
0
 70
0
280
1
281
0
  0
BLOCK_RECORD
  5
212
330
9
100
AcDbSymbolTableRecord
100
AcDbBlockTableRecord
  2
-span_nhip3_bot2_onwqzcql
340
0
 70
0
280
1
281
0
  0
BLOCK_RECORD
  5
218
330
9
100
AcDbSymbolTableRecord
100
AcDbBlockTableRecord
  2
-span_nhip3_bot3_pdybvgls
340
0
 70
0
280
1
281
0
  0
BLOCK_RECORD
  5
21E
330
9
100
AcDbSymbolTableRecord
100
AcDbBlockTableRecord
  2
-span_nhip3_top1_zucrxsha
340
0
 70
0
280
1
281
0
  0
BLOCK_RECORD
  5
224
330
9
100
AcDbSymbolTableRecord
100
AcDbBlockTableRecord
  2
-span_nhip3_dim_nvuysuly
340
0
 70
0
280
1
281
0
  0
BLOCK_RECORD
  5
22A
330
9
100
AcDbSymbolTableRecord
100
AcDbBlockTableRecord
  2
-span_nhip3_hatch2_zligsaru
340
0
 70
0
280
1
281
0
  0
BLOCK_RECORD
  5
22F
330
9
100
AcDbSymbolTableRecord
100
AcDbBlockTableRecord
  2
-span_nhip1_top3_attdef
340
0
 70
0
280
1
281
0
  0
BLOCK_RECORD
  5
233
330
9
100
AcDbSymbolTableRecord
100
AcDbBlockTableRecord
  2
-span_nhip1_top2_attdef
340
0
 70
0
280
1
281
0
  0
BLOCK_RECORD
  5
237
330
9
100
AcDbSymbolTableRecord
100
AcDbBlockTableRecord
  2
-span_nhip1_bot1_attdef
340
0
 70
0
280
1
281
0
  0
BLOCK_RECORD
  5
23B
330
9
100
AcDbSymbolTableRecord
100
AcDbBlockTableRecord
  2
-span_nhip1_bot2_attdef
340
0
 70
0
280
1
281
0
  0
BLOCK_RECORD
  5
23F
330
9
100
AcDbSymbolTableRecord
100
AcDbBlockTableRecord
  2
-span_nhip1_bot3_attdef
340
0
 70
0
280
1
281
0
  0
BLOCK_RECORD
  5
243
330
9
100
AcDbSymbolTableRecord
100
AcDbBlockTableRecord
  2
-span_nhip1_top1_attdef
340
0
 70
0
280
1
281
0
  0
BLOCK_RECORD
  5
247
330
9
100
AcDbSymbolTableRecord
100
AcDbBlockTableRecord
  2
-span_nhip1_dim_attdef
340
0
 70
0
280
1
281
0
  0
BLOCK_RECORD
  5
24B
330
9
100
AcDbSymbolTableRecord
100
AcDbBlockTableRecord
  2
-span_dim_attdef
340
0
 70
0
280
1
281
0
  0
BLOCK_RECORD
  5
24F
330
9
100
AcDbSymbolTableRecord
100
AcDbBlockTableRecord
  2
-span_tong_attdef
340
0
 70
0
280
1
281
0
  0
BLOCK_RECORD
  5
253
330
9
100
AcDbSymbolTableRecord
100
AcDbBlockTableRecord
  2
-span_nhip2_top3_attdef
340
0
 70
0
280
1
281
0
  0
BLOCK_RECORD
  5
257
330
9
100
AcDbSymbolTableRecord
100
AcDbBlockTableRecord
  2
-span_nhip2_top2_attdef
340
0
 70
0
280
1
281
0
  0
BLOCK_RECORD
  5
25B
330
9
100
AcDbSymbolTableRecord
100
AcDbBlockTableRecord
  2
-span_nhip2_bot1_attdef
340
0
 70
0
280
1
281
0
  0
BLOCK_RECORD
  5
25F
330
9
100
AcDbSymbolTableRecord
100
AcDbBlockTableRecord
  2
-span_nhip2_bot2_attdef
340
0
 70
0
280
1
281
0
  0
BLOCK_RECORD
  5
263
330
9
100
AcDbSymbolTableRecord
100
AcDbBlockTableRecord
  2
-span_nhip2_bot3_attdef
340
0
 70
0
280
1
281
0
  0
BLOCK_RECORD
  5
267
330
9
100
AcDbSymbolTableRecord
100
AcDbBlockTableRecord
  2
-span_WxH_attdef
340
0
 70
0
280
1
281
0
  0
BLOCK_RECORD
  5
26B
330
9
100
AcDbSymbolTableRecord
100
AcDbBlockTableRecord
  2
-span_nhip2_top1_attdef
340
0
 70
0
280
1
281
0
  0
BLOCK_RECORD
  5
26F
330
9
100
AcDbSymbolTableRecord
100
AcDbBlockTableRecord
  2
-span_nhip2_dim_attdef
340
0
 70
0
280
1
281
0
  0
BLOCK_RECORD
  5
273
330
9
100
AcDbSymbolTableRecord
100
AcDbBlockTableRecord
  2
-span_hari_attdef
340
0
 70
0
280
1
281
0
  0
BLOCK_RECORD
  5
277
330
9
100
AcDbSymbolTableRecord
100
AcDbBlockTableRecord
  2
-span_dansa_attdef
340
0
 70
0
280
1
281
0
  0
BLOCK_RECORD
  5
27B
330
9
100
AcDbSymbolTableRecord
100
AcDbBlockTableRecord
  2
-span_nhip3_top3_attdef
340
0
 70
0
280
1
281
0
  0
BLOCK_RECORD
  5
27F
330
9
100
AcDbSymbolTableRecord
100
AcDbBlockTableRecord
  2
-span_nhip3_top2_attdef
340
0
 70
0
280
1
281
0
  0
BLOCK_RECORD
  5
283
330
9
100
AcDbSymbolTableRecord
100
AcDbBlockTableRecord
  2
-span_nhip3_bot1_attdef
340
0
 70
0
280
1
281
0
  0
BLOCK_RECORD
  5
287
330
9
100
AcDbSymbolTableRecord
100
AcDbBlockTableRecord
  2
-span_nhip3_bot2_attdef
340
0
 70
0
280
1
281
0
  0
BLOCK_RECORD
  5
28B
330
9
100
AcDbSymbolTableRecord
100
AcDbBlockTableRecord
  2
-span_nhip3_bot3_attdef
340
0
 70
0
280
1
281
0
  0
BLOCK_RECORD
  5
28F
330
9
100
AcDbSymbolTableRecord
100
AcDbBlockTableRecord
  2
-span_nhip3_top1_attdef
340
0
 70
0
280
1
281
0
  0
BLOCK_RECORD
  5
293
330
9
100
AcDbSymbolTableRecord
100
AcDbBlockTableRecord
  2
-span_nhip3_dim_attdef
340
0
 70
0
280
1
281
0
  0
BLOCK_RECORD
  5
2FD
330
9
100
AcDbSymbolTableRecord
100
AcDbBlockTableRecord
  2
-span_nhip1_top3_inunqmfj
340
0
 70
0
280
1
281
0
  0
BLOCK_RECORD
  5
303
330
9
100
AcDbSymbolTableRecord
100
AcDbBlockTableRecord
  2
-span_nhip1_top2_adiublwr
340
0
 70
0
280
1
281
0
  0
BLOCK_RECORD
  5
309
330
9
100
AcDbSymbolTableRecord
100
AcDbBlockTableRecord
  2
-span_nhip1_bot1_armkluco
340
0
 70
0
280
1
281
0
  0
BLOCK_RECORD
  5
30F
330
9
100
AcDbSymbolTableRecord
100
AcDbBlockTableRecord
  2
-span_nhip1_bot2_zqnlxkje
340
0
 70
0
280
1
281
0
  0
BLOCK_RECORD
  5
315
330
9
100
AcDbSymbolTableRecord
100
AcDbBlockTableRecord
  2
-span_nhip1_bot3_lypxfhyh
340
0
 70
0
280
1
281
0
  0
BLOCK_RECORD
  5
31B
330
9
100
AcDbSymbolTableRecord
100
AcDbBlockTableRecord
  2
-span_nhip1_top1_jqciodfw
340
0
 70
0
280
1
281
0
  0
BLOCK_RECORD
  5
321
330
9
100
AcDbSymbolTableRecord
100
AcDbBlockTableRecord
  2
-span_nhip1_dim_qdddvstv
340
0
 70
0
280
1
281
0
  0
BLOCK_RECORD
  5
327
330
9
100
AcDbSymbolTableRecord
100
AcDbBlockTableRecord
  2
-span_nhip1_hatch1_dhmrnjtp
340
0
 70
0
280
1
281
0
  0
BLOCK_RECORD
  5
32C
330
9
100
AcDbSymbolTableRecord
100
AcDbBlockTableRecord
  2
-span_dim_ztydtkjn
340
0
 70
0
280
1
281
0
  0
BLOCK_RECORD
  5
332
330
9
100
AcDbSymbolTableRecord
100
AcDbBlockTableRecord
  2
-span_tong_wzhtgkzv
340
0
 70
0
280
1
281
0
  0
BLOCK_RECORD
  5
338
330
9
100
AcDbSymbolTableRecord
100
AcDbBlockTableRecord
  2
-span_nhip2_top3_jflgpctr
340
0
 70
0
280
1
281
0
  0
BLOCK_RECORD
  5
33E
330
9
100
AcDbSymbolTableRecord
100
AcDbBlockTableRecord
  2
-span_nhip2_top2_lzuwyvfd
340
0
 70
0
280
1
281
0
  0
BLOCK_RECORD
  5
344
330
9
100
AcDbSymbolTableRecord
100
AcDbBlockTableRecord
  2
-span_nhip2_bot1_vwrdcwvt
340
0
 70
0
280
1
281
0
  0
BLOCK_RECORD
  5
34A
330
9
100
AcDbSymbolTableRecord
100
AcDbBlockTableRecord
  2
-span_nhip2_bot2_xfgbutnd
340
0
 70
0
280
1
281
0
  0
BLOCK_RECORD
  5
350
330
9
100
AcDbSymbolTableRecord
100
AcDbBlockTableRecord
  2
-span_nhip2_bot3_jkyelxdr
340
0
 70
0
280
1
281
0
  0
BLOCK_RECORD
  5
356
330
9
100
AcDbSymbolTableRecord
100
AcDbBlockTableRecord
  2
-span_WxH_itplevzx
340
0
 70
0
280
1
281
0
  0
BLOCK_RECORD
  5
35C
330
9
100
AcDbSymbolTableRecord
100
AcDbBlockTableRecord
  2
-span_nhip2_top1_qvymqhju
340
0
 70
0
280
1
281
0
  0
BLOCK_RECORD
  5
362
330
9
100
AcDbSymbolTableRecord
100
AcDbBlockTableRecord
  2
-span_nhip2_dim_dsyugmex
340
0
 70
0
280
1
281
0
  0
BLOCK_RECORD
  5
368
330
9
100
AcDbSymbolTableRecord
100
AcDbBlockTableRecord
  2
-span_hari_kiuregkt
340
0
 70
0
280
1
281
0
  0
BLOCK_RECORD
  5
36E
330
9
100
AcDbSymbolTableRecord
100
AcDbBlockTableRecord
  2
-span_dansa_lcmhyglj
340
0
 70
0
280
1
281
0
  0
BLOCK_RECORD
  5
374
330
9
100
AcDbSymbolTableRecord
100
AcDbBlockTableRecord
  2
-span_nhip2_hatch1_wwfabblw
340
0
 70
0
280
1
281
0
  0
BLOCK_RECORD
  5
379
330
9
100
AcDbSymbolTableRecord
100
AcDbBlockTableRecord
  2
-span_nhip3_hatch1_qdyquous
340
0
 70
0
280
1
281
0
  0
BLOCK_RECORD
  5
37E
330
9
100
AcDbSymbolTableRecord
100
AcDbBlockTableRecord
  2
-span_nhip3_top3_ndfihxbt
340
0
 70
0
280
1
281
0
  0
BLOCK_RECORD
  5
384
330
9
100
AcDbSymbolTableRecord
100
AcDbBlockTableRecord
  2
-span_nhip3_top2_gfjjaaxz
340
0
 70
0
280
1
281
0
  0
BLOCK_RECORD
  5
38A
330
9
100
AcDbSymbolTableRecord
100
AcDbBlockTableRecord
  2
-span_nhip3_bot1_ahnzlndr
340
0
 70
0
280
1
281
0
  0
BLOCK_RECORD
  5
390
330
9
100
AcDbSymbolTableRecord
100
AcDbBlockTableRecord
  2
-span_nhip3_bot2_upvppmcn
340
0
 70
0
280
1
281
0
  0
BLOCK_RECORD
  5
396
330
9
100
AcDbSymbolTableRecord
100
AcDbBlockTableRecord
  2
-span_nhip3_bot3_acbwzula
340
0
 70
0
280
1
281
0
  0
BLOCK_RECORD
  5
39C
330
9
100
AcDbSymbolTableRecord
100
AcDbBlockTableRecord
  2
-span_nhip3_top1_txpstmgx
340
0
 70
0
280
1
281
0
  0
BLOCK_RECORD
  5
3A2
330
9
100
AcDbSymbolTableRecord
100
AcDbBlockTableRecord
  2
-span_nhip3_dim_kvbmrxrs
340
0
 70
0
280
1
281
0
  0
BLOCK_RECORD
  5
3A8
330
9
100
AcDbSymbolTableRecord
100
AcDbBlockTableRecord
  2
-span_nhip3_hatch2_rpctzgyu
340
0
 70
0
280
1
281
0
  0
BLOCK_RECORD
  5
3AD
330
9
100
AcDbSymbolTableRecord
100
AcDbBlockTableRecord
  2
-span_nhip1_top3_attdef0
340
0
 70
0
280
1
281
0
  0
BLOCK_RECORD
  5
3B1
330
9
100
AcDbSymbolTableRecord
100
AcDbBlockTableRecord
  2
-span_nhip1_top2_attdef0
340
0
 70
0
280
1
281
0
  0
BLOCK_RECORD
  5
3B5
330
9
100
AcDbSymbolTableRecord
100
AcDbBlockTableRecord
  2
-span_nhip1_bot1_attdef0
340
0
 70
0
280
1
281
0
  0
BLOCK_RECORD
  5
3B9
330
9
100
AcDbSymbolTableRecord
100
AcDbBlockTableRecord
  2
-span_nhip1_bot2_attdef0
340
0
 70
0
280
1
281
0
  0
BLOCK_RECORD
  5
3BD
330
9
100
AcDbSymbolTableRecord
100
AcDbBlockTableRecord
  2
-span_nhip1_bot3_attdef0
340
0
 70
0
280
1
281
0
  0
BLOCK_RECORD
  5
3C1
330
9
100
AcDbSymbolTableRecord
100
AcDbBlockTableRecord
  2
-span_nhip1_top1_attdef0
340
0
 70
0
280
1
281
0
  0
BLOCK_RECORD
  5
3C5
330
9
100
AcDbSymbolTableRecord
100
AcDbBlockTableRecord
  2
-span_nhip1_dim_attdef0
340
0
 70
0
280
1
281
0
  0
BLOCK_RECORD
  5
3C9
330
9
100
AcDbSymbolTableRecord
100
AcDbBlockTableRecord
  2
-span_dim_attdef0
340
0
 70
0
280
1
281
0
  0
BLOCK_RECORD
  5
3CD
330
9
100
AcDbSymbolTableRecord
100
AcDbBlockTableRecord
  2
-span_tong_attdef0
340
0
 70
0
280
1
281
0
  0
BLOCK_RECORD
  5
3D1
330
9
100
AcDbSymbolTableRecord
100
AcDbBlockTableRecord
  2
-span_nhip2_top3_attdef0
340
0
 70
0
280
1
281
0
  0
BLOCK_RECORD
  5
3D5
330
9
100
AcDbSymbolTableRecord
100
AcDbBlockTableRecord
  2
-span_nhip2_top2_attdef0
340
0
 70
0
280
1
281
0
  0
BLOCK_RECORD
  5
3D9
330
9
100
AcDbSymbolTableRecord
100
AcDbBlockTableRecord
  2
-span_nhip2_bot1_attdef0
340
0
 70
0
280
1
281
0
  0
BLOCK_RECORD
  5
3DD
330
9
100
AcDbSymbolTableRecord
100
AcDbBlockTableRecord
  2
-span_nhip2_bot2_attdef0
340
0
 70
0
280
1
281
0
  0
BLOCK_RECORD
  5
3E1
330
9
100
AcDbSymbolTableRecord
100
AcDbBlockTableRecord
  2
-span_nhip2_bot3_attdef0
340
0
 70
0
280
1
281
0
  0
BLOCK_RECORD
  5
3E5
330
9
100
AcDbSymbolTableRecord
100
AcDbBlockTableRecord
  2
-span_WxH_attdef0
340
0
 70
0
280
1
281
0
  0
BLOCK_RECORD
  5
3E9
330
9
100
AcDbSymbolTableRecord
100
AcDbBlockTableRecord
  2
-span_nhip2_top1_attdef0
340
0
 70
0
280
1
281
0
  0
BLOCK_RECORD
  5
3ED
330
9
100
AcDbSymbolTableRecord
100
AcDbBlockTableRecord
  2
-span_nhip2_dim_attdef0
340
0
 70
0
280
1
281
0
  0
BLOCK_RECORD
  5
3F1
330
9
100
AcDbSymbolTableRecord
100
AcDbBlockTableRecord
  2
-span_hari_attdef0
340
0
 70
0
280
1
281
0
  0
BLOCK_RECORD
  5
3F5
330
9
100
AcDbSymbolTableRecord
100
AcDbBlockTableRecord
  2
-span_dansa_attdef0
340
0
 70
0
280
1
281
0
  0
BLOCK_RECORD
  5
3F9
330
9
100
AcDbSymbolTableRecord
100
AcDbBlockTableRecord
  2
-span_nhip3_top3_attdef0
340
0
 70
0
280
1
281
0
  0
BLOCK_RECORD
  5
3FD
330
9
100
AcDbSymbolTableRecord
100
AcDbBlockTableRecord
  2
-span_nhip3_top2_attdef0
340
0
 70
0
280
1
281
0
  0
BLOCK_RECORD
  5
401
330
9
100
AcDbSymbolTableRecord
100
AcDbBlockTableRecord
  2
-span_nhip3_bot1_attdef0
340
0
 70
0
280
1
281
0
  0
BLOCK_RECORD
  5
405
330
9
100
AcDbSymbolTableRecord
100
AcDbBlockTableRecord
  2
-span_nhip3_bot2_attdef0
340
0
 70
0
280
1
281
0
  0
BLOCK_RECORD
  5
409
330
9
100
AcDbSymbolTableRecord
100
AcDbBlockTableRecord
  2
-span_nhip3_bot3_attdef0
340
0
 70
0
280
1
281
0
  0
BLOCK_RECORD
  5
40D
330
9
100
AcDbSymbolTableRecord
100
AcDbBlockTableRecord
  2
-span_nhip3_top1_attdef0
340
0
 70
0
280
1
281
0
  0
BLOCK_RECORD
  5
411
330
9
100
AcDbSymbolTableRecord
100
AcDbBlockTableRecord
  2
-span_nhip3_dim_attdef0
340
0
 70
0
280
1
281
0
  0
ENDTAB
  0
ENDSEC
  0
SECTION
  2
BLOCKS
  0
BLOCK
  5
18
330
17
100
AcDbEntity
  8
0
100
AcDbBlockBegin
  2
*Model_Space
 70
0
 10
0.0
 20
0.0
 30
0.0
  3
*Model_Space
  1

  0
ENDBLK
  5
19
330
17
100
AcDbEntity
  8
0
100
AcDbBlockEnd
  0
BLOCK
  5
1C
330
1B
100
AcDbEntity
  8
0
100
AcDbBlockBegin
  2
*Paper_Space
 70
0
 10
0.0
 20
0.0
 30
0.0
  3
*Paper_Space
  1

  0
ENDBLK
  5
1D
330
1B
100
AcDbEntity
  8
0
100
AcDbBlockEnd
  0
BLOCK
  5
30
330
2F
100
AcDbEntity
  8
0
100
AcDbBlockBegin
  2
SOURCE_ENTS
 70
0
 10
0.0
 20
0.0
 30
0.0
  3
SOURCE_ENTS
  1

  0
LINE
  5
47
330
2F
100
AcDbEntity
  8
ADD_LINE
100
AcDbLine
 10
525.0
 20
15000.0
 30
0.0
 11
525.0
 21
0.0
 31
0.0
  0
LINE
  5
48
330
2F
100
AcDbEntity
  8
0
100
AcDbLine
 10
25.0
 20
15000.0
 30
0.0
 11
25.0
 21
0.0
 31
0.0
  0
LINE
  5
49
330
2F
100
AcDbEntity
  8
0
100
AcDbLine
 10
1025.0
 20
15000.0
 30
0.0
 11
1025.0
 21
0.0
 31
0.0
  0
LINE
  5
4A
330
2F
100
AcDbEntity
  8
0
100
AcDbLine
 10
525.0
 20
14200.676
 30
0.0
 11
25.0
 21
14200.676
 31
0.0
  0
LINE
  5
4B
330
2F
100
AcDbEntity
  8
0
100
AcDbLine
 10
525.0
 20
14200.676
 30
0.0
 11
1025.0
 21
14200.676
 31
0.0
  0
LINE
  5
96
330
2F
100
AcDbEntity
  8
ADD_LINE
100
AcDbLine
 10
7025.0
 20
15000.0
 30
0.0
 11
7025.0
 21
0.0
 31
0.0
  0
LINE
  5
97
330
2F
100
AcDbEntity
  8
0
100
AcDbLine
 10
6525.0
 20
15000.0
 30
0.0
 11
6525.0
 21
0.0
 31
0.0
  0
LINE
  5
98
330
2F
100
AcDbEntity
  8
0
100
AcDbLine
 10
7525.0
 20
15000.0
 30
0.0
 11
7525.0
 21
0.0
 31
0.0
  0
LINE
  5
99
330
2F
100
AcDbEntity
  8
0
100
AcDbLine
 10
7025.0
 20
14200.676
 30
0.0
 11
6525.0
 21
14200.676
 31
0.0
  0
LINE
  5
9A
330
2F
100
AcDbEntity
  8
0
100
AcDbLine
 10
7025.0
 20
14200.676
 30
0.0
 11
7525.0
 21
14200.676
 31
0.0
  0
LINE
  5
E2
330
2F
100
AcDbEntity
  8
ADD_LINE
100
AcDbLine
 10
13525.0
 20
15000.0
 30
0.0
 11
13525.0
 21
0.0
 31
0.0
  0
LINE
  5
E3
330
2F
100
AcDbEntity
  8
0
100
AcDbLine
 10
13025.0
 20
15000.0
 30
0.0
 11
13025.0
 21
0.0
 31
0.0
  0
LINE
  5
E4
330
2F
100
AcDbEntity
  8
0
100
AcDbLine
 10
14025.0
 20
15000.0
 30
0.0
 11
14025.0
 21
0.0
 31
0.0
  0
LINE
  5
E5
330
2F
100
AcDbEntity
  8
0
100
AcDbLine
 10
13525.0
 20
14200.676
 30
0.0
 11
13025.0
 21
14200.676
 31
0.0
  0
LINE
  5
E6
330
2F
100
AcDbEntity
  8
0
100
AcDbLine
 10
13525.0
 20
14200.676
 30
0.0
 11
14025.0
 21
14200.676
 31
0.0
  0
LINE
  5
16B
330
2F
100
AcDbEntity
  8
0
100
AcDbLine
 10
525.0
 20
14500.676
 30
0.0
 11
7025.0
 21
14500.676
 31
0.0
  0
LINE
  5
16D
330
2F
100
AcDbEntity
  8
0
100
AcDbLine
 10
1025.0
 20
14200.676
 30
0.0
 11
6525.0
 21
14200.676
 31
0.0
  0
LINE
  5
16E
330
2F
100
AcDbEntity
  8
0
100
AcDbLine
 10
6525.0
 20
13900.676
 30
0.0
 11
5150.0
 21
13900.676
 31
0.0
  0
LINE
  5
16F
330
2F
100
AcDbEntity
  8
0
100
AcDbLine
 10
5150.0
 20
13900.676
 30
0.0
 11
2400.0
 21
13900.676
 31
0.0
  0
LINE
  5
170
330
2F
100
AcDbEntity
  8
0
100
AcDbLine
 10
2400.0
 20
13900.676
 30
0.0
 11
1025.0
 21
13900.676
 31
0.0
  0
LINE
  5
171
330
2F
100
AcDbEntity
  8
0
100
AcDbLine
 10
2212.5
 20
13200.676
 30
0.0
 11
1212.5
 21
13200.676
 31
0.0
  0
LINE
  5
172
330
2F
100
AcDbEntity
  8
0
100
AcDbLine
 10
1212.5
 20
13200.676
 30
0.0
 11
1212.5
 21
11700.676
 31
0.0
  0
LINE
  5
173
330
2F
100
AcDbEntity
  8
0
100
AcDbLine
 10
1212.5
 20
11700.676
 30
0.0
 11
2212.5
 21
11700.676
 31
0.0
  0
LINE
  5
174
330
2F
100
AcDbEntity
  8
0
100
AcDbLine
 10
2212.5
 20
11700.676
 30
0.0
 11
2212.5
 21
13200.676
 31
0.0
  0
LINE
  5
175
330
2F
100
AcDbEntity
  8
0
100
AcDbLine
 10
2400.0
 20
13900.676
 30
0.0
 11
2400.0
 21
1900.6760000000004
 31
0.0
  0
LINE
  5
176
330
2F
100
AcDbEntity
  8
0
100
AcDbLine
 10
4275.0
 20
13200.676
 30
0.0
 11
3275.0
 21
13200.676
 31
0.0
  0
LINE
  5
177
330
2F
100
AcDbEntity
  8
0
100
AcDbLine
 10
3275.0
 20
13200.676
 30
0.0
 11
3275.0
 21
11700.676
 31
0.0
  0
LINE
  5
178
330
2F
100
AcDbEntity
  8
0
100
AcDbLine
 10
3275.0
 20
11700.676
 30
0.0
 11
4275.0
 21
11700.676
 31
0.0
  0
LINE
  5
179
330
2F
100
AcDbEntity
  8
0
100
AcDbLine
 10
4275.0
 20
11700.676
 30
0.0
 11
4275.0
 21
13200.676
 31
0.0
  0
LINE
  5
17A
330
2F
100
AcDbEntity
  8
0
100
AcDbLine
 10
5150.0
 20
13900.676
 30
0.0
 11
5150.0
 21
1900.6760000000004
 31
0.0
  0
LINE
  5
17B
330
2F
100
AcDbEntity
  8
0
100
AcDbLine
 10
6337.5
 20
13200.676
 30
0.0
 11
5337.5
 21
13200.676
 31
0.0
  0
LINE
  5
17C
330
2F
100
AcDbEntity
  8
0
100
AcDbLine
 10
5337.5
 20
13200.676
 30
0.0
 11
5337.5
 21
11700.676
 31
0.0
  0
LINE
  5
17D
330
2F
100
AcDbEntity
  8
0
100
AcDbLine
 10
5337.5
 20
11700.676
 30
0.0
 11
6337.5
 21
11700.676
 31
0.0
  0
LINE
  5
17E
330
2F
100
AcDbEntity
  8
0
100
AcDbLine
 10
6337.5
 20
11700.676
 30
0.0
 11
6337.5
 21
13200.676
 31
0.0
  0
LINE
  5
2E9
330
2F
100
AcDbEntity
  8
0
100
AcDbLine
 10
7025.0
 20
14500.676
 30
0.0
 11
13525.0
 21
14500.676
 31
0.0
  0
LINE
  5
2EB
330
2F
100
AcDbEntity
  8
0
100
AcDbLine
 10
7525.0
 20
14200.676
 30
0.0
 11
13025.0
 21
14200.676
 31
0.0
  0
LINE
  5
2EC
330
2F
100
AcDbEntity
  8
0
100
AcDbLine
 10
13025.0
 20
13900.676
 30
0.0
 11
11650.0
 21
13900.676
 31
0.0
  0
LINE
  5
2ED
330
2F
100
AcDbEntity
  8
0
100
AcDbLine
 10
11650.0
 20
13900.676
 30
0.0
 11
8900.0
 21
13900.676
 31
0.0
  0
LINE
  5
2EE
330
2F
100
AcDbEntity
  8
0
100
AcDbLine
 10
8900.0
 20
13900.676
 30
0.0
 11
7525.0
 21
13900.676
 31
0.0
  0
LINE
  5
2EF
330
2F
100
AcDbEntity
  8
0
100
AcDbLine
 10
8712.5
 20
13200.676
 30
0.0
 11
7712.5
 21
13200.676
 31
0.0
  0
LINE
  5
2F0
330
2F
100
AcDbEntity
  8
0
100
AcDbLine
 10
7712.5
 20
13200.676
 30
0.0
 11
7712.5
 21
11700.676
 31
0.0
  0
LINE
  5
2F1
330
2F
100
AcDbEntity
  8
0
100
AcDbLine
 10
7712.5
 20
11700.676
 30
0.0
 11
8712.5
 21
11700.676
 31
0.0
  0
LINE
  5
2F2
330
2F
100
AcDbEntity
  8
0
100
AcDbLine
 10
8712.5
 20
11700.676
 30
0.0
 11
8712.5
 21
13200.676
 31
0.0
  0
LINE
  5
2F3
330
2F
100
AcDbEntity
  8
0
100
AcDbLine
 10
8900.0
 20
13900.676
 30
0.0
 11
8900.0
 21
1900.6760000000004
 31
0.0
  0
LINE
  5
2F4
330
2F
100
AcDbEntity
  8
0
100
AcDbLine
 10
10775.0
 20
13200.676
 30
0.0
 11
9775.0
 21
13200.676
 31
0.0
  0
LINE
  5
2F5
330
2F
100
AcDbEntity
  8
0
100
AcDbLine
 10
9775.0
 20
13200.676
 30
0.0
 11
9775.0
 21
11700.676
 31
0.0
  0
LINE
  5
2F6
330
2F
100
AcDbEntity
  8
0
100
AcDbLine
 10
9775.0
 20
11700.676
 30
0.0
 11
10775.0
 21
11700.676
 31
0.0
  0
LINE
  5
2F7
330
2F
100
AcDbEntity
  8
0
100
AcDbLine
 10
10775.0
 20
11700.676
 30
0.0
 11
10775.0
 21
13200.676
 31
0.0
  0
LINE
  5
2F8
330
2F
100
AcDbEntity
  8
0
100
AcDbLine
 10
11650.0
 20
13900.676
 30
0.0
 11
11650.0
 21
1900.6760000000004
 31
0.0
  0
LINE
  5
2F9
330
2F
100
AcDbEntity
  8
0
100
AcDbLine
 10
12837.5
 20
13200.676
 30
0.0
 11
11837.5
 21
13200.676
 31
0.0
  0
LINE
  5
2FA
330
2F
100
AcDbEntity
  8
0
100
AcDbLine
 10
11837.5
 20
13200.676
 30
0.0
 11
11837.5
 21
11700.676
 31
0.0
  0
LINE
  5
2FB
330
2F
100
AcDbEntity
  8
0
100
AcDbLine
 10
11837.5
 20
11700.676
 30
0.0
 11
12837.5
 21
11700.676
 31
0.0
  0
LINE
  5
2FC
330
2F
100
AcDbEntity
  8
0
100
AcDbLine
 10
12837.5
 20
11700.676
 30
0.0
 11
12837.5
 21
13200.676
 31
0.0
  0
ENDBLK
  5
31
330
2F
100
AcDbEntity
  8
0
100
AcDbBlockEnd
  0
BLOCK
  5
4D
330
4C
100
AcDbEntity
  8
0
100
AcDbBlockBegin
  2
-span_hatch_pchihadc
 70
0
 10
0.0
 20
0.0
 30
0.0
  3
-span_hatch_pchihadc
  1

  0
CIRCLE
  5
4F
330
4C
100
AcDbEntity
  8
0
100
AcDbCircle
 10
0.0
 20
0.0
 30
0.0
 40
25.0
  0
HATCH
  5
50
330
4C
100
AcDbEntity
  8
0
440
33554687
100
AcDbHatch
 10
0.0
 20
0.0
 30
0.0
210
0.0
220
0.0
230
1.0
  2
SOLID
 70
1
 71
0
 91
1
 92
0
 93
1
 72
2
 10
0.0
 20
0.0
 40
25.0
 50
0.0
 51
360.0
 73
1
 97
0
 75
0
 76
1
 98
0
  0
ENDBLK
  5
4E
330
4C
100
AcDbEntity
  8
0
100
AcDbBlockEnd
  0
BLOCK
  5
52
330
51
100
AcDbEntity
  8
0
100
AcDbBlockBegin
  2
-trai_dim_cgvbquip
 70
0
 10
0.0
 20
0.0
 30
0.0
  3
-trai_dim_cgvbquip
  1

  0
INSERT
  5
54
330
51
100
AcDbEntity
  8
0
100
AcDbBlockReference
 66
1
  2
-trai_dim_attdef
 10
0.0
 20
0.0
 30
0.0
  0
ATTRIB
  5
55
330
54
100
AcDbEntity
  8
0
100
AcDbText
 10
-163.575
 20
30.6703125
 30
0.0
 40
150.0
  1
500
  7
textstyle3
 72
1
 11
0.0
 21
0.0
 31
0.0
100
AcDbAttribute
  2
noidung
 70
0
 74
1
  0
SEQEND
  5
56
330
54
100
AcDbEntity
  8
0
  0
ENDBLK
  5
53
330
51
100
AcDbEntity
  8
0
100
AcDbBlockEnd
  0
BLOCK
  5
58
330
57
100
AcDbEntity
  8
0
100
AcDbBlockBegin
  2
-trai_hatch_duwrfmnt
 70
0
 10
0.0
 20
0.0
 30
0.0
  3
-trai_hatch_duwrfmnt
  1

  0
CIRCLE
  5
5A
330
57
100
AcDbEntity
  8
0
100
AcDbCircle
 10
0.0
 20
0.0
 30
0.0
 40
25.0
  0
HATCH
  5
5B
330
57
100
AcDbEntity
  8
0
440
33554687
100
AcDbHatch
 10
0.0
 20
0.0
 30
0.0
210
0.0
220
0.0
230
1.0
  2
SOLID
 70
1
 71
0
 91
1
 92
0
 93
1
 72
2
 10
0.0
 20
0.0
 40
25.0
 50
0.0
 51
360.0
 73
1
 97
0
 75
0
 76
1
 98
0
  0
ENDBLK
  5
59
330
57
100
AcDbEntity
  8
0
100
AcDbBlockEnd
  0
BLOCK
  5
5D
330
5C
100
AcDbEntity
  8
0
100
AcDbBlockBegin
  2
-phai_dim_kmokakme
 70
0
 10
0.0
 20
0.0
 30
0.0
  3
-phai_dim_kmokakme
  1

  0
INSERT
  5
5F
330
5C
100
AcDbEntity
  8
0
100
AcDbBlockReference
 66
1
  2
-phai_dim_attdef
 10
0.0
 20
0.0
 30
0.0
  0
ATTRIB
  5
60
330
5F
100
AcDbEntity
  8
0
100
AcDbText
 10
-163.575
 20
30.6703125
 30
0.0
 40
150.0
  1
500
  7
textstyle3
 72
1
 11
0.0
 21
0.0
 31
0.0
100
AcDbAttribute
  2
noidung
 70
0
 74
1
  0
SEQEND
  5
61
330
5F
100
AcDbEntity
  8
0
  0
ENDBLK
  5
5E
330
5C
100
AcDbEntity
  8
0
100
AcDbBlockEnd
  0
BLOCK
  5
63
330
62
100
AcDbEntity
  8
0
100
AcDbBlockBegin
  2
-phai_hatch_owgjerhg
 70
0
 10
0.0
 20
0.0
 30
0.0
  3
-phai_hatch_owgjerhg
  1

  0
CIRCLE
  5
65
330
62
100
AcDbEntity
  8
0
100
AcDbCircle
 10
0.0
 20
0.0
 30
0.0
 40
25.0
  0
HATCH
  5
66
330
62
100
AcDbEntity
  8
0
440
33554687
100
AcDbHatch
 10
0.0
 20
0.0
 30
0.0
210
0.0
220
0.0
230
1.0
  2
SOLID
 70
1
 71
0
 91
1
 92
0
 93
1
 72
2
 10
0.0
 20
0.0
 40
25.0
 50
0.0
 51
360.0
 73
1
 97
0
 75
0
 76
1
 98
0
  0
ENDBLK
  5
64
330
62
100
AcDbEntity
  8
0
100
AcDbBlockEnd
  0
BLOCK
  5
68
330
67
100
AcDbEntity
  8
0
100
AcDbBlockBegin
  2
-giua_hatch_ilzftine
 70
0
 10
0.0
 20
0.0
 30
0.0
  3
-giua_hatch_ilzftine
  1

  0
CIRCLE
  5
6A
330
67
100
AcDbEntity
  8
0
100
AcDbCircle
 10
0.0
 20
0.0
 30
0.0
 40
25.0
  0
HATCH
  5
6B
330
67
100
AcDbEntity
  8
0
440
33554687
100
AcDbHatch
 10
0.0
 20
0.0
 30
0.0
210
0.0
220
0.0
230
1.0
  2
SOLID
 70
1
 71
0
 91
1
 92
0
 93
1
 72
2
 10
0.0
 20
0.0
 40
25.0
 50
0.0
 51
360.0
 73
1
 97
0
 75
0
 76
1
 98
0
  0
ENDBLK
  5
69
330
67
100
AcDbEntity
  8
0
100
AcDbBlockEnd
  0
BLOCK
  5
6D
330
6C
100
AcDbEntity
  8
0
100
AcDbBlockBegin
  2
-doori_pqjcgspf
 70
0
 10
0.0
 20
0.0
 30
0.0
  3
-doori_pqjcgspf
  1

  0
INSERT
  5
6F
330
6C
100
AcDbEntity
  8
0
100
AcDbBlockReference
 66
1
  2
-doori_attdef
 10
0.0
 20
0.0
 30
0.0
  0
ATTRIB
  5
70
330
6F
100
AcDbEntity
  8
0
100
AcDbText
 10
-200.25
 20
51.1171875
 30
0.0
 40
250.0
  1
X1
  7
textstyle3
 72
1
 11
0.0
 21
0.0
 31
0.0
100
AcDbAttribute
  2
noidung
 70
0
 74
1
  0
SEQEND
  5
71
330
6F
100
AcDbEntity
  8
0
  0
ENDBLK
  5
6E
330
6C
100
AcDbEntity
  8
0
100
AcDbBlockEnd
  0
BLOCK
  5
73
330
72
100
AcDbEntity
  8
0
100
AcDbBlockBegin
  2
-trai_dim_attdef
 70
2
 10
0.0
 20
0.0
 30
0.0
  3
-trai_dim_attdef
  1

  0
ATTDEF
  5
75
330
72
100
AcDbEntity
  8
0
100
AcDbText
 10
-163.575
 20
30.6703125
 30
0.0
 40
150.0
  1
400
  7
textstyle3
 72
1
 11
0.0
 21
0.0
 31
0.0
100
AcDbAttributeDefinition
  3
dimension
  2
noidung
 70
0
 74
1
  0
ENDBLK
  5
74
330
72
100
AcDbEntity
  8
0
100
AcDbBlockEnd
  0
BLOCK
  5
77
330
76
100
AcDbEntity
  8
0
100
AcDbBlockBegin
  2
-phai_dim_attdef
 70
2
 10
0.0
 20
0.0
 30
0.0
  3
-phai_dim_attdef
  1

  0
ATTDEF
  5
79
330
76
100
AcDbEntity
  8
0
100
AcDbText
 10
-163.575
 20
30.6703125
 30
0.0
 40
150.0
  1
400
  7
textstyle3
 72
1
 11
0.0
 21
0.0
 31
0.0
100
AcDbAttributeDefinition
  3
dimension
  2
noidung
 70
0
 74
1
  0
ENDBLK
  5
78
330
76
100
AcDbEntity
  8
0
100
AcDbBlockEnd
  0
BLOCK
  5
7B
330
7A
100
AcDbEntity
  8
0
100
AcDbBlockBegin
  2
-doori_attdef
 70
2
 10
0.0
 20
0.0
 30
0.0
  3
-doori_attdef
  1

  0
ATTDEF
  5
7D
330
7A
100
AcDbEntity
  8
0
100
AcDbText
 10
-200.25
 20
51.1171875
 30
0.0
 40
250.0
  1
X1
  7
textstyle3
 72
1
 11
0.0
 21
0.0
 31
0.0
100
AcDbAttributeDefinition
  3
doori
  2
noidung
 70
0
 74
1
  0
ENDBLK
  5
7C
330
7A
100
AcDbEntity
  8
0
100
AcDbBlockEnd
  0
BLOCK
  5
9C
330
9B
100
AcDbEntity
  8
0
100
AcDbBlockBegin
  2
-span_hatch_cgawgnyl
 70
0
 10
0.0
 20
0.0
 30
0.0
  3
-span_hatch_cgawgnyl
  1

  0
CIRCLE
  5
9E
330
9B
100
AcDbEntity
  8
0
100
AcDbCircle
 10
0.0
 20
0.0
 30
0.0
 40
25.0
  0
HATCH
  5
9F
330
9B
100
AcDbEntity
  8
0
440
33554687
100
AcDbHatch
 10
0.0
 20
0.0
 30
0.0
210
0.0
220
0.0
230
1.0
  2
SOLID
 70
1
 71
0
 91
1
 92
0
 93
1
 72
2
 10
0.0
 20
0.0
 40
25.0
 50
0.0
 51
360.0
 73
1
 97
0
 75
0
 76
1
 98
0
  0
ENDBLK
  5
9D
330
9B
100
AcDbEntity
  8
0
100
AcDbBlockEnd
  0
BLOCK
  5
A1
330
A0
100
AcDbEntity
  8
0
100
AcDbBlockBegin
  2
-trai_dim_eugmcqxz
 70
0
 10
0.0
 20
0.0
 30
0.0
  3
-trai_dim_eugmcqxz
  1

  0
INSERT
  5
A3
330
A0
100
AcDbEntity
  8
0
100
AcDbBlockReference
 66
1
  2
-trai_dim_attdef0
 10
0.0
 20
0.0
 30
0.0
  0
ATTRIB
  5
A4
330
A3
100
AcDbEntity
  8
0
100
AcDbText
 10
-163.575
 20
30.6703125
 30
0.0
 40
150.0
  1
500
  7
textstyle3
 72
1
 11
0.0
 21
0.0
 31
0.0
100
AcDbAttribute
  2
noidung
 70
0
 74
1
  0
SEQEND
  5
A5
330
A3
100
AcDbEntity
  8
0
  0
ENDBLK
  5
A2
330
A0
100
AcDbEntity
  8
0
100
AcDbBlockEnd
  0
BLOCK
  5
A7
330
A6
100
AcDbEntity
  8
0
100
AcDbBlockBegin
  2
-trai_hatch_kbkewimy
 70
0
 10
0.0
 20
0.0
 30
0.0
  3
-trai_hatch_kbkewimy
  1

  0
CIRCLE
  5
A9
330
A6
100
AcDbEntity
  8
0
100
AcDbCircle
 10
0.0
 20
0.0
 30
0.0
 40
25.0
  0
HATCH
  5
AA
330
A6
100
AcDbEntity
  8
0
440
33554687
100
AcDbHatch
 10
0.0
 20
0.0
 30
0.0
210
0.0
220
0.0
230
1.0
  2
SOLID
 70
1
 71
0
 91
1
 92
0
 93
1
 72
2
 10
0.0
 20
0.0
 40
25.0
 50
0.0
 51
360.0
 73
1
 97
0
 75
0
 76
1
 98
0
  0
ENDBLK
  5
A8
330
A6
100
AcDbEntity
  8
0
100
AcDbBlockEnd
  0
BLOCK
  5
AC
330
AB
100
AcDbEntity
  8
0
100
AcDbBlockBegin
  2
-phai_dim_wlbgaaeb
 70
0
 10
0.0
 20
0.0
 30
0.0
  3
-phai_dim_wlbgaaeb
  1

  0
INSERT
  5
AE
330
AB
100
AcDbEntity
  8
0
100
AcDbBlockReference
 66
1
  2
-phai_dim_attdef0
 10
0.0
 20
0.0
 30
0.0
  0
ATTRIB
  5
AF
330
AE
100
AcDbEntity
  8
0
100
AcDbText
 10
-163.575
 20
30.6703125
 30
0.0
 40
150.0
  1
500
  7
textstyle3
 72
1
 11
0.0
 21
0.0
 31
0.0
100
AcDbAttribute
  2
noidung
 70
0
 74
1
  0
SEQEND
  5
B0
330
AE
100
AcDbEntity
  8
0
  0
ENDBLK
  5
AD
330
AB
100
AcDbEntity
  8
0
100
AcDbBlockEnd
  0
BLOCK
  5
B2
330
B1
100
AcDbEntity
  8
0
100
AcDbBlockBegin
  2
-phai_hatch_cniiaqvu
 70
0
 10
0.0
 20
0.0
 30
0.0
  3
-phai_hatch_cniiaqvu
  1

  0
CIRCLE
  5
B4
330
B1
100
AcDbEntity
  8
0
100
AcDbCircle
 10
0.0
 20
0.0
 30
0.0
 40
25.0
  0
HATCH
  5
B5
330
B1
100
AcDbEntity
  8
0
440
33554687
100
AcDbHatch
 10
0.0
 20
0.0
 30
0.0
210
0.0
220
0.0
230
1.0
  2
SOLID
 70
1
 71
0
 91
1
 92
0
 93
1
 72
2
 10
0.0
 20
0.0
 40
25.0
 50
0.0
 51
360.0
 73
1
 97
0
 75
0
 76
1
 98
0
  0
ENDBLK
  5
B3
330
B1
100
AcDbEntity
  8
0
100
AcDbBlockEnd
  0
BLOCK
  5
B7
330
B6
100
AcDbEntity
  8
0
100
AcDbBlockBegin
  2
-giua_hatch_bnfdlerc
 70
0
 10
0.0
 20
0.0
 30
0.0
  3
-giua_hatch_bnfdlerc
  1

  0
CIRCLE
  5
B9
330
B6
100
AcDbEntity
  8
0
100
AcDbCircle
 10
0.0
 20
0.0
 30
0.0
 40
25.0
  0
HATCH
  5
BA
330
B6
100
AcDbEntity
  8
0
440
33554687
100
AcDbHatch
 10
0.0
 20
0.0
 30
0.0
210
0.0
220
0.0
230
1.0
  2
SOLID
 70
1
 71
0
 91
1
 92
0
 93
1
 72
2
 10
0.0
 20
0.0
 40
25.0
 50
0.0
 51
360.0
 73
1
 97
0
 75
0
 76
1
 98
0
  0
ENDBLK
  5
B8
330
B6
100
AcDbEntity
  8
0
100
AcDbBlockEnd
  0
BLOCK
  5
BC
330
BB
100
AcDbEntity
  8
0
100
AcDbBlockBegin
  2
-doori_qrvltnbh
 70
0
 10
0.0
 20
0.0
 30
0.0
  3
-doori_qrvltnbh
  1

  0
INSERT
  5
BE
330
BB
100
AcDbEntity
  8
0
100
AcDbBlockReference
 66
1
  2
-doori_attdef0
 10
0.0
 20
0.0
 30
0.0
  0
ATTRIB
  5
BF
330
BE
100
AcDbEntity
  8
0
100
AcDbText
 10
-200.25
 20
51.1171875
 30
0.0
 40
250.0
  1
X2
  7
textstyle3
 72
1
 11
0.0
 21
0.0
 31
0.0
100
AcDbAttribute
  2
noidung
 70
0
 74
1
  0
SEQEND
  5
C0
330
BE
100
AcDbEntity
  8
0
  0
ENDBLK
  5
BD
330
BB
100
AcDbEntity
  8
0
100
AcDbBlockEnd
  0
BLOCK
  5
C2
330
C1
100
AcDbEntity
  8
0
100
AcDbBlockBegin
  2
-trai_dim_attdef0
 70
2
 10
0.0
 20
0.0
 30
0.0
  3
-trai_dim_attdef0
  1

  0
ATTDEF
  5
C4
330
C1
100
AcDbEntity
  8
0
100
AcDbText
 10
-163.575
 20
30.6703125
 30
0.0
 40
150.0
  1
400
  7
textstyle3
 72
1
 11
0.0
 21
0.0
 31
0.0
100
AcDbAttributeDefinition
  3
dimension
  2
noidung
 70
0
 74
1
  0
ENDBLK
  5
C3
330
C1
100
AcDbEntity
  8
0
100
AcDbBlockEnd
  0
BLOCK
  5
C6
330
C5
100
AcDbEntity
  8
0
100
AcDbBlockBegin
  2
-phai_dim_attdef0
 70
2
 10
0.0
 20
0.0
 30
0.0
  3
-phai_dim_attdef0
  1

  0
ATTDEF
  5
C8
330
C5
100
AcDbEntity
  8
0
100
AcDbText
 10
-163.575
 20
30.6703125
 30
0.0
 40
150.0
  1
400
  7
textstyle3
 72
1
 11
0.0
 21
0.0
 31
0.0
100
AcDbAttributeDefinition
  3
dimension
  2
noidung
 70
0
 74
1
  0
ENDBLK
  5
C7
330
C5
100
AcDbEntity
  8
0
100
AcDbBlockEnd
  0
BLOCK
  5
CA
330
C9
100
AcDbEntity
  8
0
100
AcDbBlockBegin
  2
-doori_attdef0
 70
2
 10
0.0
 20
0.0
 30
0.0
  3
-doori_attdef0
  1

  0
ATTDEF
  5
CC
330
C9
100
AcDbEntity
  8
0
100
AcDbText
 10
-200.25
 20
51.1171875
 30
0.0
 40
250.0
  1
X1
  7
textstyle3
 72
1
 11
0.0
 21
0.0
 31
0.0
100
AcDbAttributeDefinition
  3
doori
  2
noidung
 70
0
 74
1
  0
ENDBLK
  5
CB
330
C9
100
AcDbEntity
  8
0
100
AcDbBlockEnd
  0
BLOCK
  5
E8
330
E7
100
AcDbEntity
  8
0
100
AcDbBlockBegin
  2
-span_hatch_yeprsqkl
 70
0
 10
0.0
 20
0.0
 30
0.0
  3
-span_hatch_yeprsqkl
  1

  0
CIRCLE
  5
EA
330
E7
100
AcDbEntity
  8
0
100
AcDbCircle
 10
0.0
 20
0.0
 30
0.0
 40
25.0
  0
HATCH
  5
EB
330
E7
100
AcDbEntity
  8
0
440
33554687
100
AcDbHatch
 10
0.0
 20
0.0
 30
0.0
210
0.0
220
0.0
230
1.0
  2
SOLID
 70
1
 71
0
 91
1
 92
0
 93
1
 72
2
 10
0.0
 20
0.0
 40
25.0
 50
0.0
 51
360.0
 73
1
 97
0
 75
0
 76
1
 98
0
  0
ENDBLK
  5
E9
330
E7
100
AcDbEntity
  8
0
100
AcDbBlockEnd
  0
BLOCK
  5
ED
330
EC
100
AcDbEntity
  8
0
100
AcDbBlockBegin
  2
-trai_dim_zbcdaowf
 70
0
 10
0.0
 20
0.0
 30
0.0
  3
-trai_dim_zbcdaowf
  1

  0
INSERT
  5
EF
330
EC
100
AcDbEntity
  8
0
100
AcDbBlockReference
 66
1
  2
-trai_dim_attdef1
 10
0.0
 20
0.0
 30
0.0
  0
ATTRIB
  5
F0
330
EF
100
AcDbEntity
  8
0
100
AcDbText
 10
-163.575
 20
30.6703125
 30
0.0
 40
150.0
  1
500
  7
textstyle3
 72
1
 11
0.0
 21
0.0
 31
0.0
100
AcDbAttribute
  2
noidung
 70
0
 74
1
  0
SEQEND
  5
F1
330
EF
100
AcDbEntity
  8
0
  0
ENDBLK
  5
EE
330
EC
100
AcDbEntity
  8
0
100
AcDbBlockEnd
  0
BLOCK
  5
F3
330
F2
100
AcDbEntity
  8
0
100
AcDbBlockBegin
  2
-trai_hatch_nylhmgfa
 70
0
 10
0.0
 20
0.0
 30
0.0
  3
-trai_hatch_nylhmgfa
  1

  0
CIRCLE
  5
F5
330
F2
100
AcDbEntity
  8
0
100
AcDbCircle
 10
0.0
 20
0.0
 30
0.0
 40
25.0
  0
HATCH
  5
F6
330
F2
100
AcDbEntity
  8
0
440
33554687
100
AcDbHatch
 10
0.0
 20
0.0
 30
0.0
210
0.0
220
0.0
230
1.0
  2
SOLID
 70
1
 71
0
 91
1
 92
0
 93
1
 72
2
 10
0.0
 20
0.0
 40
25.0
 50
0.0
 51
360.0
 73
1
 97
0
 75
0
 76
1
 98
0
  0
ENDBLK
  5
F4
330
F2
100
AcDbEntity
  8
0
100
AcDbBlockEnd
  0
BLOCK
  5
F8
330
F7
100
AcDbEntity
  8
0
100
AcDbBlockBegin
  2
-phai_dim_frbhzejz
 70
0
 10
0.0
 20
0.0
 30
0.0
  3
-phai_dim_frbhzejz
  1

  0
INSERT
  5
FA
330
F7
100
AcDbEntity
  8
0
100
AcDbBlockReference
 66
1
  2
-phai_dim_attdef1
 10
0.0
 20
0.0
 30
0.0
  0
ATTRIB
  5
FB
330
FA
100
AcDbEntity
  8
0
100
AcDbText
 10
-163.575
 20
30.6703125
 30
0.0
 40
150.0
  1
500
  7
textstyle3
 72
1
 11
0.0
 21
0.0
 31
0.0
100
AcDbAttribute
  2
noidung
 70
0
 74
1
  0
SEQEND
  5
FC
330
FA
100
AcDbEntity
  8
0
  0
ENDBLK
  5
F9
330
F7
100
AcDbEntity
  8
0
100
AcDbBlockEnd
  0
BLOCK
  5
FE
330
FD
100
AcDbEntity
  8
0
100
AcDbBlockBegin
  2
-phai_hatch_vifozeyc
 70
0
 10
0.0
 20
0.0
 30
0.0
  3
-phai_hatch_vifozeyc
  1

  0
CIRCLE
  5
100
330
FD
100
AcDbEntity
  8
0
100
AcDbCircle
 10
0.0
 20
0.0
 30
0.0
 40
25.0
  0
HATCH
  5
101
330
FD
100
AcDbEntity
  8
0
440
33554687
100
AcDbHatch
 10
0.0
 20
0.0
 30
0.0
210
0.0
220
0.0
230
1.0
  2
SOLID
 70
1
 71
0
 91
1
 92
0
 93
1
 72
2
 10
0.0
 20
0.0
 40
25.0
 50
0.0
 51
360.0
 73
1
 97
0
 75
0
 76
1
 98
0
  0
ENDBLK
  5
FF
330
FD
100
AcDbEntity
  8
0
100
AcDbBlockEnd
  0
BLOCK
  5
103
330
102
100
AcDbEntity
  8
0
100
AcDbBlockBegin
  2
-giua_hatch_msijynvw
 70
0
 10
0.0
 20
0.0
 30
0.0
  3
-giua_hatch_msijynvw
  1

  0
CIRCLE
  5
105
330
102
100
AcDbEntity
  8
0
100
AcDbCircle
 10
0.0
 20
0.0
 30
0.0
 40
25.0
  0
HATCH
  5
106
330
102
100
AcDbEntity
  8
0
440
33554687
100
AcDbHatch
 10
0.0
 20
0.0
 30
0.0
210
0.0
220
0.0
230
1.0
  2
SOLID
 70
1
 71
0
 91
1
 92
0
 93
1
 72
2
 10
0.0
 20
0.0
 40
25.0
 50
0.0
 51
360.0
 73
1
 97
0
 75
0
 76
1
 98
0
  0
ENDBLK
  5
104
330
102
100
AcDbEntity
  8
0
100
AcDbBlockEnd
  0
BLOCK
  5
108
330
107
100
AcDbEntity
  8
0
100
AcDbBlockBegin
  2
-doori_gpypplvt
 70
0
 10
0.0
 20
0.0
 30
0.0
  3
-doori_gpypplvt
  1

  0
INSERT
  5
10A
330
107
100
AcDbEntity
  8
0
100
AcDbBlockReference
 66
1
  2
-doori_attdef1
 10
0.0
 20
0.0
 30
0.0
  0
ATTRIB
  5
10B
330
10A
100
AcDbEntity
  8
0
100
AcDbText
 10
-200.25
 20
51.1171875
 30
0.0
 40
250.0
  1
X3
  7
textstyle3
 72
1
 11
0.0
 21
0.0
 31
0.0
100
AcDbAttribute
  2
noidung
 70
0
 74
1
  0
SEQEND
  5
10C
330
10A
100
AcDbEntity
  8
0
  0
ENDBLK
  5
109
330
107
100
AcDbEntity
  8
0
100
AcDbBlockEnd
  0
BLOCK
  5
10E
330
10D
100
AcDbEntity
  8
0
100
AcDbBlockBegin
  2
-trai_dim_attdef1
 70
2
 10
0.0
 20
0.0
 30
0.0
  3
-trai_dim_attdef1
  1

  0
ATTDEF
  5
110
330
10D
100
AcDbEntity
  8
0
100
AcDbText
 10
-163.575
 20
30.6703125
 30
0.0
 40
150.0
  1
400
  7
textstyle3
 72
1
 11
0.0
 21
0.0
 31
0.0
100
AcDbAttributeDefinition
  3
dimension
  2
noidung
 70
0
 74
1
  0
ENDBLK
  5
10F
330
10D
100
AcDbEntity
  8
0
100
AcDbBlockEnd
  0
BLOCK
  5
112
330
111
100
AcDbEntity
  8
0
100
AcDbBlockBegin
  2
-phai_dim_attdef1
 70
2
 10
0.0
 20
0.0
 30
0.0
  3
-phai_dim_attdef1
  1

  0
ATTDEF
  5
114
330
111
100
AcDbEntity
  8
0
100
AcDbText
 10
-163.575
 20
30.6703125
 30
0.0
 40
150.0
  1
400
  7
textstyle3
 72
1
 11
0.0
 21
0.0
 31
0.0
100
AcDbAttributeDefinition
  3
dimension
  2
noidung
 70
0
 74
1
  0
ENDBLK
  5
113
330
111
100
AcDbEntity
  8
0
100
AcDbBlockEnd
  0
BLOCK
  5
116
330
115
100
AcDbEntity
  8
0
100
AcDbBlockBegin
  2
-doori_attdef1
 70
2
 10
0.0
 20
0.0
 30
0.0
  3
-doori_attdef1
  1

  0
ATTDEF
  5
118
330
115
100
AcDbEntity
  8
0
100
AcDbText
 10
-200.25
 20
51.1171875
 30
0.0
 40
250.0
  1
X1
  7
textstyle3
 72
1
 11
0.0
 21
0.0
 31
0.0
100
AcDbAttributeDefinition
  3
doori
  2
noidung
 70
0
 74
1
  0
ENDBLK
  5
117
330
115
100
AcDbEntity
  8
0
100
AcDbBlockEnd
  0
BLOCK
  5
180
330
17F
100
AcDbEntity
  8
0
100
AcDbBlockBegin
  2
-span_nhip1_top3_xzwsuzja
 70
0
 10
0.0
 20
0.0
 30
0.0
  3
-span_nhip1_top3_xzwsuzja
  1

  0
INSERT
  5
182
330
17F
100
AcDbEntity
  8
0
100
AcDbBlockReference
 66
1
  2
-span_nhip1_top3_attdef
 10
0.0
 20
0.0
 30
0.0
  0
ATTRIB
  5
183
330
182
100
AcDbEntity
  8
0
100
AcDbText
 10
-36.35
 20
-100.0
 30
0.0
 40
100.0
  1
_input['nhip1_top3']
  7
textstyle3
 72
1
 11
0.0
 21
0.0
 31
0.0
100
AcDbAttribute
  2
noidung
 70
0
 74
3
  0
SEQEND
  5
184
330
182
100
AcDbEntity
  8
0
  0
ENDBLK
  5
181
330
17F
100
AcDbEntity
  8
0
100
AcDbBlockEnd
  0
BLOCK
  5
186
330
185
100
AcDbEntity
  8
0
100
AcDbBlockBegin
  2
-span_nhip1_top2_uimkfgse
 70
0
 10
0.0
 20
0.0
 30
0.0
  3
-span_nhip1_top2_uimkfgse
  1

  0
INSERT
  5
188
330
185
100
AcDbEntity
  8
0
100
AcDbBlockReference
 66
1
  2
-span_nhip1_top2_attdef
 10
0.0
 20
0.0
 30
0.0
  0
ATTRIB
  5
189
330
188
100
AcDbEntity
  8
0
100
AcDbText
 10
-36.35
 20
-100.0
 30
0.0
 40
100.0
  1
_input['nhip1_top2']
  7
textstyle3
 72
1
 11
0.0
 21
0.0
 31
0.0
100
AcDbAttribute
  2
noidung
 70
0
 74
3
  0
SEQEND
  5
18A
330
188
100
AcDbEntity
  8
0
  0
ENDBLK
  5
187
330
185
100
AcDbEntity
  8
0
100
AcDbBlockEnd
  0
BLOCK
  5
18C
330
18B
100
AcDbEntity
  8
0
100
AcDbBlockBegin
  2
-span_nhip1_bot1_cbefcphq
 70
0
 10
0.0
 20
0.0
 30
0.0
  3
-span_nhip1_bot1_cbefcphq
  1

  0
INSERT
  5
18E
330
18B
100
AcDbEntity
  8
0
100
AcDbBlockReference
 66
1
  2
-span_nhip1_bot1_attdef
 10
0.0
 20
0.0
 30
0.0
  0
ATTRIB
  5
18F
330
18E
100
AcDbEntity
  8
0
100
AcDbText
 10
-36.35
 20
20.446875
 30
0.0
 40
100.0
  1
_input['nhip1_bot1']
  7
textstyle3
 72
1
 11
0.0
 21
0.0
 31
0.0
100
AcDbAttribute
  2
noidung
 70
0
 74
1
  0
SEQEND
  5
190
330
18E
100
AcDbEntity
  8
0
  0
ENDBLK
  5
18D
330
18B
100
AcDbEntity
  8
0
100
AcDbBlockEnd
  0
BLOCK
  5
192
330
191
100
AcDbEntity
  8
0
100
AcDbBlockBegin
  2
-span_nhip1_bot2_fymjdaqi
 70
0
 10
0.0
 20
0.0
 30
0.0
  3
-span_nhip1_bot2_fymjdaqi
  1

  0
INSERT
  5
194
330
191
100
AcDbEntity
  8
0
100
AcDbBlockReference
 66
1
  2
-span_nhip1_bot2_attdef
 10
0.0
 20
0.0
 30
0.0
  0
ATTRIB
  5
195
330
194
100
AcDbEntity
  8
0
100
AcDbText
 10
-36.35
 20
20.446875
 30
0.0
 40
100.0
  1
_input['nhip1_bot2']
  7
textstyle3
 72
1
 11
0.0
 21
0.0
 31
0.0
100
AcDbAttribute
  2
noidung
 70
0
 74
1
  0
SEQEND
  5
196
330
194
100
AcDbEntity
  8
0
  0
ENDBLK
  5
193
330
191
100
AcDbEntity
  8
0
100
AcDbBlockEnd
  0
BLOCK
  5
198
330
197
100
AcDbEntity
  8
0
100
AcDbBlockBegin
  2
-span_nhip1_bot3_otiigeam
 70
0
 10
0.0
 20
0.0
 30
0.0
  3
-span_nhip1_bot3_otiigeam
  1

  0
INSERT
  5
19A
330
197
100
AcDbEntity
  8
0
100
AcDbBlockReference
 66
1
  2
-span_nhip1_bot3_attdef
 10
0.0
 20
0.0
 30
0.0
  0
ATTRIB
  5
19B
330
19A
100
AcDbEntity
  8
0
100
AcDbText
 10
-36.35
 20
20.446875
 30
0.0
 40
100.0
  1
_input['nhip1_bot3']
  7
textstyle3
 72
1
 11
0.0
 21
0.0
 31
0.0
100
AcDbAttribute
  2
noidung
 70
0
 74
1
  0
SEQEND
  5
19C
330
19A
100
AcDbEntity
  8
0
  0
ENDBLK
  5
199
330
197
100
AcDbEntity
  8
0
100
AcDbBlockEnd
  0
BLOCK
  5
19E
330
19D
100
AcDbEntity
  8
0
100
AcDbBlockBegin
  2
-span_nhip1_top1_hnqvsgoe
 70
0
 10
0.0
 20
0.0
 30
0.0
  3
-span_nhip1_top1_hnqvsgoe
  1

  0
INSERT
  5
1A0
330
19D
100
AcDbEntity
  8
0
100
AcDbBlockReference
 66
1
  2
-span_nhip1_top1_attdef
 10
0.0
 20
0.0
 30
0.0
  0
ATTRIB
  5
1A1
330
1A0
100
AcDbEntity
  8
0
100
AcDbText
 10
-36.35
 20
-100.0
 30
0.0
 40
100.0
  1
_input['nhip1_top1']
  7
textstyle3
 72
1
 11
0.0
 21
0.0
 31
0.0
100
AcDbAttribute
  2
noidung
 70
0
 74
3
  0
SEQEND
  5
1A2
330
1A0
100
AcDbEntity
  8
0
  0
ENDBLK
  5
19F
330
19D
100
AcDbEntity
  8
0
100
AcDbBlockEnd
  0
BLOCK
  5
1A4
330
1A3
100
AcDbEntity
  8
0
100
AcDbBlockBegin
  2
-span_nhip1_dim_mypsncex
 70
0
 10
0.0
 20
0.0
 30
0.0
  3
-span_nhip1_dim_mypsncex
  1

  0
INSERT
  5
1A6
330
1A3
100
AcDbEntity
  8
0
100
AcDbBlockReference
 66
1
  2
-span_nhip1_dim_attdef
 10
0.0
 20
0.0
 30
0.0
  0
ATTRIB
  5
1A7
330
1A6
100
AcDbEntity
  8
0
100
AcDbText
 10
-218.1
 20
30.6703125
 30
0.0
 40
150.0
  1
1375
  7
textstyle3
 72
1
 11
0.0
 21
0.0
 31
0.0
100
AcDbAttribute
  2
noidung
 70
0
 74
1
  0
SEQEND
  5
1A8
330
1A6
100
AcDbEntity
  8
0
  0
ENDBLK
  5
1A5
330
1A3
100
AcDbEntity
  8
0
100
AcDbBlockEnd
  0
BLOCK
  5
1AA
330
1A9
100
AcDbEntity
  8
0
100
AcDbBlockBegin
  2
-span_nhip1_hatch1_rovqzqdu
 70
0
 10
0.0
 20
0.0
 30
0.0
  3
-span_nhip1_hatch1_rovqzqdu
  1

  0
CIRCLE
  5
1AC
330
1A9
100
AcDbEntity
  8
0
100
AcDbCircle
 10
0.0
 20
0.0
 30
0.0
 40
25.0
  0
HATCH
  5
1AD
330
1A9
100
AcDbEntity
  8
0
440
33554687
100
AcDbHatch
 10
0.0
 20
0.0
 30
0.0
210
0.0
220
0.0
230
1.0
  2
SOLID
 70
1
 71
0
 91
1
 92
0
 93
1
 72
2
 10
0.0
 20
0.0
 40
25.0
 50
0.0
 51
360.0
 73
1
 97
0
 75
0
 76
1
 98
0
  0
ENDBLK
  5
1AB
330
1A9
100
AcDbEntity
  8
0
100
AcDbBlockEnd
  0
BLOCK
  5
1AF
330
1AE
100
AcDbEntity
  8
0
100
AcDbBlockBegin
  2
-span_dim_fyfowiqy
 70
0
 10
0.0
 20
0.0
 30
0.0
  3
-span_dim_fyfowiqy
  1

  0
INSERT
  5
1B1
330
1AE
100
AcDbEntity
  8
0
100
AcDbBlockReference
 66
1
  2
-span_dim_attdef
 10
0.0
 20
0.0
 30
0.0
  0
ATTRIB
  5
1B2
330
1B1
100
AcDbEntity
  8
0
100
AcDbText
 10
-218.1
 20
30.6703125
 30
0.0
 40
150.0
  1
6500
  7
textstyle3
 72
1
 11
0.0
 21
0.0
 31
0.0
100
AcDbAttribute
  2
noidung
 70
0
 74
1
  0
SEQEND
  5
1B3
330
1B1
100
AcDbEntity
  8
0
  0
ENDBLK
  5
1B0
330
1AE
100
AcDbEntity
  8
0
100
AcDbBlockEnd
  0
BLOCK
  5
1B5
330
1B4
100
AcDbEntity
  8
0
100
AcDbBlockBegin
  2
-span_tong_crymqwni
 70
0
 10
0.0
 20
0.0
 30
0.0
  3
-span_tong_crymqwni
  1

  0
INSERT
  5
1B7
330
1B4
100
AcDbEntity
  8
0
100
AcDbBlockReference
 66
1
  2
-span_tong_attdef
 10
0.0
 20
0.0
 30
0.0
  0
ATTRIB
  5
1B8
330
1B7
100
AcDbEntity
  8
0
100
AcDbText
 10
-218.1
 20
30.6703125
 30
0.0
 40
150.0
  1
5500
  7
textstyle3
 72
1
 11
0.0
 21
0.0
 31
0.0
100
AcDbAttribute
  2
noidung
 70
0
 74
1
  0
SEQEND
  5
1B9
330
1B7
100
AcDbEntity
  8
0
  0
ENDBLK
  5
1B6
330
1B4
100
AcDbEntity
  8
0
100
AcDbBlockEnd
  0
BLOCK
  5
1BB
330
1BA
100
AcDbEntity
  8
0
100
AcDbBlockBegin
  2
-span_nhip2_top3_fazpxidm
 70
0
 10
0.0
 20
0.0
 30
0.0
  3
-span_nhip2_top3_fazpxidm
  1

  0
INSERT
  5
1BD
330
1BA
100
AcDbEntity
  8
0
100
AcDbBlockReference
 66
1
  2
-span_nhip2_top3_attdef
 10
0.0
 20
0.0
 30
0.0
  0
ATTRIB
  5
1BE
330
1BD
100
AcDbEntity
  8
0
100
AcDbText
 10
-36.35
 20
-100.0
 30
0.0
 40
100.0
  1
_input['nhip2_top3']
  7
textstyle3
 72
1
 11
0.0
 21
0.0
 31
0.0
100
AcDbAttribute
  2
noidung
 70
0
 74
3
  0
SEQEND
  5
1BF
330
1BD
100
AcDbEntity
  8
0
  0
ENDBLK
  5
1BC
330
1BA
100
AcDbEntity
  8
0
100
AcDbBlockEnd
  0
BLOCK
  5
1C1
330
1C0
100
AcDbEntity
  8
0
100
AcDbBlockBegin
  2
-span_nhip2_top2_qwjhtvce
 70
0
 10
0.0
 20
0.0
 30
0.0
  3
-span_nhip2_top2_qwjhtvce
  1

  0
INSERT
  5
1C3
330
1C0
100
AcDbEntity
  8
0
100
AcDbBlockReference
 66
1
  2
-span_nhip2_top2_attdef
 10
0.0
 20
0.0
 30
0.0
  0
ATTRIB
  5
1C4
330
1C3
100
AcDbEntity
  8
0
100
AcDbText
 10
-36.35
 20
-100.0
 30
0.0
 40
100.0
  1
_input['nhip2_top2']
  7
textstyle3
 72
1
 11
0.0
 21
0.0
 31
0.0
100
AcDbAttribute
  2
noidung
 70
0
 74
3
  0
SEQEND
  5
1C5
330
1C3
100
AcDbEntity
  8
0
  0
ENDBLK
  5
1C2
330
1C0
100
AcDbEntity
  8
0
100
AcDbBlockEnd
  0
BLOCK
  5
1C7
330
1C6
100
AcDbEntity
  8
0
100
AcDbBlockBegin
  2
-span_nhip2_bot1_qvodbpjd
 70
0
 10
0.0
 20
0.0
 30
0.0
  3
-span_nhip2_bot1_qvodbpjd
  1

  0
INSERT
  5
1C9
330
1C6
100
AcDbEntity
  8
0
100
AcDbBlockReference
 66
1
  2
-span_nhip2_bot1_attdef
 10
0.0
 20
0.0
 30
0.0
  0
ATTRIB
  5
1CA
330
1C9
100
AcDbEntity
  8
0
100
AcDbText
 10
-36.35
 20
20.446875
 30
0.0
 40
100.0
  1
_input['nhip2_bot1']
  7
textstyle3
 72
1
 11
0.0
 21
0.0
 31
0.0
100
AcDbAttribute
  2
noidung
 70
0
 74
1
  0
SEQEND
  5
1CB
330
1C9
100
AcDbEntity
  8
0
  0
ENDBLK
  5
1C8
330
1C6
100
AcDbEntity
  8
0
100
AcDbBlockEnd
  0
BLOCK
  5
1CD
330
1CC
100
AcDbEntity
  8
0
100
AcDbBlockBegin
  2
-span_nhip2_bot2_qxdcdvyl
 70
0
 10
0.0
 20
0.0
 30
0.0
  3
-span_nhip2_bot2_qxdcdvyl
  1

  0
INSERT
  5
1CF
330
1CC
100
AcDbEntity
  8
0
100
AcDbBlockReference
 66
1
  2
-span_nhip2_bot2_attdef
 10
0.0
 20
0.0
 30
0.0
  0
ATTRIB
  5
1D0
330
1CF
100
AcDbEntity
  8
0
100
AcDbText
 10
-36.35
 20
20.446875
 30
0.0
 40
100.0
  1
_input['nhip2_bot2']
  7
textstyle3
 72
1
 11
0.0
 21
0.0
 31
0.0
100
AcDbAttribute
  2
noidung
 70
0
 74
1
  0
SEQEND
  5
1D1
330
1CF
100
AcDbEntity
  8
0
  0
ENDBLK
  5
1CE
330
1CC
100
AcDbEntity
  8
0
100
AcDbBlockEnd
  0
BLOCK
  5
1D3
330
1D2
100
AcDbEntity
  8
0
100
AcDbBlockBegin
  2
-span_nhip2_bot3_atsamvqm
 70
0
 10
0.0
 20
0.0
 30
0.0
  3
-span_nhip2_bot3_atsamvqm
  1

  0
INSERT
  5
1D5
330
1D2
100
AcDbEntity
  8
0
100
AcDbBlockReference
 66
1
  2
-span_nhip2_bot3_attdef
 10
0.0
 20
0.0
 30
0.0
  0
ATTRIB
  5
1D6
330
1D5
100
AcDbEntity
  8
0
100
AcDbText
 10
-36.35
 20
20.446875
 30
0.0
 40
100.0
  1
_input['nhip2_bot3']
  7
textstyle3
 72
1
 11
0.0
 21
0.0
 31
0.0
100
AcDbAttribute
  2
noidung
 70
0
 74
1
  0
SEQEND
  5
1D7
330
1D5
100
AcDbEntity
  8
0
  0
ENDBLK
  5
1D4
330
1D2
100
AcDbEntity
  8
0
100
AcDbBlockEnd
  0
BLOCK
  5
1D9
330
1D8
100
AcDbEntity
  8
0
100
AcDbBlockBegin
  2
-span_WxH_sptmpukl
 70
0
 10
0.0
 20
0.0
 30
0.0
  3
-span_WxH_sptmpukl
  1

  0
INSERT
  5
1DB
330
1D8
100
AcDbEntity
  8
0
100
AcDbBlockReference
 66
1
  2
-span_WxH_attdef
 10
0.0
 20
0.0
 30
0.0
  0
ATTRIB
  5
1DC
330
1DB
100
AcDbEntity
  8
0
100
AcDbText
 10
-377.3999999999999
 20
-250.0
 30
0.0
 40
150.0
  1
_input['WxH']
  7
textstyle3
 72
1
 11
-1.84e-14
 21
-100.0
 31
0.0
100
AcDbAttribute
  2
noidung
 70
0
 74
3
  0
SEQEND
  5
1DD
330
1DB
100
AcDbEntity
  8
0
  0
ENDBLK
  5
1DA
330
1D8
100
AcDbEntity
  8
0
100
AcDbBlockEnd
  0
BLOCK
  5
1DF
330
1DE
100
AcDbEntity
  8
0
100
AcDbBlockBegin
  2
-span_nhip2_top1_gpysajyh
 70
0
 10
0.0
 20
0.0
 30
0.0
  3
-span_nhip2_top1_gpysajyh
  1

  0
INSERT
  5
1E1
330
1DE
100
AcDbEntity
  8
0
100
AcDbBlockReference
 66
1
  2
-span_nhip2_top1_attdef
 10
0.0
 20
0.0
 30
0.0
  0
ATTRIB
  5
1E2
330
1E1
100
AcDbEntity
  8
0
100
AcDbText
 10
-36.35
 20
-100.0
 30
0.0
 40
100.0
  1
_input['nhip2_top1']
  7
textstyle3
 72
1
 11
0.0
 21
0.0
 31
0.0
100
AcDbAttribute
  2
noidung
 70
0
 74
3
  0
SEQEND
  5
1E3
330
1E1
100
AcDbEntity
  8
0
  0
ENDBLK
  5
1E0
330
1DE
100
AcDbEntity
  8
0
100
AcDbBlockEnd
  0
BLOCK
  5
1E5
330
1E4
100
AcDbEntity
  8
0
100
AcDbBlockBegin
  2
-span_nhip2_dim_tusklgxn
 70
0
 10
0.0
 20
0.0
 30
0.0
  3
-span_nhip2_dim_tusklgxn
  1

  0
INSERT
  5
1E7
330
1E4
100
AcDbEntity
  8
0
100
AcDbBlockReference
 66
1
  2
-span_nhip2_dim_attdef
 10
0.0
 20
0.0
 30
0.0
  0
ATTRIB
  5
1E8
330
1E7
100
AcDbEntity
  8
0
100
AcDbText
 10
-218.1
 20
30.6703125
 30
0.0
 40
150.0
  1
2750
  7
textstyle3
 72
1
 11
0.0
 21
0.0
 31
0.0
100
AcDbAttribute
  2
noidung
 70
0
 74
1
  0
SEQEND
  5
1E9
330
1E7
100
AcDbEntity
  8
0
  0
ENDBLK
  5
1E6
330
1E4
100
AcDbEntity
  8
0
100
AcDbBlockEnd
  0
BLOCK
  5
1EB
330
1EA
100
AcDbEntity
  8
0
100
AcDbBlockBegin
  2
-span_hari_pczjzkpg
 70
0
 10
0.0
 20
0.0
 30
0.0
  3
-span_hari_pczjzkpg
  1

  0
INSERT
  5
1ED
330
1EA
100
AcDbEntity
  8
0
100
AcDbBlockReference
 66
1
  2
-span_hari_attdef
 10
0.0
 20
0.0
 30
0.0
  0
ATTRIB
  5
1EE
330
1ED
100
AcDbEntity
  8
0
100
AcDbText
 10
-214.375
 20
-350.0
 30
0.0
 40
250.0
  1
_input['hari']
  7
textstyle3
 72
1
 11
-1.84e-14
 21
-100.0
 31
0.0
100
AcDbAttribute
  2
noidung
 70
0
 74
3
  0
SEQEND
  5
1EF
330
1ED
100
AcDbEntity
  8
0
  0
ENDBLK
  5
1EC
330
1EA
100
AcDbEntity
  8
0
100
AcDbBlockEnd
  0
BLOCK
  5
1F1
330
1F0
100
AcDbEntity
  8
0
100
AcDbBlockBegin
  2
-span_dansa_tntgvofn
 70
0
 10
0.0
 20
0.0
 30
0.0
  3
-span_dansa_tntgvofn
  1

  0
INSERT
  5
1F3
330
1F0
100
AcDbEntity
  8
0
100
AcDbBlockReference
 66
1
  2
-span_dansa_attdef
 10
0.0
 20
0.0
 30
0.0
  0
ATTRIB
  5
1F4
330
1F3
100
AcDbEntity
  8
0
100
AcDbText
 10
-306.7
 20
-650.0
 30
0.0
 40
200.0
  1
_input['dansa']
  7
textstyle3
 72
1
 11
-8.27e-14
 21
-450.0
 31
0.0
100
AcDbAttribute
  2
noidung
 70
0
 74
3
  0
SEQEND
  5
1F5
330
1F3
100
AcDbEntity
  8
0
  0
ENDBLK
  5
1F2
330
1F0
100
AcDbEntity
  8
0
100
AcDbBlockEnd
  0
BLOCK
  5
1F7
330
1F6
100
AcDbEntity
  8
0
100
AcDbBlockBegin
  2
-span_nhip2_hatch1_sczwiafp
 70
0
 10
0.0
 20
0.0
 30
0.0
  3
-span_nhip2_hatch1_sczwiafp
  1

  0
CIRCLE
  5
1F9
330
1F6
100
AcDbEntity
  8
0
100
AcDbCircle
 10
0.0
 20
0.0
 30
0.0
 40
25.0
  0
HATCH
  5
1FA
330
1F6
100
AcDbEntity
  8
0
440
33554687
100
AcDbHatch
 10
0.0
 20
0.0
 30
0.0
210
0.0
220
0.0
230
1.0
  2
SOLID
 70
1
 71
0
 91
1
 92
0
 93
1
 72
2
 10
0.0
 20
0.0
 40
25.0
 50
0.0
 51
360.0
 73
1
 97
0
 75
0
 76
1
 98
0
  0
ENDBLK
  5
1F8
330
1F6
100
AcDbEntity
  8
0
100
AcDbBlockEnd
  0
BLOCK
  5
1FC
330
1FB
100
AcDbEntity
  8
0
100
AcDbBlockBegin
  2
-span_nhip3_hatch1_ivadzcyb
 70
0
 10
0.0
 20
0.0
 30
0.0
  3
-span_nhip3_hatch1_ivadzcyb
  1

  0
CIRCLE
  5
1FE
330
1FB
100
AcDbEntity
  8
0
100
AcDbCircle
 10
0.0
 20
0.0
 30
0.0
 40
25.0
  0
HATCH
  5
1FF
330
1FB
100
AcDbEntity
  8
0
440
33554687
100
AcDbHatch
 10
0.0
 20
0.0
 30
0.0
210
0.0
220
0.0
230
1.0
  2
SOLID
 70
1
 71
0
 91
1
 92
0
 93
1
 72
2
 10
0.0
 20
0.0
 40
25.0
 50
0.0
 51
360.0
 73
1
 97
0
 75
0
 76
1
 98
0
  0
ENDBLK
  5
1FD
330
1FB
100
AcDbEntity
  8
0
100
AcDbBlockEnd
  0
BLOCK
  5
201
330
200
100
AcDbEntity
  8
0
100
AcDbBlockBegin
  2
-span_nhip3_top3_qvdyrrcc
 70
0
 10
0.0
 20
0.0
 30
0.0
  3
-span_nhip3_top3_qvdyrrcc
  1

  0
INSERT
  5
203
330
200
100
AcDbEntity
  8
0
100
AcDbBlockReference
 66
1
  2
-span_nhip3_top3_attdef
 10
0.0
 20
0.0
 30
0.0
  0
ATTRIB
  5
204
330
203
100
AcDbEntity
  8
0
100
AcDbText
 10
-36.35
 20
-100.0
 30
0.0
 40
100.0
  1
_input['nhip3_top3']
  7
textstyle3
 72
1
 11
0.0
 21
0.0
 31
0.0
100
AcDbAttribute
  2
noidung
 70
0
 74
3
  0
SEQEND
  5
205
330
203
100
AcDbEntity
  8
0
  0
ENDBLK
  5
202
330
200
100
AcDbEntity
  8
0
100
AcDbBlockEnd
  0
BLOCK
  5
207
330
206
100
AcDbEntity
  8
0
100
AcDbBlockBegin
  2
-span_nhip3_top2_zqjwltgi
 70
0
 10
0.0
 20
0.0
 30
0.0
  3
-span_nhip3_top2_zqjwltgi
  1

  0
INSERT
  5
209
330
206
100
AcDbEntity
  8
0
100
AcDbBlockReference
 66
1
  2
-span_nhip3_top2_attdef
 10
0.0
 20
0.0
 30
0.0
  0
ATTRIB
  5
20A
330
209
100
AcDbEntity
  8
0
100
AcDbText
 10
-36.35
 20
-100.0
 30
0.0
 40
100.0
  1
_input['nhip3_top2']
  7
textstyle3
 72
1
 11
0.0
 21
0.0
 31
0.0
100
AcDbAttribute
  2
noidung
 70
0
 74
3
  0
SEQEND
  5
20B
330
209
100
AcDbEntity
  8
0
  0
ENDBLK
  5
208
330
206
100
AcDbEntity
  8
0
100
AcDbBlockEnd
  0
BLOCK
  5
20D
330
20C
100
AcDbEntity
  8
0
100
AcDbBlockBegin
  2
-span_nhip3_bot1_yxyvgdvv
 70
0
 10
0.0
 20
0.0
 30
0.0
  3
-span_nhip3_bot1_yxyvgdvv
  1

  0
INSERT
  5
20F
330
20C
100
AcDbEntity
  8
0
100
AcDbBlockReference
 66
1
  2
-span_nhip3_bot1_attdef
 10
0.0
 20
0.0
 30
0.0
  0
ATTRIB
  5
210
330
20F
100
AcDbEntity
  8
0
100
AcDbText
 10
-36.35
 20
20.446875
 30
0.0
 40
100.0
  1
_input['nhip3_bot1']
  7
textstyle3
 72
1
 11
0.0
 21
0.0
 31
0.0
100
AcDbAttribute
  2
noidung
 70
0
 74
1
  0
SEQEND
  5
211
330
20F
100
AcDbEntity
  8
0
  0
ENDBLK
  5
20E
330
20C
100
AcDbEntity
  8
0
100
AcDbBlockEnd
  0
BLOCK
  5
213
330
212
100
AcDbEntity
  8
0
100
AcDbBlockBegin
  2
-span_nhip3_bot2_onwqzcql
 70
0
 10
0.0
 20
0.0
 30
0.0
  3
-span_nhip3_bot2_onwqzcql
  1

  0
INSERT
  5
215
330
212
100
AcDbEntity
  8
0
100
AcDbBlockReference
 66
1
  2
-span_nhip3_bot2_attdef
 10
0.0
 20
0.0
 30
0.0
  0
ATTRIB
  5
216
330
215
100
AcDbEntity
  8
0
100
AcDbText
 10
-36.35
 20
20.446875
 30
0.0
 40
100.0
  1
_input['nhip3_bot2']
  7
textstyle3
 72
1
 11
0.0
 21
0.0
 31
0.0
100
AcDbAttribute
  2
noidung
 70
0
 74
1
  0
SEQEND
  5
217
330
215
100
AcDbEntity
  8
0
  0
ENDBLK
  5
214
330
212
100
AcDbEntity
  8
0
100
AcDbBlockEnd
  0
BLOCK
  5
219
330
218
100
AcDbEntity
  8
0
100
AcDbBlockBegin
  2
-span_nhip3_bot3_pdybvgls
 70
0
 10
0.0
 20
0.0
 30
0.0
  3
-span_nhip3_bot3_pdybvgls
  1

  0
INSERT
  5
21B
330
218
100
AcDbEntity
  8
0
100
AcDbBlockReference
 66
1
  2
-span_nhip3_bot3_attdef
 10
0.0
 20
0.0
 30
0.0
  0
ATTRIB
  5
21C
330
21B
100
AcDbEntity
  8
0
100
AcDbText
 10
-36.35
 20
20.446875
 30
0.0
 40
100.0
  1
_input['nhip3_bot3']
  7
textstyle3
 72
1
 11
0.0
 21
0.0
 31
0.0
100
AcDbAttribute
  2
noidung
 70
0
 74
1
  0
SEQEND
  5
21D
330
21B
100
AcDbEntity
  8
0
  0
ENDBLK
  5
21A
330
218
100
AcDbEntity
  8
0
100
AcDbBlockEnd
  0
BLOCK
  5
21F
330
21E
100
AcDbEntity
  8
0
100
AcDbBlockBegin
  2
-span_nhip3_top1_zucrxsha
 70
0
 10
0.0
 20
0.0
 30
0.0
  3
-span_nhip3_top1_zucrxsha
  1

  0
INSERT
  5
221
330
21E
100
AcDbEntity
  8
0
100
AcDbBlockReference
 66
1
  2
-span_nhip3_top1_attdef
 10
0.0
 20
0.0
 30
0.0
  0
ATTRIB
  5
222
330
221
100
AcDbEntity
  8
0
100
AcDbText
 10
-36.35
 20
-100.0
 30
0.0
 40
100.0
  1
_input['nhip3_top1']
  7
textstyle3
 72
1
 11
0.0
 21
0.0
 31
0.0
100
AcDbAttribute
  2
noidung
 70
0
 74
3
  0
SEQEND
  5
223
330
221
100
AcDbEntity
  8
0
  0
ENDBLK
  5
220
330
21E
100
AcDbEntity
  8
0
100
AcDbBlockEnd
  0
BLOCK
  5
225
330
224
100
AcDbEntity
  8
0
100
AcDbBlockBegin
  2
-span_nhip3_dim_nvuysuly
 70
0
 10
0.0
 20
0.0
 30
0.0
  3
-span_nhip3_dim_nvuysuly
  1

  0
INSERT
  5
227
330
224
100
AcDbEntity
  8
0
100
AcDbBlockReference
 66
1
  2
-span_nhip3_dim_attdef
 10
0.0
 20
0.0
 30
0.0
  0
ATTRIB
  5
228
330
227
100
AcDbEntity
  8
0
100
AcDbText
 10
-218.1
 20
30.6703125
 30
0.0
 40
150.0
  1
1375
  7
textstyle3
 72
1
 11
0.0
 21
0.0
 31
0.0
100
AcDbAttribute
  2
noidung
 70
0
 74
1
  0
SEQEND
  5
229
330
227
100
AcDbEntity
  8
0
  0
ENDBLK
  5
226
330
224
100
AcDbEntity
  8
0
100
AcDbBlockEnd
  0
BLOCK
  5
22B
330
22A
100
AcDbEntity
  8
0
100
AcDbBlockBegin
  2
-span_nhip3_hatch2_zligsaru
 70
0
 10
0.0
 20
0.0
 30
0.0
  3
-span_nhip3_hatch2_zligsaru
  1

  0
CIRCLE
  5
22D
330
22A
100
AcDbEntity
  8
0
100
AcDbCircle
 10
0.0
 20
0.0
 30
0.0
 40
25.0
  0
HATCH
  5
22E
330
22A
100
AcDbEntity
  8
0
440
33554687
100
AcDbHatch
 10
0.0
 20
0.0
 30
0.0
210
0.0
220
0.0
230
1.0
  2
SOLID
 70
1
 71
0
 91
1
 92
0
 93
1
 72
2
 10
0.0
 20
0.0
 40
25.0
 50
0.0
 51
360.0
 73
1
 97
0
 75
0
 76
1
 98
0
  0
ENDBLK
  5
22C
330
22A
100
AcDbEntity
  8
0
100
AcDbBlockEnd
  0
BLOCK
  5
230
330
22F
100
AcDbEntity
  8
0
100
AcDbBlockBegin
  2
-span_nhip1_top3_attdef
 70
2
 10
0.0
 20
0.0
 30
0.0
  3
-span_nhip1_top3_attdef
  1

  0
ATTDEF
  5
232
330
22F
100
AcDbEntity
  8
0
100
AcDbText
 10
-36.35
 20
-100.0
 30
0.0
 40
100.0
  1
3
  7
textstyle3
 72
1
 11
0.0
 21
0.0
 31
0.0
100
AcDbAttributeDefinition
  3
top3
  2
noidung
 70
0
 74
3
  0
ENDBLK
  5
231
330
22F
100
AcDbEntity
  8
0
100
AcDbBlockEnd
  0
BLOCK
  5
234
330
233
100
AcDbEntity
  8
0
100
AcDbBlockBegin
  2
-span_nhip1_top2_attdef
 70
2
 10
0.0
 20
0.0
 30
0.0
  3
-span_nhip1_top2_attdef
  1

  0
ATTDEF
  5
236
330
233
100
AcDbEntity
  8
0
100
AcDbText
 10
-36.35
 20
-100.0
 30
0.0
 40
100.0
  1
4
  7
textstyle3
 72
1
 11
0.0
 21
0.0
 31
0.0
100
AcDbAttributeDefinition
  3
top2
  2
noidung
 70
0
 74
3
  0
ENDBLK
  5
235
330
233
100
AcDbEntity
  8
0
100
AcDbBlockEnd
  0
BLOCK
  5
238
330
237
100
AcDbEntity
  8
0
100
AcDbBlockBegin
  2
-span_nhip1_bot1_attdef
 70
2
 10
0.0
 20
0.0
 30
0.0
  3
-span_nhip1_bot1_attdef
  1

  0
ATTDEF
  5
23A
330
237
100
AcDbEntity
  8
0
100
AcDbText
 10
-36.35
 20
20.446875
 30
0.0
 40
100.0
  1
3
  7
textstyle3
 72
1
 11
0.0
 21
0.0
 31
0.0
100
AcDbAttributeDefinition
  3
bot1
  2
noidung
 70
0
 74
1
  0
ENDBLK
  5
239
330
237
100
AcDbEntity
  8
0
100
AcDbBlockEnd
  0
BLOCK
  5
23C
330
23B
100
AcDbEntity
  8
0
100
AcDbBlockBegin
  2
-span_nhip1_bot2_attdef
 70
2
 10
0.0
 20
0.0
 30
0.0
  3
-span_nhip1_bot2_attdef
  1

  0
ATTDEF
  5
23E
330
23B
100
AcDbEntity
  8
0
100
AcDbText
 10
-36.35
 20
20.446875
 30
0.0
 40
100.0
  1
4
  7
textstyle3
 72
1
 11
0.0
 21
0.0
 31
0.0
100
AcDbAttributeDefinition
  3
bot2
  2
noidung
 70
0
 74
1
  0
ENDBLK
  5
23D
330
23B
100
AcDbEntity
  8
0
100
AcDbBlockEnd
  0
BLOCK
  5
240
330
23F
100
AcDbEntity
  8
0
100
AcDbBlockBegin
  2
-span_nhip1_bot3_attdef
 70
2
 10
0.0
 20
0.0
 30
0.0
  3
-span_nhip1_bot3_attdef
  1

  0
ATTDEF
  5
242
330
23F
100
AcDbEntity
  8
0
100
AcDbText
 10
-36.35
 20
20.446875
 30
0.0
 40
100.0
  1
5
  7
textstyle3
 72
1
 11
0.0
 21
0.0
 31
0.0
100
AcDbAttributeDefinition
  3
bot3
  2
noidung
 70
0
 74
1
  0
ENDBLK
  5
241
330
23F
100
AcDbEntity
  8
0
100
AcDbBlockEnd
  0
BLOCK
  5
244
330
243
100
AcDbEntity
  8
0
100
AcDbBlockBegin
  2
-span_nhip1_top1_attdef
 70
2
 10
0.0
 20
0.0
 30
0.0
  3
-span_nhip1_top1_attdef
  1

  0
ATTDEF
  5
246
330
243
100
AcDbEntity
  8
0
100
AcDbText
 10
-36.35
 20
-100.0
 30
0.0
 40
100.0
  1
5
  7
textstyle3
 72
1
 11
0.0
 21
0.0
 31
0.0
100
AcDbAttributeDefinition
  3
top1
  2
noidung
 70
0
 74
3
  0
ENDBLK
  5
245
330
243
100
AcDbEntity
  8
0
100
AcDbBlockEnd
  0
BLOCK
  5
248
330
247
100
AcDbEntity
  8
0
100
AcDbBlockBegin
  2
-span_nhip1_dim_attdef
 70
2
 10
0.0
 20
0.0
 30
0.0
  3
-span_nhip1_dim_attdef
  1

  0
ATTDEF
  5
24A
330
247
100
AcDbEntity
  8
0
100
AcDbText
 10
-218.1
 20
30.6703125
 30
0.0
 40
150.0
  1
2100
  7
textstyle3
 72
1
 11
0.0
 21
0.0
 31
0.0
100
AcDbAttributeDefinition
  3
dimension
  2
noidung
 70
0
 74
1
  0
ENDBLK
  5
249
330
247
100
AcDbEntity
  8
0
100
AcDbBlockEnd
  0
BLOCK
  5
24C
330
24B
100
AcDbEntity
  8
0
100
AcDbBlockBegin
  2
-span_dim_attdef
 70
2
 10
0.0
 20
0.0
 30
0.0
  3
-span_dim_attdef
  1

  0
ATTDEF
  5
24E
330
24B
100
AcDbEntity
  8
0
100
AcDbText
 10
-218.1
 20
30.6703125
 30
0.0
 40
150.0
  1
9200
  7
textstyle3
 72
1
 11
0.0
 21
0.0
 31
0.0
100
AcDbAttributeDefinition
  3
dimension
  2
noidung
 70
0
 74
1
  0
ENDBLK
  5
24D
330
24B
100
AcDbEntity
  8
0
100
AcDbBlockEnd
  0
BLOCK
  5
250
330
24F
100
AcDbEntity
  8
0
100
AcDbBlockBegin
  2
-span_tong_attdef
 70
2
 10
0.0
 20
0.0
 30
0.0
  3
-span_tong_attdef
  1

  0
ATTDEF
  5
252
330
24F
100
AcDbEntity
  8
0
100
AcDbText
 10
-218.1
 20
30.6703125
 30
0.0
 40
150.0
  1
8400
  7
textstyle3
 72
1
 11
0.0
 21
0.0
 31
0.0
100
AcDbAttributeDefinition
  3
dimension
  2
noidung
 70
0
 74
1
  0
ENDBLK
  5
251
330
24F
100
AcDbEntity
  8
0
100
AcDbBlockEnd
  0
BLOCK
  5
254
330
253
100
AcDbEntity
  8
0
100
AcDbBlockBegin
  2
-span_nhip2_top3_attdef
 70
2
 10
0.0
 20
0.0
 30
0.0
  3
-span_nhip2_top3_attdef
  1

  0
ATTDEF
  5
256
330
253
100
AcDbEntity
  8
0
100
AcDbText
 10
-36.35
 20
-100.0
 30
0.0
 40
100.0
  1
3
  7
textstyle3
 72
1
 11
0.0
 21
0.0
 31
0.0
100
AcDbAttributeDefinition
  3
top3
  2
noidung
 70
0
 74
3
  0
ENDBLK
  5
255
330
253
100
AcDbEntity
  8
0
100
AcDbBlockEnd
  0
BLOCK
  5
258
330
257
100
AcDbEntity
  8
0
100
AcDbBlockBegin
  2
-span_nhip2_top2_attdef
 70
2
 10
0.0
 20
0.0
 30
0.0
  3
-span_nhip2_top2_attdef
  1

  0
ATTDEF
  5
25A
330
257
100
AcDbEntity
  8
0
100
AcDbText
 10
-36.35
 20
-100.0
 30
0.0
 40
100.0
  1
4
  7
textstyle3
 72
1
 11
0.0
 21
0.0
 31
0.0
100
AcDbAttributeDefinition
  3
top2
  2
noidung
 70
0
 74
3
  0
ENDBLK
  5
259
330
257
100
AcDbEntity
  8
0
100
AcDbBlockEnd
  0
BLOCK
  5
25C
330
25B
100
AcDbEntity
  8
0
100
AcDbBlockBegin
  2
-span_nhip2_bot1_attdef
 70
2
 10
0.0
 20
0.0
 30
0.0
  3
-span_nhip2_bot1_attdef
  1

  0
ATTDEF
  5
25E
330
25B
100
AcDbEntity
  8
0
100
AcDbText
 10
-36.35
 20
20.446875
 30
0.0
 40
100.0
  1
3
  7
textstyle3
 72
1
 11
0.0
 21
0.0
 31
0.0
100
AcDbAttributeDefinition
  3
bot1
  2
noidung
 70
0
 74
1
  0
ENDBLK
  5
25D
330
25B
100
AcDbEntity
  8
0
100
AcDbBlockEnd
  0
BLOCK
  5
260
330
25F
100
AcDbEntity
  8
0
100
AcDbBlockBegin
  2
-span_nhip2_bot2_attdef
 70
2
 10
0.0
 20
0.0
 30
0.0
  3
-span_nhip2_bot2_attdef
  1

  0
ATTDEF
  5
262
330
25F
100
AcDbEntity
  8
0
100
AcDbText
 10
-36.35
 20
20.446875
 30
0.0
 40
100.0
  1
4
  7
textstyle3
 72
1
 11
0.0
 21
0.0
 31
0.0
100
AcDbAttributeDefinition
  3
bot2
  2
noidung
 70
0
 74
1
  0
ENDBLK
  5
261
330
25F
100
AcDbEntity
  8
0
100
AcDbBlockEnd
  0
BLOCK
  5
264
330
263
100
AcDbEntity
  8
0
100
AcDbBlockBegin
  2
-span_nhip2_bot3_attdef
 70
2
 10
0.0
 20
0.0
 30
0.0
  3
-span_nhip2_bot3_attdef
  1

  0
ATTDEF
  5
266
330
263
100
AcDbEntity
  8
0
100
AcDbText
 10
-36.35
 20
20.446875
 30
0.0
 40
100.0
  1
5
  7
textstyle3
 72
1
 11
0.0
 21
0.0
 31
0.0
100
AcDbAttributeDefinition
  3
bot3
  2
noidung
 70
0
 74
1
  0
ENDBLK
  5
265
330
263
100
AcDbEntity
  8
0
100
AcDbBlockEnd
  0
BLOCK
  5
268
330
267
100
AcDbEntity
  8
0
100
AcDbBlockBegin
  2
-span_WxH_attdef
 70
2
 10
0.0
 20
0.0
 30
0.0
  3
-span_WxH_attdef
  1

  0
ATTDEF
  5
26A
330
267
100
AcDbEntity
  8
0
100
AcDbText
 10
-377.3999999999999
 20
-250.0
 30
0.0
 40
150.0
  1
600x900
  7
textstyle3
 72
1
 11
0.0
 21
-100.0
 31
0.0
100
AcDbAttributeDefinition
  3
WxH
  2
noidung
 70
0
 74
3
  0
ENDBLK
  5
269
330
267
100
AcDbEntity
  8
0
100
AcDbBlockEnd
  0
BLOCK
  5
26C
330
26B
100
AcDbEntity
  8
0
100
AcDbBlockBegin
  2
-span_nhip2_top1_attdef
 70
2
 10
0.0
 20
0.0
 30
0.0
  3
-span_nhip2_top1_attdef
  1

  0
ATTDEF
  5
26E
330
26B
100
AcDbEntity
  8
0
100
AcDbText
 10
-36.35
 20
-100.0
 30
0.0
 40
100.0
  1
5
  7
textstyle3
 72
1
 11
0.0
 21
0.0
 31
0.0
100
AcDbAttributeDefinition
  3
top1
  2
noidung
 70
0
 74
3
  0
ENDBLK
  5
26D
330
26B
100
AcDbEntity
  8
0
100
AcDbBlockEnd
  0
BLOCK
  5
270
330
26F
100
AcDbEntity
  8
0
100
AcDbBlockBegin
  2
-span_nhip2_dim_attdef
 70
2
 10
0.0
 20
0.0
 30
0.0
  3
-span_nhip2_dim_attdef
  1

  0
ATTDEF
  5
272
330
26F
100
AcDbEntity
  8
0
100
AcDbText
 10
-218.1
 20
30.6703125
 30
0.0
 40
150.0
  1
4200
  7
textstyle3
 72
1
 11
0.0
 21
0.0
 31
0.0
100
AcDbAttributeDefinition
  3
dimension
  2
noidung
 70
0
 74
1
  0
ENDBLK
  5
271
330
26F
100
AcDbEntity
  8
0
100
AcDbBlockEnd
  0
BLOCK
  5
274
330
273
100
AcDbEntity
  8
0
100
AcDbBlockBegin
  2
-span_hari_attdef
 70
2
 10
0.0
 20
0.0
 30
0.0
  3
-span_hari_attdef
  1

  0
ATTDEF
  5
276
330
273
100
AcDbEntity
  8
0
100
AcDbText
 10
-214.375
 20
-350.0
 30
0.0
 40
250.0
  1
G2
  7
textstyle3
 72
1
 11
0.0
 21
-100.0
 31
0.0
100
AcDbAttributeDefinition
  3
hari
  2
noidung
 70
0
 74
3
  0
ENDBLK
  5
275
330
273
100
AcDbEntity
  8
0
100
AcDbBlockEnd
  0
BLOCK
  5
278
330
277
100
AcDbEntity
  8
0
100
AcDbBlockBegin
  2
-span_dansa_attdef
 70
2
 10
0.0
 20
0.0
 30
0.0
  3
-span_dansa_attdef
  1

  0
ATTDEF
  5
27A
330
277
100
AcDbEntity
  8
0
100
AcDbText
 10
-306.7
 20
-650.0
 30
0.0
 40
200.0
  1
(-35)
  7
textstyle3
 72
1
 11
0.0
 21
-450.0
 31
0.0
100
AcDbAttributeDefinition
  3
dansa
  2
noidung
 70
0
 74
3
  0
ENDBLK
  5
279
330
277
100
AcDbEntity
  8
0
100
AcDbBlockEnd
  0
BLOCK
  5
27C
330
27B
100
AcDbEntity
  8
0
100
AcDbBlockBegin
  2
-span_nhip3_top3_attdef
 70
2
 10
0.0
 20
0.0
 30
0.0
  3
-span_nhip3_top3_attdef
  1

  0
ATTDEF
  5
27E
330
27B
100
AcDbEntity
  8
0
100
AcDbText
 10
-36.35
 20
-100.0
 30
0.0
 40
100.0
  1
3
  7
textstyle3
 72
1
 11
0.0
 21
0.0
 31
0.0
100
AcDbAttributeDefinition
  3
top3
  2
noidung
 70
0
 74
3
  0
ENDBLK
  5
27D
330
27B
100
AcDbEntity
  8
0
100
AcDbBlockEnd
  0
BLOCK
  5
280
330
27F
100
AcDbEntity
  8
0
100
AcDbBlockBegin
  2
-span_nhip3_top2_attdef
 70
2
 10
0.0
 20
0.0
 30
0.0
  3
-span_nhip3_top2_attdef
  1

  0
ATTDEF
  5
282
330
27F
100
AcDbEntity
  8
0
100
AcDbText
 10
-36.35
 20
-100.0
 30
0.0
 40
100.0
  1
4
  7
textstyle3
 72
1
 11
0.0
 21
0.0
 31
0.0
100
AcDbAttributeDefinition
  3
top2
  2
noidung
 70
0
 74
3
  0
ENDBLK
  5
281
330
27F
100
AcDbEntity
  8
0
100
AcDbBlockEnd
  0
BLOCK
  5
284
330
283
100
AcDbEntity
  8
0
100
AcDbBlockBegin
  2
-span_nhip3_bot1_attdef
 70
2
 10
0.0
 20
0.0
 30
0.0
  3
-span_nhip3_bot1_attdef
  1

  0
ATTDEF
  5
286
330
283
100
AcDbEntity
  8
0
100
AcDbText
 10
-36.35
 20
20.446875
 30
0.0
 40
100.0
  1
3
  7
textstyle3
 72
1
 11
0.0
 21
0.0
 31
0.0
100
AcDbAttributeDefinition
  3
bot1
  2
noidung
 70
0
 74
1
  0
ENDBLK
  5
285
330
283
100
AcDbEntity
  8
0
100
AcDbBlockEnd
  0
BLOCK
  5
288
330
287
100
AcDbEntity
  8
0
100
AcDbBlockBegin
  2
-span_nhip3_bot2_attdef
 70
2
 10
0.0
 20
0.0
 30
0.0
  3
-span_nhip3_bot2_attdef
  1

  0
ATTDEF
  5
28A
330
287
100
AcDbEntity
  8
0
100
AcDbText
 10
-36.35
 20
20.446875
 30
0.0
 40
100.0
  1
4
  7
textstyle3
 72
1
 11
0.0
 21
0.0
 31
0.0
100
AcDbAttributeDefinition
  3
bot2
  2
noidung
 70
0
 74
1
  0
ENDBLK
  5
289
330
287
100
AcDbEntity
  8
0
100
AcDbBlockEnd
  0
BLOCK
  5
28C
330
28B
100
AcDbEntity
  8
0
100
AcDbBlockBegin
  2
-span_nhip3_bot3_attdef
 70
2
 10
0.0
 20
0.0
 30
0.0
  3
-span_nhip3_bot3_attdef
  1

  0
ATTDEF
  5
28E
330
28B
100
AcDbEntity
  8
0
100
AcDbText
 10
-36.35
 20
20.446875
 30
0.0
 40
100.0
  1
5
  7
textstyle3
 72
1
 11
0.0
 21
0.0
 31
0.0
100
AcDbAttributeDefinition
  3
bot3
  2
noidung
 70
0
 74
1
  0
ENDBLK
  5
28D
330
28B
100
AcDbEntity
  8
0
100
AcDbBlockEnd
  0
BLOCK
  5
290
330
28F
100
AcDbEntity
  8
0
100
AcDbBlockBegin
  2
-span_nhip3_top1_attdef
 70
2
 10
0.0
 20
0.0
 30
0.0
  3
-span_nhip3_top1_attdef
  1

  0
ATTDEF
  5
292
330
28F
100
AcDbEntity
  8
0
100
AcDbText
 10
-36.35
 20
-100.0
 30
0.0
 40
100.0
  1
5
  7
textstyle3
 72
1
 11
0.0
 21
0.0
 31
0.0
100
AcDbAttributeDefinition
  3
top1
  2
noidung
 70
0
 74
3
  0
ENDBLK
  5
291
330
28F
100
AcDbEntity
  8
0
100
AcDbBlockEnd
  0
BLOCK
  5
294
330
293
100
AcDbEntity
  8
0
100
AcDbBlockBegin
  2
-span_nhip3_dim_attdef
 70
2
 10
0.0
 20
0.0
 30
0.0
  3
-span_nhip3_dim_attdef
  1

  0
ATTDEF
  5
296
330
293
100
AcDbEntity
  8
0
100
AcDbText
 10
-218.1
 20
30.6703125
 30
0.0
 40
150.0
  1
2100
  7
textstyle3
 72
1
 11
0.0
 21
0.0
 31
0.0
100
AcDbAttributeDefinition
  3
dimension
  2
noidung
 70
0
 74
1
  0
ENDBLK
  5
295
330
293
100
AcDbEntity
  8
0
100
AcDbBlockEnd
  0
BLOCK
  5
2FE
330
2FD
100
AcDbEntity
  8
0
100
AcDbBlockBegin
  2
-span_nhip1_top3_inunqmfj
 70
0
 10
0.0
 20
0.0
 30
0.0
  3
-span_nhip1_top3_inunqmfj
  1

  0
INSERT
  5
300
330
2FD
100
AcDbEntity
  8
0
100
AcDbBlockReference
 66
1
  2
-span_nhip1_top3_attdef0
 10
0.0
 20
0.0
 30
0.0
  0
ATTRIB
  5
301
330
300
100
AcDbEntity
  8
0
100
AcDbText
 10
-36.35
 20
-100.0
 30
0.0
 40
100.0
  1
_input['nhip1_top3']
  7
textstyle3
 72
1
 11
0.0
 21
0.0
 31
0.0
100
AcDbAttribute
  2
noidung
 70
0
 74
3
  0
SEQEND
  5
302
330
300
100
AcDbEntity
  8
0
  0
ENDBLK
  5
2FF
330
2FD
100
AcDbEntity
  8
0
100
AcDbBlockEnd
  0
BLOCK
  5
304
330
303
100
AcDbEntity
  8
0
100
AcDbBlockBegin
  2
-span_nhip1_top2_adiublwr
 70
0
 10
0.0
 20
0.0
 30
0.0
  3
-span_nhip1_top2_adiublwr
  1

  0
INSERT
  5
306
330
303
100
AcDbEntity
  8
0
100
AcDbBlockReference
 66
1
  2
-span_nhip1_top2_attdef0
 10
0.0
 20
0.0
 30
0.0
  0
ATTRIB
  5
307
330
306
100
AcDbEntity
  8
0
100
AcDbText
 10
-36.35
 20
-100.0
 30
0.0
 40
100.0
  1
_input['nhip1_top2']
  7
textstyle3
 72
1
 11
0.0
 21
0.0
 31
0.0
100
AcDbAttribute
  2
noidung
 70
0
 74
3
  0
SEQEND
  5
308
330
306
100
AcDbEntity
  8
0
  0
ENDBLK
  5
305
330
303
100
AcDbEntity
  8
0
100
AcDbBlockEnd
  0
BLOCK
  5
30A
330
309
100
AcDbEntity
  8
0
100
AcDbBlockBegin
  2
-span_nhip1_bot1_armkluco
 70
0
 10
0.0
 20
0.0
 30
0.0
  3
-span_nhip1_bot1_armkluco
  1

  0
INSERT
  5
30C
330
309
100
AcDbEntity
  8
0
100
AcDbBlockReference
 66
1
  2
-span_nhip1_bot1_attdef0
 10
0.0
 20
0.0
 30
0.0
  0
ATTRIB
  5
30D
330
30C
100
AcDbEntity
  8
0
100
AcDbText
 10
-36.35
 20
20.446875
 30
0.0
 40
100.0
  1
_input['nhip1_bot1']
  7
textstyle3
 72
1
 11
0.0
 21
0.0
 31
0.0
100
AcDbAttribute
  2
noidung
 70
0
 74
1
  0
SEQEND
  5
30E
330
30C
100
AcDbEntity
  8
0
  0
ENDBLK
  5
30B
330
309
100
AcDbEntity
  8
0
100
AcDbBlockEnd
  0
BLOCK
  5
310
330
30F
100
AcDbEntity
  8
0
100
AcDbBlockBegin
  2
-span_nhip1_bot2_zqnlxkje
 70
0
 10
0.0
 20
0.0
 30
0.0
  3
-span_nhip1_bot2_zqnlxkje
  1

  0
INSERT
  5
312
330
30F
100
AcDbEntity
  8
0
100
AcDbBlockReference
 66
1
  2
-span_nhip1_bot2_attdef0
 10
0.0
 20
0.0
 30
0.0
  0
ATTRIB
  5
313
330
312
100
AcDbEntity
  8
0
100
AcDbText
 10
-36.35
 20
20.446875
 30
0.0
 40
100.0
  1
_input['nhip1_bot2']
  7
textstyle3
 72
1
 11
0.0
 21
0.0
 31
0.0
100
AcDbAttribute
  2
noidung
 70
0
 74
1
  0
SEQEND
  5
314
330
312
100
AcDbEntity
  8
0
  0
ENDBLK
  5
311
330
30F
100
AcDbEntity
  8
0
100
AcDbBlockEnd
  0
BLOCK
  5
316
330
315
100
AcDbEntity
  8
0
100
AcDbBlockBegin
  2
-span_nhip1_bot3_lypxfhyh
 70
0
 10
0.0
 20
0.0
 30
0.0
  3
-span_nhip1_bot3_lypxfhyh
  1

  0
INSERT
  5
318
330
315
100
AcDbEntity
  8
0
100
AcDbBlockReference
 66
1
  2
-span_nhip1_bot3_attdef0
 10
0.0
 20
0.0
 30
0.0
  0
ATTRIB
  5
319
330
318
100
AcDbEntity
  8
0
100
AcDbText
 10
-36.35
 20
20.446875
 30
0.0
 40
100.0
  1
_input['nhip1_bot3']
  7
textstyle3
 72
1
 11
0.0
 21
0.0
 31
0.0
100
AcDbAttribute
  2
noidung
 70
0
 74
1
  0
SEQEND
  5
31A
330
318
100
AcDbEntity
  8
0
  0
ENDBLK
  5
317
330
315
100
AcDbEntity
  8
0
100
AcDbBlockEnd
  0
BLOCK
  5
31C
330
31B
100
AcDbEntity
  8
0
100
AcDbBlockBegin
  2
-span_nhip1_top1_jqciodfw
 70
0
 10
0.0
 20
0.0
 30
0.0
  3
-span_nhip1_top1_jqciodfw
  1

  0
INSERT
  5
31E
330
31B
100
AcDbEntity
  8
0
100
AcDbBlockReference
 66
1
  2
-span_nhip1_top1_attdef0
 10
0.0
 20
0.0
 30
0.0
  0
ATTRIB
  5
31F
330
31E
100
AcDbEntity
  8
0
100
AcDbText
 10
-36.35
 20
-100.0
 30
0.0
 40
100.0
  1
_input['nhip1_top1']
  7
textstyle3
 72
1
 11
0.0
 21
0.0
 31
0.0
100
AcDbAttribute
  2
noidung
 70
0
 74
3
  0
SEQEND
  5
320
330
31E
100
AcDbEntity
  8
0
  0
ENDBLK
  5
31D
330
31B
100
AcDbEntity
  8
0
100
AcDbBlockEnd
  0
BLOCK
  5
322
330
321
100
AcDbEntity
  8
0
100
AcDbBlockBegin
  2
-span_nhip1_dim_qdddvstv
 70
0
 10
0.0
 20
0.0
 30
0.0
  3
-span_nhip1_dim_qdddvstv
  1

  0
INSERT
  5
324
330
321
100
AcDbEntity
  8
0
100
AcDbBlockReference
 66
1
  2
-span_nhip1_dim_attdef0
 10
0.0
 20
0.0
 30
0.0
  0
ATTRIB
  5
325
330
324
100
AcDbEntity
  8
0
100
AcDbText
 10
-218.1
 20
30.6703125
 30
0.0
 40
150.0
  1
1375
  7
textstyle3
 72
1
 11
0.0
 21
0.0
 31
0.0
100
AcDbAttribute
  2
noidung
 70
0
 74
1
  0
SEQEND
  5
326
330
324
100
AcDbEntity
  8
0
  0
ENDBLK
  5
323
330
321
100
AcDbEntity
  8
0
100
AcDbBlockEnd
  0
BLOCK
  5
328
330
327
100
AcDbEntity
  8
0
100
AcDbBlockBegin
  2
-span_nhip1_hatch1_dhmrnjtp
 70
0
 10
0.0
 20
0.0
 30
0.0
  3
-span_nhip1_hatch1_dhmrnjtp
  1

  0
CIRCLE
  5
32A
330
327
100
AcDbEntity
  8
0
100
AcDbCircle
 10
0.0
 20
0.0
 30
0.0
 40
25.0
  0
HATCH
  5
32B
330
327
100
AcDbEntity
  8
0
440
33554687
100
AcDbHatch
 10
0.0
 20
0.0
 30
0.0
210
0.0
220
0.0
230
1.0
  2
SOLID
 70
1
 71
0
 91
1
 92
0
 93
1
 72
2
 10
0.0
 20
0.0
 40
25.0
 50
0.0
 51
360.0
 73
1
 97
0
 75
0
 76
1
 98
0
  0
ENDBLK
  5
329
330
327
100
AcDbEntity
  8
0
100
AcDbBlockEnd
  0
BLOCK
  5
32D
330
32C
100
AcDbEntity
  8
0
100
AcDbBlockBegin
  2
-span_dim_ztydtkjn
 70
0
 10
0.0
 20
0.0
 30
0.0
  3
-span_dim_ztydtkjn
  1

  0
INSERT
  5
32F
330
32C
100
AcDbEntity
  8
0
100
AcDbBlockReference
 66
1
  2
-span_dim_attdef0
 10
0.0
 20
0.0
 30
0.0
  0
ATTRIB
  5
330
330
32F
100
AcDbEntity
  8
0
100
AcDbText
 10
-218.1
 20
30.6703125
 30
0.0
 40
150.0
  1
6500
  7
textstyle3
 72
1
 11
0.0
 21
0.0
 31
0.0
100
AcDbAttribute
  2
noidung
 70
0
 74
1
  0
SEQEND
  5
331
330
32F
100
AcDbEntity
  8
0
  0
ENDBLK
  5
32E
330
32C
100
AcDbEntity
  8
0
100
AcDbBlockEnd
  0
BLOCK
  5
333
330
332
100
AcDbEntity
  8
0
100
AcDbBlockBegin
  2
-span_tong_wzhtgkzv
 70
0
 10
0.0
 20
0.0
 30
0.0
  3
-span_tong_wzhtgkzv
  1

  0
INSERT
  5
335
330
332
100
AcDbEntity
  8
0
100
AcDbBlockReference
 66
1
  2
-span_tong_attdef0
 10
0.0
 20
0.0
 30
0.0
  0
ATTRIB
  5
336
330
335
100
AcDbEntity
  8
0
100
AcDbText
 10
-218.1
 20
30.6703125
 30
0.0
 40
150.0
  1
5500
  7
textstyle3
 72
1
 11
0.0
 21
0.0
 31
0.0
100
AcDbAttribute
  2
noidung
 70
0
 74
1
  0
SEQEND
  5
337
330
335
100
AcDbEntity
  8
0
  0
ENDBLK
  5
334
330
332
100
AcDbEntity
  8
0
100
AcDbBlockEnd
  0
BLOCK
  5
339
330
338
100
AcDbEntity
  8
0
100
AcDbBlockBegin
  2
-span_nhip2_top3_jflgpctr
 70
0
 10
0.0
 20
0.0
 30
0.0
  3
-span_nhip2_top3_jflgpctr
  1

  0
INSERT
  5
33B
330
338
100
AcDbEntity
  8
0
100
AcDbBlockReference
 66
1
  2
-span_nhip2_top3_attdef0
 10
0.0
 20
0.0
 30
0.0
  0
ATTRIB
  5
33C
330
33B
100
AcDbEntity
  8
0
100
AcDbText
 10
-36.35
 20
-100.0
 30
0.0
 40
100.0
  1
_input['nhip2_top3']
  7
textstyle3
 72
1
 11
0.0
 21
0.0
 31
0.0
100
AcDbAttribute
  2
noidung
 70
0
 74
3
  0
SEQEND
  5
33D
330
33B
100
AcDbEntity
  8
0
  0
ENDBLK
  5
33A
330
338
100
AcDbEntity
  8
0
100
AcDbBlockEnd
  0
BLOCK
  5
33F
330
33E
100
AcDbEntity
  8
0
100
AcDbBlockBegin
  2
-span_nhip2_top2_lzuwyvfd
 70
0
 10
0.0
 20
0.0
 30
0.0
  3
-span_nhip2_top2_lzuwyvfd
  1

  0
INSERT
  5
341
330
33E
100
AcDbEntity
  8
0
100
AcDbBlockReference
 66
1
  2
-span_nhip2_top2_attdef0
 10
0.0
 20
0.0
 30
0.0
  0
ATTRIB
  5
342
330
341
100
AcDbEntity
  8
0
100
AcDbText
 10
-36.35
 20
-100.0
 30
0.0
 40
100.0
  1
_input['nhip2_top2']
  7
textstyle3
 72
1
 11
0.0
 21
0.0
 31
0.0
100
AcDbAttribute
  2
noidung
 70
0
 74
3
  0
SEQEND
  5
343
330
341
100
AcDbEntity
  8
0
  0
ENDBLK
  5
340
330
33E
100
AcDbEntity
  8
0
100
AcDbBlockEnd
  0
BLOCK
  5
345
330
344
100
AcDbEntity
  8
0
100
AcDbBlockBegin
  2
-span_nhip2_bot1_vwrdcwvt
 70
0
 10
0.0
 20
0.0
 30
0.0
  3
-span_nhip2_bot1_vwrdcwvt
  1

  0
INSERT
  5
347
330
344
100
AcDbEntity
  8
0
100
AcDbBlockReference
 66
1
  2
-span_nhip2_bot1_attdef0
 10
0.0
 20
0.0
 30
0.0
  0
ATTRIB
  5
348
330
347
100
AcDbEntity
  8
0
100
AcDbText
 10
-36.35
 20
20.446875
 30
0.0
 40
100.0
  1
_input['nhip2_bot1']
  7
textstyle3
 72
1
 11
0.0
 21
0.0
 31
0.0
100
AcDbAttribute
  2
noidung
 70
0
 74
1
  0
SEQEND
  5
349
330
347
100
AcDbEntity
  8
0
  0
ENDBLK
  5
346
330
344
100
AcDbEntity
  8
0
100
AcDbBlockEnd
  0
BLOCK
  5
34B
330
34A
100
AcDbEntity
  8
0
100
AcDbBlockBegin
  2
-span_nhip2_bot2_xfgbutnd
 70
0
 10
0.0
 20
0.0
 30
0.0
  3
-span_nhip2_bot2_xfgbutnd
  1

  0
INSERT
  5
34D
330
34A
100
AcDbEntity
  8
0
100
AcDbBlockReference
 66
1
  2
-span_nhip2_bot2_attdef0
 10
0.0
 20
0.0
 30
0.0
  0
ATTRIB
  5
34E
330
34D
100
AcDbEntity
  8
0
100
AcDbText
 10
-36.35
 20
20.446875
 30
0.0
 40
100.0
  1
_input['nhip2_bot2']
  7
textstyle3
 72
1
 11
0.0
 21
0.0
 31
0.0
100
AcDbAttribute
  2
noidung
 70
0
 74
1
  0
SEQEND
  5
34F
330
34D
100
AcDbEntity
  8
0
  0
ENDBLK
  5
34C
330
34A
100
AcDbEntity
  8
0
100
AcDbBlockEnd
  0
BLOCK
  5
351
330
350
100
AcDbEntity
  8
0
100
AcDbBlockBegin
  2
-span_nhip2_bot3_jkyelxdr
 70
0
 10
0.0
 20
0.0
 30
0.0
  3
-span_nhip2_bot3_jkyelxdr
  1

  0
INSERT
  5
353
330
350
100
AcDbEntity
  8
0
100
AcDbBlockReference
 66
1
  2
-span_nhip2_bot3_attdef0
 10
0.0
 20
0.0
 30
0.0
  0
ATTRIB
  5
354
330
353
100
AcDbEntity
  8
0
100
AcDbText
 10
-36.35
 20
20.446875
 30
0.0
 40
100.0
  1
_input['nhip2_bot3']
  7
textstyle3
 72
1
 11
0.0
 21
0.0
 31
0.0
100
AcDbAttribute
  2
noidung
 70
0
 74
1
  0
SEQEND
  5
355
330
353
100
AcDbEntity
  8
0
  0
ENDBLK
  5
352
330
350
100
AcDbEntity
  8
0
100
AcDbBlockEnd
  0
BLOCK
  5
357
330
356
100
AcDbEntity
  8
0
100
AcDbBlockBegin
  2
-span_WxH_itplevzx
 70
0
 10
0.0
 20
0.0
 30
0.0
  3
-span_WxH_itplevzx
  1

  0
INSERT
  5
359
330
356
100
AcDbEntity
  8
0
100
AcDbBlockReference
 66
1
  2
-span_WxH_attdef0
 10
0.0
 20
0.0
 30
0.0
  0
ATTRIB
  5
35A
330
359
100
AcDbEntity
  8
0
100
AcDbText
 10
-377.3999999999999
 20
-250.0
 30
0.0
 40
150.0
  1
_input['WxH']
  7
textstyle3
 72
1
 11
-1.84e-14
 21
-100.0
 31
0.0
100
AcDbAttribute
  2
noidung
 70
0
 74
3
  0
SEQEND
  5
35B
330
359
100
AcDbEntity
  8
0
  0
ENDBLK
  5
358
330
356
100
AcDbEntity
  8
0
100
AcDbBlockEnd
  0
BLOCK
  5
35D
330
35C
100
AcDbEntity
  8
0
100
AcDbBlockBegin
  2
-span_nhip2_top1_qvymqhju
 70
0
 10
0.0
 20
0.0
 30
0.0
  3
-span_nhip2_top1_qvymqhju
  1

  0
INSERT
  5
35F
330
35C
100
AcDbEntity
  8
0
100
AcDbBlockReference
 66
1
  2
-span_nhip2_top1_attdef0
 10
0.0
 20
0.0
 30
0.0
  0
ATTRIB
  5
360
330
35F
100
AcDbEntity
  8
0
100
AcDbText
 10
-36.35
 20
-100.0
 30
0.0
 40
100.0
  1
_input['nhip2_top1']
  7
textstyle3
 72
1
 11
0.0
 21
0.0
 31
0.0
100
AcDbAttribute
  2
noidung
 70
0
 74
3
  0
SEQEND
  5
361
330
35F
100
AcDbEntity
  8
0
  0
ENDBLK
  5
35E
330
35C
100
AcDbEntity
  8
0
100
AcDbBlockEnd
  0
BLOCK
  5
363
330
362
100
AcDbEntity
  8
0
100
AcDbBlockBegin
  2
-span_nhip2_dim_dsyugmex
 70
0
 10
0.0
 20
0.0
 30
0.0
  3
-span_nhip2_dim_dsyugmex
  1

  0
INSERT
  5
365
330
362
100
AcDbEntity
  8
0
100
AcDbBlockReference
 66
1
  2
-span_nhip2_dim_attdef0
 10
0.0
 20
0.0
 30
0.0
  0
ATTRIB
  5
366
330
365
100
AcDbEntity
  8
0
100
AcDbText
 10
-218.1
 20
30.6703125
 30
0.0
 40
150.0
  1
2750
  7
textstyle3
 72
1
 11
0.0
 21
0.0
 31
0.0
100
AcDbAttribute
  2
noidung
 70
0
 74
1
  0
SEQEND
  5
367
330
365
100
AcDbEntity
  8
0
  0
ENDBLK
  5
364
330
362
100
AcDbEntity
  8
0
100
AcDbBlockEnd
  0
BLOCK
  5
369
330
368
100
AcDbEntity
  8
0
100
AcDbBlockBegin
  2
-span_hari_kiuregkt
 70
0
 10
0.0
 20
0.0
 30
0.0
  3
-span_hari_kiuregkt
  1

  0
INSERT
  5
36B
330
368
100
AcDbEntity
  8
0
100
AcDbBlockReference
 66
1
  2
-span_hari_attdef0
 10
0.0
 20
0.0
 30
0.0
  0
ATTRIB
  5
36C
330
36B
100
AcDbEntity
  8
0
100
AcDbText
 10
-214.375
 20
-350.0
 30
0.0
 40
250.0
  1
_input['hari']
  7
textstyle3
 72
1
 11
-1.84e-14
 21
-100.0
 31
0.0
100
AcDbAttribute
  2
noidung
 70
0
 74
3
  0
SEQEND
  5
36D
330
36B
100
AcDbEntity
  8
0
  0
ENDBLK
  5
36A
330
368
100
AcDbEntity
  8
0
100
AcDbBlockEnd
  0
BLOCK
  5
36F
330
36E
100
AcDbEntity
  8
0
100
AcDbBlockBegin
  2
-span_dansa_lcmhyglj
 70
0
 10
0.0
 20
0.0
 30
0.0
  3
-span_dansa_lcmhyglj
  1

  0
INSERT
  5
371
330
36E
100
AcDbEntity
  8
0
100
AcDbBlockReference
 66
1
  2
-span_dansa_attdef0
 10
0.0
 20
0.0
 30
0.0
  0
ATTRIB
  5
372
330
371
100
AcDbEntity
  8
0
100
AcDbText
 10
-306.7
 20
-650.0
 30
0.0
 40
200.0
  1
_input['dansa']
  7
textstyle3
 72
1
 11
-8.27e-14
 21
-450.0
 31
0.0
100
AcDbAttribute
  2
noidung
 70
0
 74
3
  0
SEQEND
  5
373
330
371
100
AcDbEntity
  8
0
  0
ENDBLK
  5
370
330
36E
100
AcDbEntity
  8
0
100
AcDbBlockEnd
  0
BLOCK
  5
375
330
374
100
AcDbEntity
  8
0
100
AcDbBlockBegin
  2
-span_nhip2_hatch1_wwfabblw
 70
0
 10
0.0
 20
0.0
 30
0.0
  3
-span_nhip2_hatch1_wwfabblw
  1

  0
CIRCLE
  5
377
330
374
100
AcDbEntity
  8
0
100
AcDbCircle
 10
0.0
 20
0.0
 30
0.0
 40
25.0
  0
HATCH
  5
378
330
374
100
AcDbEntity
  8
0
440
33554687
100
AcDbHatch
 10
0.0
 20
0.0
 30
0.0
210
0.0
220
0.0
230
1.0
  2
SOLID
 70
1
 71
0
 91
1
 92
0
 93
1
 72
2
 10
0.0
 20
0.0
 40
25.0
 50
0.0
 51
360.0
 73
1
 97
0
 75
0
 76
1
 98
0
  0
ENDBLK
  5
376
330
374
100
AcDbEntity
  8
0
100
AcDbBlockEnd
  0
BLOCK
  5
37A
330
379
100
AcDbEntity
  8
0
100
AcDbBlockBegin
  2
-span_nhip3_hatch1_qdyquous
 70
0
 10
0.0
 20
0.0
 30
0.0
  3
-span_nhip3_hatch1_qdyquous
  1

  0
CIRCLE
  5
37C
330
379
100
AcDbEntity
  8
0
100
AcDbCircle
 10
0.0
 20
0.0
 30
0.0
 40
25.0
  0
HATCH
  5
37D
330
379
100
AcDbEntity
  8
0
440
33554687
100
AcDbHatch
 10
0.0
 20
0.0
 30
0.0
210
0.0
220
0.0
230
1.0
  2
SOLID
 70
1
 71
0
 91
1
 92
0
 93
1
 72
2
 10
0.0
 20
0.0
 40
25.0
 50
0.0
 51
360.0
 73
1
 97
0
 75
0
 76
1
 98
0
  0
ENDBLK
  5
37B
330
379
100
AcDbEntity
  8
0
100
AcDbBlockEnd
  0
BLOCK
  5
37F
330
37E
100
AcDbEntity
  8
0
100
AcDbBlockBegin
  2
-span_nhip3_top3_ndfihxbt
 70
0
 10
0.0
 20
0.0
 30
0.0
  3
-span_nhip3_top3_ndfihxbt
  1

  0
INSERT
  5
381
330
37E
100
AcDbEntity
  8
0
100
AcDbBlockReference
 66
1
  2
-span_nhip3_top3_attdef0
 10
0.0
 20
0.0
 30
0.0
  0
ATTRIB
  5
382
330
381
100
AcDbEntity
  8
0
100
AcDbText
 10
-36.35
 20
-100.0
 30
0.0
 40
100.0
  1
_input['nhip3_top3']
  7
textstyle3
 72
1
 11
0.0
 21
0.0
 31
0.0
100
AcDbAttribute
  2
noidung
 70
0
 74
3
  0
SEQEND
  5
383
330
381
100
AcDbEntity
  8
0
  0
ENDBLK
  5
380
330
37E
100
AcDbEntity
  8
0
100
AcDbBlockEnd
  0
BLOCK
  5
385
330
384
100
AcDbEntity
  8
0
100
AcDbBlockBegin
  2
-span_nhip3_top2_gfjjaaxz
 70
0
 10
0.0
 20
0.0
 30
0.0
  3
-span_nhip3_top2_gfjjaaxz
  1

  0
INSERT
  5
387
330
384
100
AcDbEntity
  8
0
100
AcDbBlockReference
 66
1
  2
-span_nhip3_top2_attdef0
 10
0.0
 20
0.0
 30
0.0
  0
ATTRIB
  5
388
330
387
100
AcDbEntity
  8
0
100
AcDbText
 10
-36.35
 20
-100.0
 30
0.0
 40
100.0
  1
_input['nhip3_top2']
  7
textstyle3
 72
1
 11
0.0
 21
0.0
 31
0.0
100
AcDbAttribute
  2
noidung
 70
0
 74
3
  0
SEQEND
  5
389
330
387
100
AcDbEntity
  8
0
  0
ENDBLK
  5
386
330
384
100
AcDbEntity
  8
0
100
AcDbBlockEnd
  0
BLOCK
  5
38B
330
38A
100
AcDbEntity
  8
0
100
AcDbBlockBegin
  2
-span_nhip3_bot1_ahnzlndr
 70
0
 10
0.0
 20
0.0
 30
0.0
  3
-span_nhip3_bot1_ahnzlndr
  1

  0
INSERT
  5
38D
330
38A
100
AcDbEntity
  8
0
100
AcDbBlockReference
 66
1
  2
-span_nhip3_bot1_attdef0
 10
0.0
 20
0.0
 30
0.0
  0
ATTRIB
  5
38E
330
38D
100
AcDbEntity
  8
0
100
AcDbText
 10
-36.35
 20
20.446875
 30
0.0
 40
100.0
  1
_input['nhip3_bot1']
  7
textstyle3
 72
1
 11
0.0
 21
0.0
 31
0.0
100
AcDbAttribute
  2
noidung
 70
0
 74
1
  0
SEQEND
  5
38F
330
38D
100
AcDbEntity
  8
0
  0
ENDBLK
  5
38C
330
38A
100
AcDbEntity
  8
0
100
AcDbBlockEnd
  0
BLOCK
  5
391
330
390
100
AcDbEntity
  8
0
100
AcDbBlockBegin
  2
-span_nhip3_bot2_upvppmcn
 70
0
 10
0.0
 20
0.0
 30
0.0
  3
-span_nhip3_bot2_upvppmcn
  1

  0
INSERT
  5
393
330
390
100
AcDbEntity
  8
0
100
AcDbBlockReference
 66
1
  2
-span_nhip3_bot2_attdef0
 10
0.0
 20
0.0
 30
0.0
  0
ATTRIB
  5
394
330
393
100
AcDbEntity
  8
0
100
AcDbText
 10
-36.35
 20
20.446875
 30
0.0
 40
100.0
  1
_input['nhip3_bot2']
  7
textstyle3
 72
1
 11
0.0
 21
0.0
 31
0.0
100
AcDbAttribute
  2
noidung
 70
0
 74
1
  0
SEQEND
  5
395
330
393
100
AcDbEntity
  8
0
  0
ENDBLK
  5
392
330
390
100
AcDbEntity
  8
0
100
AcDbBlockEnd
  0
BLOCK
  5
397
330
396
100
AcDbEntity
  8
0
100
AcDbBlockBegin
  2
-span_nhip3_bot3_acbwzula
 70
0
 10
0.0
 20
0.0
 30
0.0
  3
-span_nhip3_bot3_acbwzula
  1

  0
INSERT
  5
399
330
396
100
AcDbEntity
  8
0
100
AcDbBlockReference
 66
1
  2
-span_nhip3_bot3_attdef0
 10
0.0
 20
0.0
 30
0.0
  0
ATTRIB
  5
39A
330
399
100
AcDbEntity
  8
0
100
AcDbText
 10
-36.35
 20
20.446875
 30
0.0
 40
100.0
  1
_input['nhip3_bot3']
  7
textstyle3
 72
1
 11
0.0
 21
0.0
 31
0.0
100
AcDbAttribute
  2
noidung
 70
0
 74
1
  0
SEQEND
  5
39B
330
399
100
AcDbEntity
  8
0
  0
ENDBLK
  5
398
330
396
100
AcDbEntity
  8
0
100
AcDbBlockEnd
  0
BLOCK
  5
39D
330
39C
100
AcDbEntity
  8
0
100
AcDbBlockBegin
  2
-span_nhip3_top1_txpstmgx
 70
0
 10
0.0
 20
0.0
 30
0.0
  3
-span_nhip3_top1_txpstmgx
  1

  0
INSERT
  5
39F
330
39C
100
AcDbEntity
  8
0
100
AcDbBlockReference
 66
1
  2
-span_nhip3_top1_attdef0
 10
0.0
 20
0.0
 30
0.0
  0
ATTRIB
  5
3A0
330
39F
100
AcDbEntity
  8
0
100
AcDbText
 10
-36.35
 20
-100.0
 30
0.0
 40
100.0
  1
_input['nhip3_top1']
  7
textstyle3
 72
1
 11
0.0
 21
0.0
 31
0.0
100
AcDbAttribute
  2
noidung
 70
0
 74
3
  0
SEQEND
  5
3A1
330
39F
100
AcDbEntity
  8
0
  0
ENDBLK
  5
39E
330
39C
100
AcDbEntity
  8
0
100
AcDbBlockEnd
  0
BLOCK
  5
3A3
330
3A2
100
AcDbEntity
  8
0
100
AcDbBlockBegin
  2
-span_nhip3_dim_kvbmrxrs
 70
0
 10
0.0
 20
0.0
 30
0.0
  3
-span_nhip3_dim_kvbmrxrs
  1

  0
INSERT
  5
3A5
330
3A2
100
AcDbEntity
  8
0
100
AcDbBlockReference
 66
1
  2
-span_nhip3_dim_attdef0
 10
0.0
 20
0.0
 30
0.0
  0
ATTRIB
  5
3A6
330
3A5
100
AcDbEntity
  8
0
100
AcDbText
 10
-218.1
 20
30.6703125
 30
0.0
 40
150.0
  1
1375
  7
textstyle3
 72
1
 11
0.0
 21
0.0
 31
0.0
100
AcDbAttribute
  2
noidung
 70
0
 74
1
  0
SEQEND
  5
3A7
330
3A5
100
AcDbEntity
  8
0
  0
ENDBLK
  5
3A4
330
3A2
100
AcDbEntity
  8
0
100
AcDbBlockEnd
  0
BLOCK
  5
3A9
330
3A8
100
AcDbEntity
  8
0
100
AcDbBlockBegin
  2
-span_nhip3_hatch2_rpctzgyu
 70
0
 10
0.0
 20
0.0
 30
0.0
  3
-span_nhip3_hatch2_rpctzgyu
  1

  0
CIRCLE
  5
3AB
330
3A8
100
AcDbEntity
  8
0
100
AcDbCircle
 10
0.0
 20
0.0
 30
0.0
 40
25.0
  0
HATCH
  5
3AC
330
3A8
100
AcDbEntity
  8
0
440
33554687
100
AcDbHatch
 10
0.0
 20
0.0
 30
0.0
210
0.0
220
0.0
230
1.0
  2
SOLID
 70
1
 71
0
 91
1
 92
0
 93
1
 72
2
 10
0.0
 20
0.0
 40
25.0
 50
0.0
 51
360.0
 73
1
 97
0
 75
0
 76
1
 98
0
  0
ENDBLK
  5
3AA
330
3A8
100
AcDbEntity
  8
0
100
AcDbBlockEnd
  0
BLOCK
  5
3AE
330
3AD
100
AcDbEntity
  8
0
100
AcDbBlockBegin
  2
-span_nhip1_top3_attdef0
 70
2
 10
0.0
 20
0.0
 30
0.0
  3
-span_nhip1_top3_attdef0
  1

  0
ATTDEF
  5
3B0
330
3AD
100
AcDbEntity
  8
0
100
AcDbText
 10
-36.35
 20
-100.0
 30
0.0
 40
100.0
  1
3
  7
textstyle3
 72
1
 11
0.0
 21
0.0
 31
0.0
100
AcDbAttributeDefinition
  3
top3
  2
noidung
 70
0
 74
3
  0
ENDBLK
  5
3AF
330
3AD
100
AcDbEntity
  8
0
100
AcDbBlockEnd
  0
BLOCK
  5
3B2
330
3B1
100
AcDbEntity
  8
0
100
AcDbBlockBegin
  2
-span_nhip1_top2_attdef0
 70
2
 10
0.0
 20
0.0
 30
0.0
  3
-span_nhip1_top2_attdef0
  1

  0
ATTDEF
  5
3B4
330
3B1
100
AcDbEntity
  8
0
100
AcDbText
 10
-36.35
 20
-100.0
 30
0.0
 40
100.0
  1
4
  7
textstyle3
 72
1
 11
0.0
 21
0.0
 31
0.0
100
AcDbAttributeDefinition
  3
top2
  2
noidung
 70
0
 74
3
  0
ENDBLK
  5
3B3
330
3B1
100
AcDbEntity
  8
0
100
AcDbBlockEnd
  0
BLOCK
  5
3B6
330
3B5
100
AcDbEntity
  8
0
100
AcDbBlockBegin
  2
-span_nhip1_bot1_attdef0
 70
2
 10
0.0
 20
0.0
 30
0.0
  3
-span_nhip1_bot1_attdef0
  1

  0
ATTDEF
  5
3B8
330
3B5
100
AcDbEntity
  8
0
100
AcDbText
 10
-36.35
 20
20.446875
 30
0.0
 40
100.0
  1
3
  7
textstyle3
 72
1
 11
0.0
 21
0.0
 31
0.0
100
AcDbAttributeDefinition
  3
bot1
  2
noidung
 70
0
 74
1
  0
ENDBLK
  5
3B7
330
3B5
100
AcDbEntity
  8
0
100
AcDbBlockEnd
  0
BLOCK
  5
3BA
330
3B9
100
AcDbEntity
  8
0
100
AcDbBlockBegin
  2
-span_nhip1_bot2_attdef0
 70
2
 10
0.0
 20
0.0
 30
0.0
  3
-span_nhip1_bot2_attdef0
  1

  0
ATTDEF
  5
3BC
330
3B9
100
AcDbEntity
  8
0
100
AcDbText
 10
-36.35
 20
20.446875
 30
0.0
 40
100.0
  1
4
  7
textstyle3
 72
1
 11
0.0
 21
0.0
 31
0.0
100
AcDbAttributeDefinition
  3
bot2
  2
noidung
 70
0
 74
1
  0
ENDBLK
  5
3BB
330
3B9
100
AcDbEntity
  8
0
100
AcDbBlockEnd
  0
BLOCK
  5
3BE
330
3BD
100
AcDbEntity
  8
0
100
AcDbBlockBegin
  2
-span_nhip1_bot3_attdef0
 70
2
 10
0.0
 20
0.0
 30
0.0
  3
-span_nhip1_bot3_attdef0
  1

  0
ATTDEF
  5
3C0
330
3BD
100
AcDbEntity
  8
0
100
AcDbText
 10
-36.35
 20
20.446875
 30
0.0
 40
100.0
  1
5
  7
textstyle3
 72
1
 11
0.0
 21
0.0
 31
0.0
100
AcDbAttributeDefinition
  3
bot3
  2
noidung
 70
0
 74
1
  0
ENDBLK
  5
3BF
330
3BD
100
AcDbEntity
  8
0
100
AcDbBlockEnd
  0
BLOCK
  5
3C2
330
3C1
100
AcDbEntity
  8
0
100
AcDbBlockBegin
  2
-span_nhip1_top1_attdef0
 70
2
 10
0.0
 20
0.0
 30
0.0
  3
-span_nhip1_top1_attdef0
  1

  0
ATTDEF
  5
3C4
330
3C1
100
AcDbEntity
  8
0
100
AcDbText
 10
-36.35
 20
-100.0
 30
0.0
 40
100.0
  1
5
  7
textstyle3
 72
1
 11
0.0
 21
0.0
 31
0.0
100
AcDbAttributeDefinition
  3
top1
  2
noidung
 70
0
 74
3
  0
ENDBLK
  5
3C3
330
3C1
100
AcDbEntity
  8
0
100
AcDbBlockEnd
  0
BLOCK
  5
3C6
330
3C5
100
AcDbEntity
  8
0
100
AcDbBlockBegin
  2
-span_nhip1_dim_attdef0
 70
2
 10
0.0
 20
0.0
 30
0.0
  3
-span_nhip1_dim_attdef0
  1

  0
ATTDEF
  5
3C8
330
3C5
100
AcDbEntity
  8
0
100
AcDbText
 10
-218.1
 20
30.6703125
 30
0.0
 40
150.0
  1
2100
  7
textstyle3
 72
1
 11
0.0
 21
0.0
 31
0.0
100
AcDbAttributeDefinition
  3
dimension
  2
noidung
 70
0
 74
1
  0
ENDBLK
  5
3C7
330
3C5
100
AcDbEntity
  8
0
100
AcDbBlockEnd
  0
BLOCK
  5
3CA
330
3C9
100
AcDbEntity
  8
0
100
AcDbBlockBegin
  2
-span_dim_attdef0
 70
2
 10
0.0
 20
0.0
 30
0.0
  3
-span_dim_attdef0
  1

  0
ATTDEF
  5
3CC
330
3C9
100
AcDbEntity
  8
0
100
AcDbText
 10
-218.1
 20
30.6703125
 30
0.0
 40
150.0
  1
9200
  7
textstyle3
 72
1
 11
0.0
 21
0.0
 31
0.0
100
AcDbAttributeDefinition
  3
dimension
  2
noidung
 70
0
 74
1
  0
ENDBLK
  5
3CB
330
3C9
100
AcDbEntity
  8
0
100
AcDbBlockEnd
  0
BLOCK
  5
3CE
330
3CD
100
AcDbEntity
  8
0
100
AcDbBlockBegin
  2
-span_tong_attdef0
 70
2
 10
0.0
 20
0.0
 30
0.0
  3
-span_tong_attdef0
  1

  0
ATTDEF
  5
3D0
330
3CD
100
AcDbEntity
  8
0
100
AcDbText
 10
-218.1
 20
30.6703125
 30
0.0
 40
150.0
  1
8400
  7
textstyle3
 72
1
 11
0.0
 21
0.0
 31
0.0
100
AcDbAttributeDefinition
  3
dimension
  2
noidung
 70
0
 74
1
  0
ENDBLK
  5
3CF
330
3CD
100
AcDbEntity
  8
0
100
AcDbBlockEnd
  0
BLOCK
  5
3D2
330
3D1
100
AcDbEntity
  8
0
100
AcDbBlockBegin
  2
-span_nhip2_top3_attdef0
 70
2
 10
0.0
 20
0.0
 30
0.0
  3
-span_nhip2_top3_attdef0
  1

  0
ATTDEF
  5
3D4
330
3D1
100
AcDbEntity
  8
0
100
AcDbText
 10
-36.35
 20
-100.0
 30
0.0
 40
100.0
  1
3
  7
textstyle3
 72
1
 11
0.0
 21
0.0
 31
0.0
100
AcDbAttributeDefinition
  3
top3
  2
noidung
 70
0
 74
3
  0
ENDBLK
  5
3D3
330
3D1
100
AcDbEntity
  8
0
100
AcDbBlockEnd
  0
BLOCK
  5
3D6
330
3D5
100
AcDbEntity
  8
0
100
AcDbBlockBegin
  2
-span_nhip2_top2_attdef0
 70
2
 10
0.0
 20
0.0
 30
0.0
  3
-span_nhip2_top2_attdef0
  1

  0
ATTDEF
  5
3D8
330
3D5
100
AcDbEntity
  8
0
100
AcDbText
 10
-36.35
 20
-100.0
 30
0.0
 40
100.0
  1
4
  7
textstyle3
 72
1
 11
0.0
 21
0.0
 31
0.0
100
AcDbAttributeDefinition
  3
top2
  2
noidung
 70
0
 74
3
  0
ENDBLK
  5
3D7
330
3D5
100
AcDbEntity
  8
0
100
AcDbBlockEnd
  0
BLOCK
  5
3DA
330
3D9
100
AcDbEntity
  8
0
100
AcDbBlockBegin
  2
-span_nhip2_bot1_attdef0
 70
2
 10
0.0
 20
0.0
 30
0.0
  3
-span_nhip2_bot1_attdef0
  1

  0
ATTDEF
  5
3DC
330
3D9
100
AcDbEntity
  8
0
100
AcDbText
 10
-36.35
 20
20.446875
 30
0.0
 40
100.0
  1
3
  7
textstyle3
 72
1
 11
0.0
 21
0.0
 31
0.0
100
AcDbAttributeDefinition
  3
bot1
  2
noidung
 70
0
 74
1
  0
ENDBLK
  5
3DB
330
3D9
100
AcDbEntity
  8
0
100
AcDbBlockEnd
  0
BLOCK
  5
3DE
330
3DD
100
AcDbEntity
  8
0
100
AcDbBlockBegin
  2
-span_nhip2_bot2_attdef0
 70
2
 10
0.0
 20
0.0
 30
0.0
  3
-span_nhip2_bot2_attdef0
  1

  0
ATTDEF
  5
3E0
330
3DD
100
AcDbEntity
  8
0
100
AcDbText
 10
-36.35
 20
20.446875
 30
0.0
 40
100.0
  1
4
  7
textstyle3
 72
1
 11
0.0
 21
0.0
 31
0.0
100
AcDbAttributeDefinition
  3
bot2
  2
noidung
 70
0
 74
1
  0
ENDBLK
  5
3DF
330
3DD
100
AcDbEntity
  8
0
100
AcDbBlockEnd
  0
BLOCK
  5
3E2
330
3E1
100
AcDbEntity
  8
0
100
AcDbBlockBegin
  2
-span_nhip2_bot3_attdef0
 70
2
 10
0.0
 20
0.0
 30
0.0
  3
-span_nhip2_bot3_attdef0
  1

  0
ATTDEF
  5
3E4
330
3E1
100
AcDbEntity
  8
0
100
AcDbText
 10
-36.35
 20
20.446875
 30
0.0
 40
100.0
  1
5
  7
textstyle3
 72
1
 11
0.0
 21
0.0
 31
0.0
100
AcDbAttributeDefinition
  3
bot3
  2
noidung
 70
0
 74
1
  0
ENDBLK
  5
3E3
330
3E1
100
AcDbEntity
  8
0
100
AcDbBlockEnd
  0
BLOCK
  5
3E6
330
3E5
100
AcDbEntity
  8
0
100
AcDbBlockBegin
  2
-span_WxH_attdef0
 70
2
 10
0.0
 20
0.0
 30
0.0
  3
-span_WxH_attdef0
  1

  0
ATTDEF
  5
3E8
330
3E5
100
AcDbEntity
  8
0
100
AcDbText
 10
-377.3999999999999
 20
-250.0
 30
0.0
 40
150.0
  1
600x900
  7
textstyle3
 72
1
 11
0.0
 21
-100.0
 31
0.0
100
AcDbAttributeDefinition
  3
WxH
  2
noidung
 70
0
 74
3
  0
ENDBLK
  5
3E7
330
3E5
100
AcDbEntity
  8
0
100
AcDbBlockEnd
  0
BLOCK
  5
3EA
330
3E9
100
AcDbEntity
  8
0
100
AcDbBlockBegin
  2
-span_nhip2_top1_attdef0
 70
2
 10
0.0
 20
0.0
 30
0.0
  3
-span_nhip2_top1_attdef0
  1

  0
ATTDEF
  5
3EC
330
3E9
100
AcDbEntity
  8
0
100
AcDbText
 10
-36.35
 20
-100.0
 30
0.0
 40
100.0
  1
5
  7
textstyle3
 72
1
 11
0.0
 21
0.0
 31
0.0
100
AcDbAttributeDefinition
  3
top1
  2
noidung
 70
0
 74
3
  0
ENDBLK
  5
3EB
330
3E9
100
AcDbEntity
  8
0
100
AcDbBlockEnd
  0
BLOCK
  5
3EE
330
3ED
100
AcDbEntity
  8
0
100
AcDbBlockBegin
  2
-span_nhip2_dim_attdef0
 70
2
 10
0.0
 20
0.0
 30
0.0
  3
-span_nhip2_dim_attdef0
  1

  0
ATTDEF
  5
3F0
330
3ED
100
AcDbEntity
  8
0
100
AcDbText
 10
-218.1
 20
30.6703125
 30
0.0
 40
150.0
  1
4200
  7
textstyle3
 72
1
 11
0.0
 21
0.0
 31
0.0
100
AcDbAttributeDefinition
  3
dimension
  2
noidung
 70
0
 74
1
  0
ENDBLK
  5
3EF
330
3ED
100
AcDbEntity
  8
0
100
AcDbBlockEnd
  0
BLOCK
  5
3F2
330
3F1
100
AcDbEntity
  8
0
100
AcDbBlockBegin
  2
-span_hari_attdef0
 70
2
 10
0.0
 20
0.0
 30
0.0
  3
-span_hari_attdef0
  1

  0
ATTDEF
  5
3F4
330
3F1
100
AcDbEntity
  8
0
100
AcDbText
 10
-214.375
 20
-350.0
 30
0.0
 40
250.0
  1
G2
  7
textstyle3
 72
1
 11
0.0
 21
-100.0
 31
0.0
100
AcDbAttributeDefinition
  3
hari
  2
noidung
 70
0
 74
3
  0
ENDBLK
  5
3F3
330
3F1
100
AcDbEntity
  8
0
100
AcDbBlockEnd
  0
BLOCK
  5
3F6
330
3F5
100
AcDbEntity
  8
0
100
AcDbBlockBegin
  2
-span_dansa_attdef0
 70
2
 10
0.0
 20
0.0
 30
0.0
  3
-span_dansa_attdef0
  1

  0
ATTDEF
  5
3F8
330
3F5
100
AcDbEntity
  8
0
100
AcDbText
 10
-306.7
 20
-650.0
 30
0.0
 40
200.0
  1
(-35)
  7
textstyle3
 72
1
 11
0.0
 21
-450.0
 31
0.0
100
AcDbAttributeDefinition
  3
dansa
  2
noidung
 70
0
 74
3
  0
ENDBLK
  5
3F7
330
3F5
100
AcDbEntity
  8
0
100
AcDbBlockEnd
  0
BLOCK
  5
3FA
330
3F9
100
AcDbEntity
  8
0
100
AcDbBlockBegin
  2
-span_nhip3_top3_attdef0
 70
2
 10
0.0
 20
0.0
 30
0.0
  3
-span_nhip3_top3_attdef0
  1

  0
ATTDEF
  5
3FC
330
3F9
100
AcDbEntity
  8
0
100
AcDbText
 10
-36.35
 20
-100.0
 30
0.0
 40
100.0
  1
3
  7
textstyle3
 72
1
 11
0.0
 21
0.0
 31
0.0
100
AcDbAttributeDefinition
  3
top3
  2
noidung
 70
0
 74
3
  0
ENDBLK
  5
3FB
330
3F9
100
AcDbEntity
  8
0
100
AcDbBlockEnd
  0
BLOCK
  5
3FE
330
3FD
100
AcDbEntity
  8
0
100
AcDbBlockBegin
  2
-span_nhip3_top2_attdef0
 70
2
 10
0.0
 20
0.0
 30
0.0
  3
-span_nhip3_top2_attdef0
  1

  0
ATTDEF
  5
400
330
3FD
100
AcDbEntity
  8
0
100
AcDbText
 10
-36.35
 20
-100.0
 30
0.0
 40
100.0
  1
4
  7
textstyle3
 72
1
 11
0.0
 21
0.0
 31
0.0
100
AcDbAttributeDefinition
  3
top2
  2
noidung
 70
0
 74
3
  0
ENDBLK
  5
3FF
330
3FD
100
AcDbEntity
  8
0
100
AcDbBlockEnd
  0
BLOCK
  5
402
330
401
100
AcDbEntity
  8
0
100
AcDbBlockBegin
  2
-span_nhip3_bot1_attdef0
 70
2
 10
0.0
 20
0.0
 30
0.0
  3
-span_nhip3_bot1_attdef0
  1

  0
ATTDEF
  5
404
330
401
100
AcDbEntity
  8
0
100
AcDbText
 10
-36.35
 20
20.446875
 30
0.0
 40
100.0
  1
3
  7
textstyle3
 72
1
 11
0.0
 21
0.0
 31
0.0
100
AcDbAttributeDefinition
  3
bot1
  2
noidung
 70
0
 74
1
  0
ENDBLK
  5
403
330
401
100
AcDbEntity
  8
0
100
AcDbBlockEnd
  0
BLOCK
  5
406
330
405
100
AcDbEntity
  8
0
100
AcDbBlockBegin
  2
-span_nhip3_bot2_attdef0
 70
2
 10
0.0
 20
0.0
 30
0.0
  3
-span_nhip3_bot2_attdef0
  1

  0
ATTDEF
  5
408
330
405
100
AcDbEntity
  8
0
100
AcDbText
 10
-36.35
 20
20.446875
 30
0.0
 40
100.0
  1
4
  7
textstyle3
 72
1
 11
0.0
 21
0.0
 31
0.0
100
AcDbAttributeDefinition
  3
bot2
  2
noidung
 70
0
 74
1
  0
ENDBLK
  5
407
330
405
100
AcDbEntity
  8
0
100
AcDbBlockEnd
  0
BLOCK
  5
40A
330
409
100
AcDbEntity
  8
0
100
AcDbBlockBegin
  2
-span_nhip3_bot3_attdef0
 70
2
 10
0.0
 20
0.0
 30
0.0
  3
-span_nhip3_bot3_attdef0
  1

  0
ATTDEF
  5
40C
330
409
100
AcDbEntity
  8
0
100
AcDbText
 10
-36.35
 20
20.446875
 30
0.0
 40
100.0
  1
5
  7
textstyle3
 72
1
 11
0.0
 21
0.0
 31
0.0
100
AcDbAttributeDefinition
  3
bot3
  2
noidung
 70
0
 74
1
  0
ENDBLK
  5
40B
330
409
100
AcDbEntity
  8
0
100
AcDbBlockEnd
  0
BLOCK
  5
40E
330
40D
100
AcDbEntity
  8
0
100
AcDbBlockBegin
  2
-span_nhip3_top1_attdef0
 70
2
 10
0.0
 20
0.0
 30
0.0
  3
-span_nhip3_top1_attdef0
  1

  0
ATTDEF
  5
410
330
40D
100
AcDbEntity
  8
0
100
AcDbText
 10
-36.35
 20
-100.0
 30
0.0
 40
100.0
  1
5
  7
textstyle3
 72
1
 11
0.0
 21
0.0
 31
0.0
100
AcDbAttributeDefinition
  3
top1
  2
noidung
 70
0
 74
3
  0
ENDBLK
  5
40F
330
40D
100
AcDbEntity
  8
0
100
AcDbBlockEnd
  0
BLOCK
  5
412
330
411
100
AcDbEntity
  8
0
100
AcDbBlockBegin
  2
-span_nhip3_dim_attdef0
 70
2
 10
0.0
 20
0.0
 30
0.0
  3
-span_nhip3_dim_attdef0
  1

  0
ATTDEF
  5
414
330
411
100
AcDbEntity
  8
0
100
AcDbText
 10
-218.1
 20
30.6703125
 30
0.0
 40
150.0
  1
2100
  7
textstyle3
 72
1
 11
0.0
 21
0.0
 31
0.0
100
AcDbAttributeDefinition
  3
dimension
  2
noidung
 70
0
 74
1
  0
ENDBLK
  5
413
330
411
100
AcDbEntity
  8
0
100
AcDbBlockEnd
  0
ENDSEC
  0
SECTION
  2
ENTITIES
  0
LINE
  5
33
330
17
100
AcDbEntity
  8
ADD_LINE
100
AcDbLine
 10
525.0
 20
15000.0
 30
0.0
 11
525.0
 21
0.0
 31
0.0
  0
LINE
  5
34
330
17
100
AcDbEntity
  8
0
100
AcDbLine
 10
25.0
 20
15000.0
 30
0.0
 11
25.0
 21
0.0
 31
0.0
  0
LINE
  5
35
330
17
100
AcDbEntity
  8
0
100
AcDbLine
 10
1025.0
 20
15000.0
 30
0.0
 11
1025.0
 21
0.0
 31
0.0
  0
INSERT
  5
36
330
17
100
AcDbEntity
  8
0
100
AcDbBlockReference
  2
-span_hatch_pchihadc
 10
525.0
 20
14500.676
 30
0.0
  0
LINE
  5
38
330
17
100
AcDbEntity
  8
0
100
AcDbLine
 10
525.0
 20
14200.676
 30
0.0
 11
25.0
 21
14200.676
 31
0.0
  0
INSERT
  5
39
330
17
100
AcDbEntity
  8
0
100
AcDbBlockReference
  2
-trai_dim_cgvbquip
 10
275.0
 20
14200.676
 30
0.0
 41
1.1304347826086956
 42
1.1304347826086956
  0
INSERT
  5
3B
330
17
100
AcDbEntity
  8
0
100
AcDbBlockReference
  2
-trai_hatch_duwrfmnt
 10
25.0
 20
14200.676
 30
0.0
  0
LINE
  5
3D
330
17
100
AcDbEntity
  8
0
100
AcDbLine
 10
525.0
 20
14200.676
 30
0.0
 11
1025.0
 21
14200.676
 31
0.0
  0
INSERT
  5
3E
330
17
100
AcDbEntity
  8
0
100
AcDbBlockReference
  2
-phai_dim_kmokakme
 10
775.0
 20
14200.676
 30
0.0
 41
1.1304347826086956
 42
1.1304347826086956
  0
INSERT
  5
40
330
17
100
AcDbEntity
  8
0
100
AcDbBlockReference
  2
-phai_hatch_owgjerhg
 10
1025.0
 20
14200.676
 30
0.0
  0
INSERT
  5
42
330
17
100
AcDbEntity
  8
0
100
AcDbBlockReference
  2
-giua_hatch_ilzftine
 10
525.0
 20
14200.676
 30
0.0
  0
INSERT
  5
44
330
17
100
AcDbEntity
  8
0
100
AcDbBlockReference
  2
-doori_pqjcgspf
 10
525.0
 20
15000.0
 30
0.0
 41
0.8478260869565216
 42
0.8478260869565216
  0
LINE
  5
82
330
17
100
AcDbEntity
  8
ADD_LINE
100
AcDbLine
 10
7025.0
 20
15000.0
 30
0.0
 11
7025.0
 21
0.0
 31
0.0
  0
LINE
  5
83
330
17
100
AcDbEntity
  8
0
100
AcDbLine
 10
6525.0
 20
15000.0
 30
0.0
 11
6525.0
 21
0.0
 31
0.0
  0
LINE
  5
84
330
17
100
AcDbEntity
  8
0
100
AcDbLine
 10
7525.0
 20
15000.0
 30
0.0
 11
7525.0
 21
0.0
 31
0.0
  0
INSERT
  5
85
330
17
100
AcDbEntity
  8
0
100
AcDbBlockReference
  2
-span_hatch_cgawgnyl
 10
7025.0
 20
14500.676
 30
0.0
  0
LINE
  5
87
330
17
100
AcDbEntity
  8
0
100
AcDbLine
 10
7025.0
 20
14200.676
 30
0.0
 11
6525.0
 21
14200.676
 31
0.0
  0
INSERT
  5
88
330
17
100
AcDbEntity
  8
0
100
AcDbBlockReference
  2
-trai_dim_eugmcqxz
 10
6775.0
 20
14200.676
 30
0.0
 41
1.1304347826086956
 42
1.1304347826086956
  0
INSERT
  5
8A
330
17
100
AcDbEntity
  8
0
100
AcDbBlockReference
  2
-trai_hatch_kbkewimy
 10
6525.0
 20
14200.676
 30
0.0
  0
LINE
  5
8C
330
17
100
AcDbEntity
  8
0
100
AcDbLine
 10
7025.0
 20
14200.676
 30
0.0
 11
7525.0
 21
14200.676
 31
0.0
  0
INSERT
  5
8D
330
17
100
AcDbEntity
  8
0
100
AcDbBlockReference
  2
-phai_dim_wlbgaaeb
 10
7275.0
 20
14200.676
 30
0.0
 41
1.1304347826086956
 42
1.1304347826086956
  0
INSERT
  5
8F
330
17
100
AcDbEntity
  8
0
100
AcDbBlockReference
  2
-phai_hatch_cniiaqvu
 10
7525.0
 20
14200.676
 30
0.0
  0
INSERT
  5
91
330
17
100
AcDbEntity
  8
0
100
AcDbBlockReference
  2
-giua_hatch_bnfdlerc
 10
7025.0
 20
14200.676
 30
0.0
  0
INSERT
  5
93
330
17
100
AcDbEntity
  8
0
100
AcDbBlockReference
  2
-doori_qrvltnbh
 10
7025.0
 20
15000.0
 30
0.0
 41
0.8478260869565216
 42
0.8478260869565216
  0
LINE
  5
CE
330
17
100
AcDbEntity
  8
ADD_LINE
100
AcDbLine
 10
13525.0
 20
15000.0
 30
0.0
 11
13525.0
 21
0.0
 31
0.0
  0
LINE
  5
CF
330
17
100
AcDbEntity
  8
0
100
AcDbLine
 10
13025.0
 20
15000.0
 30
0.0
 11
13025.0
 21
0.0
 31
0.0
  0
LINE
  5
D0
330
17
100
AcDbEntity
  8
0
100
AcDbLine
 10
14025.0
 20
15000.0
 30
0.0
 11
14025.0
 21
0.0
 31
0.0
  0
INSERT
  5
D1
330
17
100
AcDbEntity
  8
0
100
AcDbBlockReference
  2
-span_hatch_yeprsqkl
 10
13525.0
 20
14500.676
 30
0.0
  0
LINE
  5
D3
330
17
100
AcDbEntity
  8
0
100
AcDbLine
 10
13525.0
 20
14200.676
 30
0.0
 11
13025.0
 21
14200.676
 31
0.0
  0
INSERT
  5
D4
330
17
100
AcDbEntity
  8
0
100
AcDbBlockReference
  2
-trai_dim_zbcdaowf
 10
13275.0
 20
14200.676
 30
0.0
 41
1.1304347826086956
 42
1.1304347826086956
  0
INSERT
  5
D6
330
17
100
AcDbEntity
  8
0
100
AcDbBlockReference
  2
-trai_hatch_nylhmgfa
 10
13025.0
 20
14200.676
 30
0.0
  0
LINE
  5
D8
330
17
100
AcDbEntity
  8
0
100
AcDbLine
 10
13525.0
 20
14200.676
 30
0.0
 11
14025.0
 21
14200.676
 31
0.0
  0
INSERT
  5
D9
330
17
100
AcDbEntity
  8
0
100
AcDbBlockReference
  2
-phai_dim_frbhzejz
 10
13775.0
 20
14200.676
 30
0.0
 41
1.1304347826086956
 42
1.1304347826086956
  0
INSERT
  5
DB
330
17
100
AcDbEntity
  8
0
100
AcDbBlockReference
  2
-phai_hatch_vifozeyc
 10
14025.0
 20
14200.676
 30
0.0
  0
INSERT
  5
DD
330
17
100
AcDbEntity
  8
0
100
AcDbBlockReference
  2
-giua_hatch_msijynvw
 10
13525.0
 20
14200.676
 30
0.0
  0
INSERT
  5
DF
330
17
100
AcDbEntity
  8
0
100
AcDbBlockReference
  2
-doori_gpypplvt
 10
13525.0
 20
15000.0
 30
0.0
 41
0.8478260869565216
 42
0.8478260869565216
  0
LINE
  5
11A
330
17
100
AcDbEntity
  8
0
100
AcDbLine
 10
525.0
 20
14500.676
 30
0.0
 11
7025.0
 21
14500.676
 31
0.0
  0
LINE
  5
11C
330
17
100
AcDbEntity
  8
0
100
AcDbLine
 10
1025.0
 20
14200.676
 30
0.0
 11
6525.0
 21
14200.676
 31
0.0
  0
LINE
  5
11D
330
17
100
AcDbEntity
  8
0
100
AcDbLine
 10
6525.0
 20
13900.676
 30
0.0
 11
5150.0
 21
13900.676
 31
0.0
  0
LINE
  5
11E
330
17
100
AcDbEntity
  8
0
100
AcDbLine
 10
5150.0
 20
13900.676
 30
0.0
 11
2400.0
 21
13900.676
 31
0.0
  0
LINE
  5
11F
330
17
100
AcDbEntity
  8
0
100
AcDbLine
 10
2400.0
 20
13900.676
 30
0.0
 11
1025.0
 21
13900.676
 31
0.0
  0
INSERT
  5
120
330
17
100
AcDbEntity
  8
0
100
AcDbBlockReference
  2
-span_nhip1_top3_xzwsuzja
 10
1712.5
 20
12800.676
 30
0.0
 41
1.6956521739130437
 42
1.6956521739130437
  0
INSERT
  5
122
330
17
100
AcDbEntity
  8
0
100
AcDbBlockReference
  2
-span_nhip1_top2_uimkfgse
 10
1712.5
 20
13000.676
 30
0.0
 41
1.6956521739130437
 42
1.6956521739130437
  0
LINE
  5
124
330
17
100
AcDbEntity
  8
0
100
AcDbLine
 10
2212.5
 20
13200.676
 30
0.0
 11
1212.5
 21
13200.676
 31
0.0
  0
LINE
  5
125
330
17
100
AcDbEntity
  8
0
100
AcDbLine
 10
1212.5
 20
13200.676
 30
0.0
 11
1212.5
 21
11700.676
 31
0.0
  0
LINE
  5
126
330
17
100
AcDbEntity
  8
0
100
AcDbLine
 10
1212.5
 20
11700.676
 30
0.0
 11
2212.5
 21
11700.676
 31
0.0
  0
INSERT
  5
127
330
17
100
AcDbEntity
  8
0
100
AcDbBlockReference
  2
-span_nhip1_bot1_cbefcphq
 10
1712.5
 20
12100.676
 30
0.0
 41
1.6956521739130437
 42
1.6956521739130437
  0
INSERT
  5
129
330
17
100
AcDbEntity
  8
0
100
AcDbBlockReference
  2
-span_nhip1_bot2_fymjdaqi
 10
1712.5
 20
11900.676
 30
0.0
 41
1.6956521739130437
 42
1.6956521739130437
  0
INSERT
  5
12B
330
17
100
AcDbEntity
  8
0
100
AcDbBlockReference
  2
-span_nhip1_bot3_otiigeam
 10
1712.5
 20
11700.676
 30
0.0
 41
1.6956521739130437
 42
1.6956521739130437
  0
LINE
  5
12D
330
17
100
AcDbEntity
  8
0
100
AcDbLine
 10
2212.5
 20
11700.676
 30
0.0
 11
2212.5
 21
13200.676
 31
0.0
  0
INSERT
  5
12E
330
17
100
AcDbEntity
  8
0
100
AcDbBlockReference
  2
-span_nhip1_top1_hnqvsgoe
 10
1712.5
 20
13200.676
 30
0.0
 41
1.6956521739130437
 42
1.6956521739130437
  0
INSERT
  5
130
330
17
100
AcDbEntity
  8
0
100
AcDbBlockReference
  2
-span_nhip1_dim_mypsncex
 10
1712.5
 20
13900.676
 30
0.0
 41
1.1304347826086956
 42
1.1304347826086956
  0
INSERT
  5
132
330
17
100
AcDbEntity
  8
0
100
AcDbBlockReference
  2
-span_nhip1_hatch1_rovqzqdu
 10
1025.0
 20
13900.676
 30
0.0
  0
LINE
  5
134
330
17
100
AcDbEntity
  8
0
100
AcDbLine
 10
2400.0
 20
13900.676
 30
0.0
 11
2400.0
 21
1900.6760000000004
 31
0.0
  0
INSERT
  5
135
330
17
100
AcDbEntity
  8
0
100
AcDbBlockReference
  2
-span_dim_fyfowiqy
 10
3775.0
 20
14500.676
 30
0.0
 41
1.1304347826086956
 42
1.1304347826086956
  0
INSERT
  5
137
330
17
100
AcDbEntity
  8
0
100
AcDbBlockReference
  2
-span_tong_crymqwni
 10
3775.0
 20
14200.676
 30
0.0
 41
1.1304347826086956
 42
1.1304347826086956
  0
INSERT
  5
139
330
17
100
AcDbEntity
  8
0
100
AcDbBlockReference
  2
-span_nhip2_top3_fazpxidm
 10
3775.0
 20
12800.676
 30
0.0
 41
1.6956521739130437
 42
1.6956521739130437
  0
INSERT
  5
13B
330
17
100
AcDbEntity
  8
0
100
AcDbBlockReference
  2
-span_nhip2_top2_qwjhtvce
 10
3775.0
 20
13000.676
 30
0.0
 41
1.6956521739130437
 42
1.6956521739130437
  0
LINE
  5
13D
330
17
100
AcDbEntity
  8
0
100
AcDbLine
 10
4275.0
 20
13200.676
 30
0.0
 11
3275.0
 21
13200.676
 31
0.0
  0
LINE
  5
13E
330
17
100
AcDbEntity
  8
0
100
AcDbLine
 10
3275.0
 20
13200.676
 30
0.0
 11
3275.0
 21
11700.676
 31
0.0
  0
LINE
  5
13F
330
17
100
AcDbEntity
  8
0
100
AcDbLine
 10
3275.0
 20
11700.676
 30
0.0
 11
4275.0
 21
11700.676
 31
0.0
  0
INSERT
  5
140
330
17
100
AcDbEntity
  8
0
100
AcDbBlockReference
  2
-span_nhip2_bot1_qvodbpjd
 10
3775.0
 20
12100.676
 30
0.0
 41
1.6956521739130437
 42
1.6956521739130437
  0
INSERT
  5
142
330
17
100
AcDbEntity
  8
0
100
AcDbBlockReference
  2
-span_nhip2_bot2_qxdcdvyl
 10
3775.0
 20
11900.676
 30
0.0
 41
1.6956521739130437
 42
1.6956521739130437
  0
INSERT
  5
144
330
17
100
AcDbEntity
  8
0
100
AcDbBlockReference
  2
-span_nhip2_bot3_atsamvqm
 10
3775.0
 20
11700.676
 30
0.0
 41
1.6956521739130437
 42
1.6956521739130437
  0
INSERT
  5
146
330
17
100
AcDbEntity
  8
0
100
AcDbBlockReference
  2
-span_WxH_sptmpukl
 10
3775.0
 20
11700.676
 30
0.0
 41
1.1304347826086958
 42
1.1304347826086958
  0
LINE
  5
148
330
17
100
AcDbEntity
  8
0
100
AcDbLine
 10
4275.0
 20
11700.676
 30
0.0
 11
4275.0
 21
13200.676
 31
0.0
  0
INSERT
  5
149
330
17
100
AcDbEntity
  8
0
100
AcDbBlockReference
  2
-span_nhip2_top1_gpysajyh
 10
3775.0
 20
13200.676
 30
0.0
 41
1.6956521739130437
 42
1.6956521739130437
  0
INSERT
  5
14B
330
17
100
AcDbEntity
  8
0
100
AcDbBlockReference
  2
-span_nhip2_dim_tusklgxn
 10
3775.0
 20
13900.676
 30
0.0
 41
1.1304347826086956
 42
1.1304347826086956
  0
INSERT
  5
14D
330
17
100
AcDbEntity
  8
0
100
AcDbBlockReference
  2
-span_hari_pczjzkpg
 10
3775.0
 20
13900.676
 30
0.0
 41
0.8478260869565216
 42
0.8478260869565216
  0
INSERT
  5
14F
330
17
100
AcDbEntity
  8
0
100
AcDbBlockReference
  2
-span_dansa_tntgvofn
 10
3775.0
 20
13900.676
 30
0.0
 41
0.8478260869565221
 42
0.8478260869565221
  0
INSERT
  5
151
330
17
100
AcDbEntity
  8
0
100
AcDbBlockReference
  2
-span_nhip2_hatch1_sczwiafp
 10
2400.0
 20
13900.676
 30
0.0
  0
LINE
  5
153
330
17
100
AcDbEntity
  8
0
100
AcDbLine
 10
5150.0
 20
13900.676
 30
0.0
 11
5150.0
 21
1900.6760000000004
 31
0.0
  0
INSERT
  5
154
330
17
100
AcDbEntity
  8
0
100
AcDbBlockReference
  2
-span_nhip3_hatch1_ivadzcyb
 10
5150.0
 20
13900.676
 30
0.0
  0
INSERT
  5
156
330
17
100
AcDbEntity
  8
0
100
AcDbBlockReference
  2
-span_nhip3_top3_qvdyrrcc
 10
5837.5
 20
12800.676
 30
0.0
 41
1.6956521739130437
 42
1.6956521739130437
  0
INSERT
  5
158
330
17
100
AcDbEntity
  8
0
100
AcDbBlockReference
  2
-span_nhip3_top2_zqjwltgi
 10
5837.5
 20
13000.676
 30
0.0
 41
1.6956521739130437
 42
1.6956521739130437
  0
LINE
  5
15A
330
17
100
AcDbEntity
  8
0
100
AcDbLine
 10
6337.5
 20
13200.676
 30
0.0
 11
5337.5
 21
13200.676
 31
0.0
  0
LINE
  5
15B
330
17
100
AcDbEntity
  8
0
100
AcDbLine
 10
5337.5
 20
13200.676
 30
0.0
 11
5337.5
 21
11700.676
 31
0.0
  0
LINE
  5
15C
330
17
100
AcDbEntity
  8
0
100
AcDbLine
 10
5337.5
 20
11700.676
 30
0.0
 11
6337.5
 21
11700.676
 31
0.0
  0
INSERT
  5
15D
330
17
100
AcDbEntity
  8
0
100
AcDbBlockReference
  2
-span_nhip3_bot1_yxyvgdvv
 10
5837.5
 20
12100.676
 30
0.0
 41
1.6956521739130437
 42
1.6956521739130437
  0
INSERT
  5
15F
330
17
100
AcDbEntity
  8
0
100
AcDbBlockReference
  2
-span_nhip3_bot2_onwqzcql
 10
5837.5
 20
11900.676
 30
0.0
 41
1.6956521739130437
 42
1.6956521739130437
  0
INSERT
  5
161
330
17
100
AcDbEntity
  8
0
100
AcDbBlockReference
  2
-span_nhip3_bot3_pdybvgls
 10
5837.5
 20
11700.676
 30
0.0
 41
1.6956521739130437
 42
1.6956521739130437
  0
LINE
  5
163
330
17
100
AcDbEntity
  8
0
100
AcDbLine
 10
6337.5
 20
11700.676
 30
0.0
 11
6337.5
 21
13200.676
 31
0.0
  0
INSERT
  5
164
330
17
100
AcDbEntity
  8
0
100
AcDbBlockReference
  2
-span_nhip3_top1_zucrxsha
 10
5837.5
 20
13200.676
 30
0.0
 41
1.6956521739130437
 42
1.6956521739130437
  0
INSERT
  5
166
330
17
100
AcDbEntity
  8
0
100
AcDbBlockReference
  2
-span_nhip3_dim_nvuysuly
 10
5837.5
 20
13900.676
 30
0.0
 41
1.1304347826086956
 42
1.1304347826086956
  0
INSERT
  5
168
330
17
100
AcDbEntity
  8
0
100
AcDbBlockReference
  2
-span_nhip3_hatch2_zligsaru
 10
6525.0
 20
13900.676
 30
0.0
  0
LINE
  5
298
330
17
100
AcDbEntity
  8
0
100
AcDbLine
 10
7025.0
 20
14500.676
 30
0.0
 11
13525.0
 21
14500.676
 31
0.0
  0
LINE
  5
29A
330
17
100
AcDbEntity
  8
0
100
AcDbLine
 10
7525.0
 20
14200.676
 30
0.0
 11
13025.0
 21
14200.676
 31
0.0
  0
LINE
  5
29B
330
17
100
AcDbEntity
  8
0
100
AcDbLine
 10
13025.0
 20
13900.676
 30
0.0
 11
11650.0
 21
13900.676
 31
0.0
  0
LINE
  5
29C
330
17
100
AcDbEntity
  8
0
100
AcDbLine
 10
11650.0
 20
13900.676
 30
0.0
 11
8900.0
 21
13900.676
 31
0.0
  0
LINE
  5
29D
330
17
100
AcDbEntity
  8
0
100
AcDbLine
 10
8900.0
 20
13900.676
 30
0.0
 11
7525.0
 21
13900.676
 31
0.0
  0
INSERT
  5
29E
330
17
100
AcDbEntity
  8
0
100
AcDbBlockReference
  2
-span_nhip1_top3_inunqmfj
 10
8212.5
 20
12800.676
 30
0.0
 41
1.6956521739130437
 42
1.6956521739130437
  0
INSERT
  5
2A0
330
17
100
AcDbEntity
  8
0
100
AcDbBlockReference
  2
-span_nhip1_top2_adiublwr
 10
8212.5
 20
13000.676
 30
0.0
 41
1.6956521739130437
 42
1.6956521739130437
  0
LINE
  5
2A2
330
17
100
AcDbEntity
  8
0
100
AcDbLine
 10
8712.5
 20
13200.676
 30
0.0
 11
7712.5
 21
13200.676
 31
0.0
  0
LINE
  5
2A3
330
17
100
AcDbEntity
  8
0
100
AcDbLine
 10
7712.5
 20
13200.676
 30
0.0
 11
7712.5
 21
11700.676
 31
0.0
  0
LINE
  5
2A4
330
17
100
AcDbEntity
  8
0
100
AcDbLine
 10
7712.5
 20
11700.676
 30
0.0
 11
8712.5
 21
11700.676
 31
0.0
  0
INSERT
  5
2A5
330
17
100
AcDbEntity
  8
0
100
AcDbBlockReference
  2
-span_nhip1_bot1_armkluco
 10
8212.5
 20
12100.676
 30
0.0
 41
1.6956521739130437
 42
1.6956521739130437
  0
INSERT
  5
2A7
330
17
100
AcDbEntity
  8
0
100
AcDbBlockReference
  2
-span_nhip1_bot2_zqnlxkje
 10
8212.5
 20
11900.676
 30
0.0
 41
1.6956521739130437
 42
1.6956521739130437
  0
INSERT
  5
2A9
330
17
100
AcDbEntity
  8
0
100
AcDbBlockReference
  2
-span_nhip1_bot3_lypxfhyh
 10
8212.5
 20
11700.676
 30
0.0
 41
1.6956521739130437
 42
1.6956521739130437
  0
LINE
  5
2AB
330
17
100
AcDbEntity
  8
0
100
AcDbLine
 10
8712.5
 20
11700.676
 30
0.0
 11
8712.5
 21
13200.676
 31
0.0
  0
INSERT
  5
2AC
330
17
100
AcDbEntity
  8
0
100
AcDbBlockReference
  2
-span_nhip1_top1_jqciodfw
 10
8212.5
 20
13200.676
 30
0.0
 41
1.6956521739130437
 42
1.6956521739130437
  0
INSERT
  5
2AE
330
17
100
AcDbEntity
  8
0
100
AcDbBlockReference
  2
-span_nhip1_dim_qdddvstv
 10
8212.5
 20
13900.676
 30
0.0
 41
1.1304347826086956
 42
1.1304347826086956
  0
INSERT
  5
2B0
330
17
100
AcDbEntity
  8
0
100
AcDbBlockReference
  2
-span_nhip1_hatch1_dhmrnjtp
 10
7525.0
 20
13900.676
 30
0.0
  0
LINE
  5
2B2
330
17
100
AcDbEntity
  8
0
100
AcDbLine
 10
8900.0
 20
13900.676
 30
0.0
 11
8900.0
 21
1900.6760000000004
 31
0.0
  0
INSERT
  5
2B3
330
17
100
AcDbEntity
  8
0
100
AcDbBlockReference
  2
-span_dim_ztydtkjn
 10
10275.0
 20
14500.676
 30
0.0
 41
1.1304347826086956
 42
1.1304347826086956
  0
INSERT
  5
2B5
330
17
100
AcDbEntity
  8
0
100
AcDbBlockReference
  2
-span_tong_wzhtgkzv
 10
10275.0
 20
14200.676
 30
0.0
 41
1.1304347826086956
 42
1.1304347826086956
  0
INSERT
  5
2B7
330
17
100
AcDbEntity
  8
0
100
AcDbBlockReference
  2
-span_nhip2_top3_jflgpctr
 10
10275.0
 20
12800.676
 30
0.0
 41
1.6956521739130437
 42
1.6956521739130437
  0
INSERT
  5
2B9
330
17
100
AcDbEntity
  8
0
100
AcDbBlockReference
  2
-span_nhip2_top2_lzuwyvfd
 10
10275.0
 20
13000.676
 30
0.0
 41
1.6956521739130437
 42
1.6956521739130437
  0
LINE
  5
2BB
330
17
100
AcDbEntity
  8
0
100
AcDbLine
 10
10775.0
 20
13200.676
 30
0.0
 11
9775.0
 21
13200.676
 31
0.0
  0
LINE
  5
2BC
330
17
100
AcDbEntity
  8
0
100
AcDbLine
 10
9775.0
 20
13200.676
 30
0.0
 11
9775.0
 21
11700.676
 31
0.0
  0
LINE
  5
2BD
330
17
100
AcDbEntity
  8
0
100
AcDbLine
 10
9775.0
 20
11700.676
 30
0.0
 11
10775.0
 21
11700.676
 31
0.0
  0
INSERT
  5
2BE
330
17
100
AcDbEntity
  8
0
100
AcDbBlockReference
  2
-span_nhip2_bot1_vwrdcwvt
 10
10275.0
 20
12100.676
 30
0.0
 41
1.6956521739130437
 42
1.6956521739130437
  0
INSERT
  5
2C0
330
17
100
AcDbEntity
  8
0
100
AcDbBlockReference
  2
-span_nhip2_bot2_xfgbutnd
 10
10275.0
 20
11900.676
 30
0.0
 41
1.6956521739130437
 42
1.6956521739130437
  0
INSERT
  5
2C2
330
17
100
AcDbEntity
  8
0
100
AcDbBlockReference
  2
-span_nhip2_bot3_jkyelxdr
 10
10275.0
 20
11700.676
 30
0.0
 41
1.6956521739130437
 42
1.6956521739130437
  0
INSERT
  5
2C4
330
17
100
AcDbEntity
  8
0
100
AcDbBlockReference
  2
-span_WxH_itplevzx
 10
10275.0
 20
11700.676
 30
0.0
 41
1.1304347826086958
 42
1.1304347826086958
  0
LINE
  5
2C6
330
17
100
AcDbEntity
  8
0
100
AcDbLine
 10
10775.0
 20
11700.676
 30
0.0
 11
10775.0
 21
13200.676
 31
0.0
  0
INSERT
  5
2C7
330
17
100
AcDbEntity
  8
0
100
AcDbBlockReference
  2
-span_nhip2_top1_qvymqhju
 10
10275.0
 20
13200.676
 30
0.0
 41
1.6956521739130437
 42
1.6956521739130437
  0
INSERT
  5
2C9
330
17
100
AcDbEntity
  8
0
100
AcDbBlockReference
  2
-span_nhip2_dim_dsyugmex
 10
10275.0
 20
13900.676
 30
0.0
 41
1.1304347826086956
 42
1.1304347826086956
  0
INSERT
  5
2CB
330
17
100
AcDbEntity
  8
0
100
AcDbBlockReference
  2
-span_hari_kiuregkt
 10
10275.0
 20
13900.676
 30
0.0
 41
0.8478260869565216
 42
0.8478260869565216
  0
INSERT
  5
2CD
330
17
100
AcDbEntity
  8
0
100
AcDbBlockReference
  2
-span_dansa_lcmhyglj
 10
10275.0
 20
13900.676
 30
0.0
 41
0.8478260869565221
 42
0.8478260869565221
  0
INSERT
  5
2CF
330
17
100
AcDbEntity
  8
0
100
AcDbBlockReference
  2
-span_nhip2_hatch1_wwfabblw
 10
8900.0
 20
13900.676
 30
0.0
  0
LINE
  5
2D1
330
17
100
AcDbEntity
  8
0
100
AcDbLine
 10
11650.0
 20
13900.676
 30
0.0
 11
11650.0
 21
1900.6760000000004
 31
0.0
  0
INSERT
  5
2D2
330
17
100
AcDbEntity
  8
0
100
AcDbBlockReference
  2
-span_nhip3_hatch1_qdyquous
 10
11650.0
 20
13900.676
 30
0.0
  0
INSERT
  5
2D4
330
17
100
AcDbEntity
  8
0
100
AcDbBlockReference
  2
-span_nhip3_top3_ndfihxbt
 10
12337.5
 20
12800.676
 30
0.0
 41
1.6956521739130437
 42
1.6956521739130437
  0
INSERT
  5
2D6
330
17
100
AcDbEntity
  8
0
100
AcDbBlockReference
  2
-span_nhip3_top2_gfjjaaxz
 10
12337.5
 20
13000.676
 30
0.0
 41
1.6956521739130437
 42
1.6956521739130437
  0
LINE
  5
2D8
330
17
100
AcDbEntity
  8
0
100
AcDbLine
 10
12837.5
 20
13200.676
 30
0.0
 11
11837.5
 21
13200.676
 31
0.0
  0
LINE
  5
2D9
330
17
100
AcDbEntity
  8
0
100
AcDbLine
 10
11837.5
 20
13200.676
 30
0.0
 11
11837.5
 21
11700.676
 31
0.0
  0
LINE
  5
2DA
330
17
100
AcDbEntity
  8
0
100
AcDbLine
 10
11837.5
 20
11700.676
 30
0.0
 11
12837.5
 21
11700.676
 31
0.0
  0
INSERT
  5
2DB
330
17
100
AcDbEntity
  8
0
100
AcDbBlockReference
  2
-span_nhip3_bot1_ahnzlndr
 10
12337.5
 20
12100.676
 30
0.0
 41
1.6956521739130437
 42
1.6956521739130437
  0
INSERT
  5
2DD
330
17
100
AcDbEntity
  8
0
100
AcDbBlockReference
  2
-span_nhip3_bot2_upvppmcn
 10
12337.5
 20
11900.676
 30
0.0
 41
1.6956521739130437
 42
1.6956521739130437
  0
INSERT
  5
2DF
330
17
100
AcDbEntity
  8
0
100
AcDbBlockReference
  2
-span_nhip3_bot3_acbwzula
 10
12337.5
 20
11700.676
 30
0.0
 41
1.6956521739130437
 42
1.6956521739130437
  0
LINE
  5
2E1
330
17
100
AcDbEntity
  8
0
100
AcDbLine
 10
12837.5
 20
11700.676
 30
0.0
 11
12837.5
 21
13200.676
 31
0.0
  0
INSERT
  5
2E2
330
17
100
AcDbEntity
  8
0
100
AcDbBlockReference
  2
-span_nhip3_top1_txpstmgx
 10
12337.5
 20
13200.676
 30
0.0
 41
1.6956521739130437
 42
1.6956521739130437
  0
INSERT
  5
2E4
330
17
100
AcDbEntity
  8
0
100
AcDbBlockReference
  2
-span_nhip3_dim_kvbmrxrs
 10
12337.5
 20
13900.676
 30
0.0
 41
1.1304347826086956
 42
1.1304347826086956
  0
INSERT
  5
2E6
330
17
100
AcDbEntity
  8
0
100
AcDbBlockReference
  2
-span_nhip3_hatch2_rpctzgyu
 10
13025.0
 20
13900.676
 30
0.0
  0
ENDSEC
  0
SECTION
  2
OBJECTS
  0
DICTIONARY
  5
A
330
0
100
AcDbDictionary
280
0
281
1
  3
ACAD_COLOR
350
B
  3
ACAD_GROUP
350
C
  3
ACAD_LAYOUT
350
D
  3
ACAD_MATERIAL
350
E
  3
ACAD_MLEADERSTYLE
350
F
  3
ACAD_MLINESTYLE
350
10
  3
ACAD_PLOTSETTINGS
350
11
  3
ACAD_PLOTSTYLENAME
350
12
  3
ACAD_SCALELIST
350
14
  3
ACAD_TABLESTYLE
350
15
  3
ACAD_VISUALSTYLE
350
16
  3
EZDXF_META
350
2D
  0
DICTIONARY
  5
B
330
A
100
AcDbDictionary
280
0
281
1
  0
DICTIONARY
  5
C
330
A
100
AcDbDictionary
280
0
281
1
  0
DICTIONARY
  5
D
330
A
100
AcDbDictionary
280
0
281
1
  3
Model
350
1A
  3
Layout1
350
1E
  0
DICTIONARY
  5
E
330
A
100
AcDbDictionary
280
0
281
1
  3
ByBlock
350
1F
  3
ByLayer
350
20
  3
Global
350
21
  0
DICTIONARY
  5
F
330
A
100
AcDbDictionary
280
0
281
1
  3
Standard
350
2C
  0
DICTIONARY
  5
10
330
A
100
AcDbDictionary
280
0
281
1
  3
Standard
350
22
  0
DICTIONARY
  5
11
330
A
100
AcDbDictionary
280
0
281
1
  0
ACDBDICTIONARYWDFLT
  5
12
330
A
100
AcDbDictionary
280
0
281
1
  3
Normal
350
13
100
AcDbDictionaryWithDefault
340
13
  0
ACDBPLACEHOLDER
  5
13
330
12
  0
DICTIONARY
  5
14
330
A
100
AcDbDictionary
280
0
281
1
  0
DICTIONARY
  5
15
330
A
100
AcDbDictionary
280
0
281
1
  0
DICTIONARY
  5
16
330
A
100
AcDbDictionary
280
0
281
1
  0
LAYOUT
  5
1A
330
D
100
AcDbPlotSettings
  1

  2
Adobe PDF
  4
A3
  6

 40
7.5
 41
20.0
 42
7.5
 43
20.0
 44
420.0
 45
297.0
 46
0.0
 47
0.0
 48
0.0
 49
0.0
140
0.0
141
0.0
142
1.0
143
1.0
 70
1024
 72
1
 73
0
 74
5
  7

 75
16
 76
0
 77
2
 78
300
147
1.0
148
0.0
149
0.0
100
AcDbLayout
  1
Model
 70
1
 71
0
 10
0.0
 20
0.0
 11
420.0
 21
297.0
 12
0.0
 22
0.0
 32
0.0
 14
1e+20
 24
1e+20
 34
1e+20
 15
-1e+20
 25
-1e+20
 35
-1e+20
146
0.0
 13
0.0
 23
0.0
 33
0.0
 16
1.0
 26
0.0
 36
0.0
 17
0.0
 27
1.0
 37
0.0
 76
1
330
17
  0
LAYOUT
  5
1E
330
D
100
AcDbPlotSettings
  1

  2
Adobe PDF
  4
A3
  6

 40
7.5
 41
20.0
 42
7.5
 43
20.0
 44
420.0
 45
297.0
 46
0.0
 47
0.0
 48
0.0
 49
0.0
140
0.0
141
0.0
142
1.0
143
1.0
 70
0
 72
1
 73
0
 74
5
  7

 75
16
 76
0
 77
2
 78
300
147
1.0
148
0.0
149
0.0
100
AcDbLayout
  1
Layout1
 70
1
 71
1
 10
0.0
 20
0.0
 11
420.0
 21
297.0
 12
0.0
 22
0.0
 32
0.0
 14
1e+20
 24
1e+20
 34
1e+20
 15
-1e+20
 25
-1e+20
 35
-1e+20
146
0.0
 13
0.0
 23
0.0
 33
0.0
 16
1.0
 26
0.0
 36
0.0
 17
0.0
 27
1.0
 37
0.0
 76
1
330
1B
  0
MATERIAL
  5
1F
102
{ACAD_REACTORS
330
E
102
}
330
E
100
AcDbMaterial
  1
ByBlock
  2

 70
0
 40
1.0
 71
1
 41
1.0
 91
-1023410177
 42
1.0
 72
1
  3

 73
1
 74
1
 75
1
 44
0.5
 73
0
 45
1.0
 46
1.0
 77
1
  4

 78
1
 79
1
170
1
 48
1.0
171
1
  6

172
1
173
1
174
1
140
1.0
141
1.0
175
1
  7

176
1
177
1
178
1
143
1.0
179
1
  8

270
1
271
1
272
1
145
1.0
146
1.0
273
1
  9

274
1
275
1
276
1
 42
1.0
 72
1
  3

 73
1
 74
1
 75
1
 94
63
  0
MATERIAL
  5
20
102
{ACAD_REACTORS
330
E
102
}
330
E
100
AcDbMaterial
  1
ByLayer
  2

 70
0
 40
1.0
 71
1
 41
1.0
 91
-1023410177
 42
1.0
 72
1
  3

 73
1
 74
1
 75
1
 44
0.5
 73
0
 45
1.0
 46
1.0
 77
1
  4

 78
1
 79
1
170
1
 48
1.0
171
1
  6

172
1
173
1
174
1
140
1.0
141
1.0
175
1
  7

176
1
177
1
178
1
143
1.0
179
1
  8

270
1
271
1
272
1
145
1.0
146
1.0
273
1
  9

274
1
275
1
276
1
 42
1.0
 72
1
  3

 73
1
 74
1
 75
1
 94
63
  0
MATERIAL
  5
21
102
{ACAD_REACTORS
330
E
102
}
330
E
100
AcDbMaterial
  1
Global
  2

 70
0
 40
1.0
 71
1
 41
1.0
 91
-1023410177
 42
1.0
 72
1
  3

 73
1
 74
1
 75
1
 44
0.5
 73
0
 45
1.0
 46
1.0
 77
1
  4

 78
1
 79
1
170
1
 48
1.0
171
1
  6

172
1
173
1
174
1
140
1.0
141
1.0
175
1
  7

176
1
177
1
178
1
143
1.0
179
1
  8

270
1
271
1
272
1
145
1.0
146
1.0
273
1
  9

274
1
275
1
276
1
 42
1.0
 72
1
  3

 73
1
 74
1
 75
1
 94
63
  0
MLINESTYLE
  5
22
102
{ACAD_REACTORS
330
10
102
}
330
10
100
AcDbMlineStyle
  2
Standard
 70
0
  3

 62
256
 51
90.0
 52
90.0
 71
2
 49
0.5
 62
256
  6
BYLAYER
 49
-0.5
 62
256
  6
BYLAYER
  0
MLEADERSTYLE
  5
2C
102
{ACAD_REACTORS
330
F
102
}
330
F
100
AcDbMLeaderStyle
179
2
170
2
171
1
172
0
 90
2
 40
0.0
 41
0.0
173
1
 91
-1056964608
 92
-2
290
1
 42
2.0
291
1
 43
8.0
  3
Standard
 44
4.0
300

342
29
174
1
175
1
176
0
178
1
 93
-1056964608
 45
4.0
292
0
297
0
 46
4.0
 94
-1056964608
 47
1.0
 49
1.0
140
1.0
294
1
141
0.0
177
0
142
1.0
295
0
296
0
143
3.75
271
0
272
9
273
9
  0
DICTIONARY
  5
2D
330
A
100
AcDbDictionary
281
1
  3
CREATED_BY_EZDXF
350
2E
  3
WRITTEN_BY_EZDXF
350
417
  0
DICTIONARYVAR
  5
2E
330
2D
100
DictionaryVariables
280
0
  1
1.1.3 @ 2023-12-07T23:09:13.686360+00:00
  0
DICTIONARYVAR
  5
417
330
2D
100
DictionaryVariables
280
0
  1
1.1.3 @ 2023-12-07T23:09:20.045864+00:00
  0
ENDSEC
  0
EOF
